G04 (created by PCBNEW (2013-mar-13)-testing) date Fri 19 Jul 2013 02:37:30 PM PDT*
%MOIN*%
G04 Gerber Fmt 3.4, Leading zero omitted, Abs format*
%FSLAX34Y34*%
G01*
G70*
G90*
G04 APERTURE LIST*
%ADD10C,0.005906*%
%ADD11C,0.015000*%
%ADD12C,0.004700*%
%ADD13C,0.005000*%
%ADD14C,0.005900*%
G04 APERTURE END LIST*
G54D10*
G54D11*
X87401Y-31102D02*
X87401Y-52362D01*
X66929Y-31102D02*
X87401Y-31102D01*
X66929Y-52362D02*
X66929Y-31102D01*
X87401Y-52362D02*
X66929Y-52362D01*
G54D12*
X76633Y-50098D02*
X76633Y-50373D01*
X76633Y-49704D02*
X76633Y-49429D01*
X76121Y-50098D02*
X76121Y-50373D01*
X76121Y-49429D02*
X76121Y-49704D01*
X76127Y-50373D02*
X76627Y-50373D01*
X76627Y-49429D02*
X76127Y-49429D01*
X73031Y-38917D02*
X73306Y-38917D01*
X72637Y-38917D02*
X72362Y-38917D01*
X73031Y-39429D02*
X73306Y-39429D01*
X72362Y-39429D02*
X72637Y-39429D01*
X73306Y-39423D02*
X73306Y-38923D01*
X72362Y-38923D02*
X72362Y-39423D01*
X83031Y-37795D02*
X83031Y-38070D01*
X83031Y-37401D02*
X83031Y-37126D01*
X82519Y-37795D02*
X82519Y-38070D01*
X82519Y-37126D02*
X82519Y-37401D01*
X82525Y-38070D02*
X83025Y-38070D01*
X83025Y-37126D02*
X82525Y-37126D01*
X75531Y-41141D02*
X75531Y-40866D01*
X75531Y-41535D02*
X75531Y-41810D01*
X76043Y-41141D02*
X76043Y-40866D01*
X76043Y-41810D02*
X76043Y-41535D01*
X76037Y-40866D02*
X75537Y-40866D01*
X75537Y-41810D02*
X76037Y-41810D01*
X75728Y-45669D02*
X75728Y-45394D01*
X75728Y-46063D02*
X75728Y-46338D01*
X76240Y-45669D02*
X76240Y-45394D01*
X76240Y-46338D02*
X76240Y-46063D01*
X76234Y-45394D02*
X75734Y-45394D01*
X75734Y-46338D02*
X76234Y-46338D01*
X74704Y-42677D02*
X74429Y-42677D01*
X75098Y-42677D02*
X75373Y-42677D01*
X74704Y-42165D02*
X74429Y-42165D01*
X75373Y-42165D02*
X75098Y-42165D01*
X74429Y-42171D02*
X74429Y-42671D01*
X75373Y-42671D02*
X75373Y-42171D01*
X82775Y-33011D02*
X83050Y-33011D01*
X82381Y-33011D02*
X82106Y-33011D01*
X82775Y-33523D02*
X83050Y-33523D01*
X82106Y-33523D02*
X82381Y-33523D01*
X83050Y-33517D02*
X83050Y-33017D01*
X82106Y-33017D02*
X82106Y-33517D01*
X82677Y-38621D02*
X82952Y-38621D01*
X82283Y-38621D02*
X82008Y-38621D01*
X82677Y-39133D02*
X82952Y-39133D01*
X82008Y-39133D02*
X82283Y-39133D01*
X82952Y-39127D02*
X82952Y-38627D01*
X82008Y-38627D02*
X82008Y-39127D01*
X71909Y-44094D02*
X71909Y-44369D01*
X71909Y-43700D02*
X71909Y-43425D01*
X71397Y-44094D02*
X71397Y-44369D01*
X71397Y-43425D02*
X71397Y-43700D01*
X71403Y-44369D02*
X71903Y-44369D01*
X71903Y-43425D02*
X71403Y-43425D01*
X73759Y-47440D02*
X73759Y-47165D01*
X73759Y-47834D02*
X73759Y-48109D01*
X74271Y-47440D02*
X74271Y-47165D01*
X74271Y-48109D02*
X74271Y-47834D01*
X74265Y-47165D02*
X73765Y-47165D01*
X73765Y-48109D02*
X74265Y-48109D01*
X72893Y-44094D02*
X72893Y-44369D01*
X72893Y-43700D02*
X72893Y-43425D01*
X72381Y-44094D02*
X72381Y-44369D01*
X72381Y-43425D02*
X72381Y-43700D01*
X72387Y-44369D02*
X72887Y-44369D01*
X72887Y-43425D02*
X72387Y-43425D01*
X82047Y-38090D02*
X82047Y-38365D01*
X82047Y-37696D02*
X82047Y-37421D01*
X81535Y-38090D02*
X81535Y-38365D01*
X81535Y-37421D02*
X81535Y-37696D01*
X81541Y-38365D02*
X82041Y-38365D01*
X82041Y-37421D02*
X81541Y-37421D01*
X81063Y-38090D02*
X81063Y-38365D01*
X81063Y-37696D02*
X81063Y-37421D01*
X80551Y-38090D02*
X80551Y-38365D01*
X80551Y-37421D02*
X80551Y-37696D01*
X80557Y-38365D02*
X81057Y-38365D01*
X81057Y-37421D02*
X80557Y-37421D01*
X82519Y-34251D02*
X82519Y-33976D01*
X82519Y-34645D02*
X82519Y-34920D01*
X83031Y-34251D02*
X83031Y-33976D01*
X83031Y-34920D02*
X83031Y-34645D01*
X83025Y-33976D02*
X82525Y-33976D01*
X82525Y-34920D02*
X83025Y-34920D01*
X83031Y-36023D02*
X83031Y-36298D01*
X83031Y-35629D02*
X83031Y-35354D01*
X82519Y-36023D02*
X82519Y-36298D01*
X82519Y-35354D02*
X82519Y-35629D01*
X82525Y-36298D02*
X83025Y-36298D01*
X83025Y-35354D02*
X82525Y-35354D01*
X80058Y-44488D02*
X80058Y-44213D01*
X80058Y-44882D02*
X80058Y-45157D01*
X80570Y-44488D02*
X80570Y-44213D01*
X80570Y-45157D02*
X80570Y-44882D01*
X80564Y-44213D02*
X80064Y-44213D01*
X80064Y-45157D02*
X80564Y-45157D01*
X77007Y-41240D02*
X77007Y-40965D01*
X77007Y-41634D02*
X77007Y-41909D01*
X77519Y-41240D02*
X77519Y-40965D01*
X77519Y-41909D02*
X77519Y-41634D01*
X77513Y-40965D02*
X77013Y-40965D01*
X77013Y-41909D02*
X77513Y-41909D01*
X78740Y-43070D02*
X78465Y-43070D01*
X79134Y-43070D02*
X79409Y-43070D01*
X78740Y-42558D02*
X78465Y-42558D01*
X79409Y-42558D02*
X79134Y-42558D01*
X78465Y-42564D02*
X78465Y-43064D01*
X79409Y-43064D02*
X79409Y-42564D01*
X80669Y-41240D02*
X80669Y-41515D01*
X80669Y-40846D02*
X80669Y-40571D01*
X80157Y-41240D02*
X80157Y-41515D01*
X80157Y-40571D02*
X80157Y-40846D01*
X80163Y-41515D02*
X80663Y-41515D01*
X80663Y-40571D02*
X80163Y-40571D01*
X78937Y-39409D02*
X79212Y-39409D01*
X78543Y-39409D02*
X78268Y-39409D01*
X78937Y-39921D02*
X79212Y-39921D01*
X78268Y-39921D02*
X78543Y-39921D01*
X79212Y-39915D02*
X79212Y-39415D01*
X78268Y-39415D02*
X78268Y-39915D01*
G54D13*
X72592Y-48087D02*
X72592Y-47187D01*
X72592Y-47187D02*
X72092Y-47187D01*
X72092Y-47187D02*
X72092Y-48087D01*
X72092Y-48087D02*
X72592Y-48087D01*
X75348Y-46316D02*
X75348Y-45416D01*
X75348Y-45416D02*
X74848Y-45416D01*
X74848Y-45416D02*
X74848Y-46316D01*
X74848Y-46316D02*
X75348Y-46316D01*
X76627Y-48087D02*
X76627Y-47187D01*
X76627Y-47187D02*
X76127Y-47187D01*
X76127Y-47187D02*
X76127Y-48087D01*
X76127Y-48087D02*
X76627Y-48087D01*
X74750Y-47187D02*
X74750Y-48087D01*
X74750Y-48087D02*
X75250Y-48087D01*
X75250Y-48087D02*
X75250Y-47187D01*
X75250Y-47187D02*
X74750Y-47187D01*
X75053Y-41788D02*
X75053Y-40888D01*
X75053Y-40888D02*
X74553Y-40888D01*
X74553Y-40888D02*
X74553Y-41788D01*
X74553Y-41788D02*
X75053Y-41788D01*
X75154Y-39907D02*
X74254Y-39907D01*
X74254Y-39907D02*
X74254Y-40407D01*
X74254Y-40407D02*
X75154Y-40407D01*
X75154Y-40407D02*
X75154Y-39907D01*
X72887Y-45725D02*
X72887Y-44825D01*
X72887Y-44825D02*
X72387Y-44825D01*
X72387Y-44825D02*
X72387Y-45725D01*
X72387Y-45725D02*
X72887Y-45725D01*
X73762Y-38143D02*
X74662Y-38143D01*
X74662Y-38143D02*
X74662Y-37643D01*
X74662Y-37643D02*
X73762Y-37643D01*
X73762Y-37643D02*
X73762Y-38143D01*
X76040Y-37643D02*
X75140Y-37643D01*
X75140Y-37643D02*
X75140Y-38143D01*
X75140Y-38143D02*
X76040Y-38143D01*
X76040Y-38143D02*
X76040Y-37643D01*
X75140Y-39127D02*
X76040Y-39127D01*
X76040Y-39127D02*
X76040Y-38627D01*
X76040Y-38627D02*
X75140Y-38627D01*
X75140Y-38627D02*
X75140Y-39127D01*
X73284Y-37643D02*
X72384Y-37643D01*
X72384Y-37643D02*
X72384Y-38143D01*
X72384Y-38143D02*
X73284Y-38143D01*
X73284Y-38143D02*
X73284Y-37643D01*
X73762Y-39127D02*
X74662Y-39127D01*
X74662Y-39127D02*
X74662Y-38627D01*
X74662Y-38627D02*
X73762Y-38627D01*
X73762Y-38627D02*
X73762Y-39127D01*
X82044Y-44730D02*
X81144Y-44730D01*
X81144Y-44730D02*
X81144Y-45230D01*
X81144Y-45230D02*
X82044Y-45230D01*
X82044Y-45230D02*
X82044Y-44730D01*
X81847Y-43746D02*
X80947Y-43746D01*
X80947Y-43746D02*
X80947Y-44246D01*
X80947Y-44246D02*
X81847Y-44246D01*
X81847Y-44246D02*
X81847Y-43746D01*
X80764Y-42564D02*
X79864Y-42564D01*
X79864Y-42564D02*
X79864Y-43064D01*
X79864Y-43064D02*
X80764Y-43064D01*
X80764Y-43064D02*
X80764Y-42564D01*
X78585Y-45230D02*
X79485Y-45230D01*
X79485Y-45230D02*
X79485Y-44730D01*
X79485Y-44730D02*
X78585Y-44730D01*
X78585Y-44730D02*
X78585Y-45230D01*
X74462Y-44052D02*
X74462Y-43152D01*
X74462Y-43152D02*
X73962Y-43152D01*
X73962Y-43152D02*
X73962Y-44052D01*
X73962Y-44052D02*
X74462Y-44052D01*
X74946Y-43152D02*
X74946Y-44052D01*
X74946Y-44052D02*
X75446Y-44052D01*
X75446Y-44052D02*
X75446Y-43152D01*
X75446Y-43152D02*
X74946Y-43152D01*
G54D11*
X82756Y-45826D02*
X77205Y-45826D01*
X77205Y-45826D02*
X77205Y-52164D01*
X77205Y-52164D02*
X82756Y-52164D01*
X82756Y-52164D02*
X82756Y-45826D01*
G54D14*
X74523Y-49467D02*
X74523Y-48957D01*
X75673Y-49467D02*
X75673Y-48957D01*
X74523Y-49467D02*
X75673Y-49467D01*
X74523Y-48957D02*
X75673Y-48957D01*
G54D13*
X82525Y-31636D02*
X82525Y-32536D01*
X82525Y-32536D02*
X83025Y-32536D01*
X83025Y-32536D02*
X83025Y-31636D01*
X83025Y-31636D02*
X82525Y-31636D01*
G54D12*
X77460Y-45236D02*
X77185Y-45236D01*
X77854Y-45236D02*
X78129Y-45236D01*
X77460Y-44724D02*
X77185Y-44724D01*
X78129Y-44724D02*
X77854Y-44724D01*
X77185Y-44730D02*
X77185Y-45230D01*
X78129Y-45230D02*
X78129Y-44730D01*
G54D13*
X82525Y-43053D02*
X82525Y-43953D01*
X82525Y-43953D02*
X83025Y-43953D01*
X83025Y-43953D02*
X83025Y-43053D01*
X83025Y-43053D02*
X82525Y-43053D01*
X82525Y-44333D02*
X82525Y-45233D01*
X82525Y-45233D02*
X83025Y-45233D01*
X83025Y-45233D02*
X83025Y-44333D01*
X83025Y-44333D02*
X82525Y-44333D01*
G54D11*
X81495Y-36791D02*
X81495Y-31594D01*
X81495Y-31594D02*
X71338Y-31594D01*
X71338Y-31594D02*
X71338Y-36791D01*
X71338Y-36791D02*
X81495Y-36791D01*
G54D13*
X76538Y-50679D02*
X76550Y-50691D01*
X76586Y-50703D01*
X76610Y-50703D01*
X76645Y-50691D01*
X76669Y-50667D01*
X76681Y-50644D01*
X76693Y-50596D01*
X76693Y-50560D01*
X76681Y-50513D01*
X76669Y-50489D01*
X76645Y-50465D01*
X76610Y-50453D01*
X76586Y-50453D01*
X76550Y-50465D01*
X76538Y-50477D01*
X76443Y-50477D02*
X76431Y-50465D01*
X76407Y-50453D01*
X76348Y-50453D01*
X76324Y-50465D01*
X76312Y-50477D01*
X76300Y-50501D01*
X76300Y-50525D01*
X76312Y-50560D01*
X76455Y-50703D01*
X76300Y-50703D01*
X76074Y-50453D02*
X76193Y-50453D01*
X76205Y-50572D01*
X76193Y-50560D01*
X76169Y-50548D01*
X76110Y-50548D01*
X76086Y-50560D01*
X76074Y-50572D01*
X76062Y-50596D01*
X76062Y-50656D01*
X76074Y-50679D01*
X76086Y-50691D01*
X76110Y-50703D01*
X76169Y-50703D01*
X76193Y-50691D01*
X76205Y-50679D01*
X72995Y-39754D02*
X73007Y-39766D01*
X73042Y-39778D01*
X73066Y-39778D01*
X73102Y-39766D01*
X73126Y-39742D01*
X73138Y-39718D01*
X73150Y-39671D01*
X73150Y-39635D01*
X73138Y-39587D01*
X73126Y-39564D01*
X73102Y-39540D01*
X73066Y-39528D01*
X73042Y-39528D01*
X73007Y-39540D01*
X72995Y-39552D01*
X72900Y-39552D02*
X72888Y-39540D01*
X72864Y-39528D01*
X72804Y-39528D01*
X72781Y-39540D01*
X72769Y-39552D01*
X72757Y-39576D01*
X72757Y-39599D01*
X72769Y-39635D01*
X72912Y-39778D01*
X72757Y-39778D01*
X72602Y-39528D02*
X72578Y-39528D01*
X72554Y-39540D01*
X72542Y-39552D01*
X72531Y-39576D01*
X72519Y-39623D01*
X72519Y-39683D01*
X72531Y-39730D01*
X72542Y-39754D01*
X72554Y-39766D01*
X72578Y-39778D01*
X72602Y-39778D01*
X72626Y-39766D01*
X72638Y-39754D01*
X72650Y-39730D01*
X72662Y-39683D01*
X72662Y-39623D01*
X72650Y-39576D01*
X72638Y-39552D01*
X72626Y-39540D01*
X72602Y-39528D01*
X82837Y-36998D02*
X82849Y-37010D01*
X82885Y-37022D01*
X82909Y-37022D01*
X82945Y-37010D01*
X82968Y-36986D01*
X82980Y-36963D01*
X82992Y-36915D01*
X82992Y-36879D01*
X82980Y-36832D01*
X82968Y-36808D01*
X82945Y-36784D01*
X82909Y-36772D01*
X82885Y-36772D01*
X82849Y-36784D01*
X82837Y-36796D01*
X82599Y-37022D02*
X82742Y-37022D01*
X82671Y-37022D02*
X82671Y-36772D01*
X82695Y-36808D01*
X82718Y-36832D01*
X82742Y-36843D01*
X82516Y-36772D02*
X82349Y-36772D01*
X82456Y-37022D01*
X75948Y-40738D02*
X75960Y-40750D01*
X75995Y-40762D01*
X76019Y-40762D01*
X76055Y-40750D01*
X76079Y-40726D01*
X76090Y-40703D01*
X76102Y-40655D01*
X76102Y-40619D01*
X76090Y-40572D01*
X76079Y-40548D01*
X76055Y-40524D01*
X76019Y-40512D01*
X75995Y-40512D01*
X75960Y-40524D01*
X75948Y-40536D01*
X75852Y-40536D02*
X75840Y-40524D01*
X75817Y-40512D01*
X75757Y-40512D01*
X75733Y-40524D01*
X75721Y-40536D01*
X75710Y-40560D01*
X75710Y-40584D01*
X75721Y-40619D01*
X75864Y-40762D01*
X75710Y-40762D01*
X75495Y-40596D02*
X75495Y-40762D01*
X75555Y-40500D02*
X75614Y-40679D01*
X75460Y-40679D01*
X76144Y-46644D02*
X76156Y-46656D01*
X76192Y-46668D01*
X76216Y-46668D01*
X76252Y-46656D01*
X76275Y-46632D01*
X76287Y-46608D01*
X76299Y-46561D01*
X76299Y-46525D01*
X76287Y-46477D01*
X76275Y-46453D01*
X76252Y-46430D01*
X76216Y-46418D01*
X76192Y-46418D01*
X76156Y-46430D01*
X76144Y-46442D01*
X76049Y-46442D02*
X76037Y-46430D01*
X76014Y-46418D01*
X75954Y-46418D01*
X75930Y-46430D01*
X75918Y-46442D01*
X75906Y-46465D01*
X75906Y-46489D01*
X75918Y-46525D01*
X76061Y-46668D01*
X75906Y-46668D01*
X75823Y-46418D02*
X75656Y-46418D01*
X75764Y-46668D01*
X75948Y-42510D02*
X75960Y-42522D01*
X75995Y-42534D01*
X76019Y-42534D01*
X76055Y-42522D01*
X76079Y-42498D01*
X76090Y-42474D01*
X76102Y-42427D01*
X76102Y-42391D01*
X76090Y-42343D01*
X76079Y-42320D01*
X76055Y-42296D01*
X76019Y-42284D01*
X75995Y-42284D01*
X75960Y-42296D01*
X75948Y-42308D01*
X75852Y-42308D02*
X75840Y-42296D01*
X75817Y-42284D01*
X75757Y-42284D01*
X75733Y-42296D01*
X75721Y-42308D01*
X75710Y-42331D01*
X75710Y-42355D01*
X75721Y-42391D01*
X75864Y-42534D01*
X75710Y-42534D01*
X75626Y-42284D02*
X75471Y-42284D01*
X75555Y-42379D01*
X75519Y-42379D01*
X75495Y-42391D01*
X75483Y-42403D01*
X75471Y-42427D01*
X75471Y-42486D01*
X75483Y-42510D01*
X75495Y-42522D01*
X75519Y-42534D01*
X75590Y-42534D01*
X75614Y-42522D01*
X75626Y-42510D01*
X82739Y-32864D02*
X82751Y-32876D01*
X82787Y-32888D01*
X82810Y-32888D01*
X82846Y-32876D01*
X82870Y-32852D01*
X82882Y-32829D01*
X82894Y-32781D01*
X82894Y-32745D01*
X82882Y-32698D01*
X82870Y-32674D01*
X82846Y-32650D01*
X82810Y-32638D01*
X82787Y-32638D01*
X82751Y-32650D01*
X82739Y-32662D01*
X82501Y-32888D02*
X82644Y-32888D01*
X82572Y-32888D02*
X82572Y-32638D01*
X82596Y-32674D01*
X82620Y-32698D01*
X82644Y-32710D01*
X82275Y-32638D02*
X82394Y-32638D01*
X82406Y-32757D01*
X82394Y-32745D01*
X82370Y-32733D01*
X82310Y-32733D01*
X82287Y-32745D01*
X82275Y-32757D01*
X82263Y-32781D01*
X82263Y-32841D01*
X82275Y-32864D01*
X82287Y-32876D01*
X82310Y-32888D01*
X82370Y-32888D01*
X82394Y-32876D01*
X82406Y-32864D01*
X82641Y-39459D02*
X82652Y-39471D01*
X82688Y-39483D01*
X82712Y-39483D01*
X82748Y-39471D01*
X82771Y-39447D01*
X82783Y-39423D01*
X82795Y-39376D01*
X82795Y-39340D01*
X82783Y-39292D01*
X82771Y-39268D01*
X82748Y-39245D01*
X82712Y-39233D01*
X82688Y-39233D01*
X82652Y-39245D01*
X82641Y-39256D01*
X82402Y-39483D02*
X82545Y-39483D01*
X82474Y-39483D02*
X82474Y-39233D01*
X82498Y-39268D01*
X82521Y-39292D01*
X82545Y-39304D01*
X82188Y-39233D02*
X82236Y-39233D01*
X82260Y-39245D01*
X82271Y-39256D01*
X82295Y-39292D01*
X82307Y-39340D01*
X82307Y-39435D01*
X82295Y-39459D01*
X82283Y-39471D01*
X82260Y-39483D01*
X82212Y-39483D01*
X82188Y-39471D01*
X82176Y-39459D01*
X82164Y-39435D01*
X82164Y-39376D01*
X82176Y-39352D01*
X82188Y-39340D01*
X82212Y-39328D01*
X82260Y-39328D01*
X82283Y-39340D01*
X82295Y-39352D01*
X82307Y-39376D01*
X71814Y-43297D02*
X71826Y-43309D01*
X71861Y-43321D01*
X71885Y-43321D01*
X71921Y-43309D01*
X71945Y-43286D01*
X71957Y-43262D01*
X71969Y-43214D01*
X71969Y-43178D01*
X71957Y-43131D01*
X71945Y-43107D01*
X71921Y-43083D01*
X71885Y-43071D01*
X71861Y-43071D01*
X71826Y-43083D01*
X71814Y-43095D01*
X71719Y-43095D02*
X71707Y-43083D01*
X71683Y-43071D01*
X71623Y-43071D01*
X71599Y-43083D01*
X71588Y-43095D01*
X71576Y-43119D01*
X71576Y-43143D01*
X71588Y-43178D01*
X71730Y-43321D01*
X71576Y-43321D01*
X71338Y-43321D02*
X71480Y-43321D01*
X71409Y-43321D02*
X71409Y-43071D01*
X71433Y-43107D01*
X71457Y-43131D01*
X71480Y-43143D01*
X74176Y-48416D02*
X74188Y-48427D01*
X74224Y-48439D01*
X74247Y-48439D01*
X74283Y-48427D01*
X74307Y-48404D01*
X74319Y-48380D01*
X74331Y-48332D01*
X74331Y-48297D01*
X74319Y-48249D01*
X74307Y-48225D01*
X74283Y-48201D01*
X74247Y-48189D01*
X74224Y-48189D01*
X74188Y-48201D01*
X74176Y-48213D01*
X74081Y-48213D02*
X74069Y-48201D01*
X74045Y-48189D01*
X73985Y-48189D01*
X73962Y-48201D01*
X73950Y-48213D01*
X73938Y-48237D01*
X73938Y-48261D01*
X73950Y-48297D01*
X74093Y-48439D01*
X73938Y-48439D01*
X73724Y-48189D02*
X73771Y-48189D01*
X73795Y-48201D01*
X73807Y-48213D01*
X73831Y-48249D01*
X73843Y-48297D01*
X73843Y-48392D01*
X73831Y-48416D01*
X73819Y-48427D01*
X73795Y-48439D01*
X73747Y-48439D01*
X73724Y-48427D01*
X73712Y-48416D01*
X73700Y-48392D01*
X73700Y-48332D01*
X73712Y-48308D01*
X73724Y-48297D01*
X73747Y-48285D01*
X73795Y-48285D01*
X73819Y-48297D01*
X73831Y-48308D01*
X73843Y-48332D01*
X72798Y-43297D02*
X72810Y-43309D01*
X72846Y-43321D01*
X72869Y-43321D01*
X72905Y-43309D01*
X72929Y-43286D01*
X72941Y-43262D01*
X72953Y-43214D01*
X72953Y-43178D01*
X72941Y-43131D01*
X72929Y-43107D01*
X72905Y-43083D01*
X72869Y-43071D01*
X72846Y-43071D01*
X72810Y-43083D01*
X72798Y-43095D01*
X72703Y-43095D02*
X72691Y-43083D01*
X72667Y-43071D01*
X72608Y-43071D01*
X72584Y-43083D01*
X72572Y-43095D01*
X72560Y-43119D01*
X72560Y-43143D01*
X72572Y-43178D01*
X72715Y-43321D01*
X72560Y-43321D01*
X72465Y-43095D02*
X72453Y-43083D01*
X72429Y-43071D01*
X72369Y-43071D01*
X72346Y-43083D01*
X72334Y-43095D01*
X72322Y-43119D01*
X72322Y-43143D01*
X72334Y-43178D01*
X72477Y-43321D01*
X72322Y-43321D01*
X81833Y-37294D02*
X81844Y-37305D01*
X81880Y-37317D01*
X81904Y-37317D01*
X81940Y-37305D01*
X81963Y-37282D01*
X81975Y-37258D01*
X81987Y-37210D01*
X81987Y-37174D01*
X81975Y-37127D01*
X81963Y-37103D01*
X81940Y-37079D01*
X81904Y-37067D01*
X81880Y-37067D01*
X81844Y-37079D01*
X81833Y-37091D01*
X81618Y-37151D02*
X81618Y-37317D01*
X81678Y-37055D02*
X81737Y-37234D01*
X81583Y-37234D01*
X80848Y-38770D02*
X80860Y-38782D01*
X80896Y-38794D01*
X80920Y-38794D01*
X80955Y-38782D01*
X80979Y-38758D01*
X80991Y-38734D01*
X81003Y-38687D01*
X81003Y-38651D01*
X80991Y-38603D01*
X80979Y-38579D01*
X80955Y-38556D01*
X80920Y-38544D01*
X80896Y-38544D01*
X80860Y-38556D01*
X80848Y-38568D01*
X80765Y-38544D02*
X80610Y-38544D01*
X80693Y-38639D01*
X80658Y-38639D01*
X80634Y-38651D01*
X80622Y-38663D01*
X80610Y-38687D01*
X80610Y-38746D01*
X80622Y-38770D01*
X80634Y-38782D01*
X80658Y-38794D01*
X80729Y-38794D01*
X80753Y-38782D01*
X80765Y-38770D01*
X82226Y-34538D02*
X82238Y-34550D01*
X82274Y-34561D01*
X82298Y-34561D01*
X82333Y-34550D01*
X82357Y-34526D01*
X82369Y-34502D01*
X82381Y-34454D01*
X82381Y-34419D01*
X82369Y-34371D01*
X82357Y-34347D01*
X82333Y-34323D01*
X82298Y-34311D01*
X82274Y-34311D01*
X82238Y-34323D01*
X82226Y-34335D01*
X82131Y-34335D02*
X82119Y-34323D01*
X82095Y-34311D01*
X82036Y-34311D01*
X82012Y-34323D01*
X82000Y-34335D01*
X81988Y-34359D01*
X81988Y-34383D01*
X82000Y-34419D01*
X82143Y-34561D01*
X81988Y-34561D01*
X82226Y-35916D02*
X82238Y-35927D01*
X82274Y-35939D01*
X82298Y-35939D01*
X82333Y-35927D01*
X82357Y-35904D01*
X82369Y-35880D01*
X82381Y-35832D01*
X82381Y-35797D01*
X82369Y-35749D01*
X82357Y-35725D01*
X82333Y-35701D01*
X82298Y-35689D01*
X82274Y-35689D01*
X82238Y-35701D01*
X82226Y-35713D01*
X81988Y-35939D02*
X82131Y-35939D01*
X82060Y-35939D02*
X82060Y-35689D01*
X82083Y-35725D01*
X82107Y-35749D01*
X82131Y-35761D01*
X80356Y-44085D02*
X80368Y-44097D01*
X80404Y-44109D01*
X80428Y-44109D01*
X80463Y-44097D01*
X80487Y-44073D01*
X80499Y-44049D01*
X80511Y-44002D01*
X80511Y-43966D01*
X80499Y-43918D01*
X80487Y-43894D01*
X80463Y-43871D01*
X80428Y-43859D01*
X80404Y-43859D01*
X80368Y-43871D01*
X80356Y-43882D01*
X80213Y-43966D02*
X80237Y-43954D01*
X80249Y-43942D01*
X80261Y-43918D01*
X80261Y-43906D01*
X80249Y-43882D01*
X80237Y-43871D01*
X80213Y-43859D01*
X80166Y-43859D01*
X80142Y-43871D01*
X80130Y-43882D01*
X80118Y-43906D01*
X80118Y-43918D01*
X80130Y-43942D01*
X80142Y-43954D01*
X80166Y-43966D01*
X80213Y-43966D01*
X80237Y-43978D01*
X80249Y-43990D01*
X80261Y-44013D01*
X80261Y-44061D01*
X80249Y-44085D01*
X80237Y-44097D01*
X80213Y-44109D01*
X80166Y-44109D01*
X80142Y-44097D01*
X80130Y-44085D01*
X80118Y-44061D01*
X80118Y-44013D01*
X80130Y-43990D01*
X80142Y-43978D01*
X80166Y-43966D01*
X77424Y-40837D02*
X77436Y-40849D01*
X77472Y-40861D01*
X77495Y-40861D01*
X77531Y-40849D01*
X77555Y-40825D01*
X77567Y-40801D01*
X77579Y-40753D01*
X77579Y-40718D01*
X77567Y-40670D01*
X77555Y-40646D01*
X77531Y-40623D01*
X77495Y-40611D01*
X77472Y-40611D01*
X77436Y-40623D01*
X77424Y-40634D01*
X77186Y-40861D02*
X77329Y-40861D01*
X77257Y-40861D02*
X77257Y-40611D01*
X77281Y-40646D01*
X77305Y-40670D01*
X77329Y-40682D01*
X77091Y-40634D02*
X77079Y-40623D01*
X77055Y-40611D01*
X76995Y-40611D01*
X76972Y-40623D01*
X76960Y-40634D01*
X76948Y-40658D01*
X76948Y-40682D01*
X76960Y-40718D01*
X77103Y-40861D01*
X76948Y-40861D01*
X79097Y-42412D02*
X79109Y-42424D01*
X79145Y-42435D01*
X79169Y-42435D01*
X79204Y-42424D01*
X79228Y-42400D01*
X79240Y-42376D01*
X79252Y-42328D01*
X79252Y-42293D01*
X79240Y-42245D01*
X79228Y-42221D01*
X79204Y-42197D01*
X79169Y-42185D01*
X79145Y-42185D01*
X79109Y-42197D01*
X79097Y-42209D01*
X78859Y-42435D02*
X79002Y-42435D01*
X78931Y-42435D02*
X78931Y-42185D01*
X78954Y-42221D01*
X78978Y-42245D01*
X79002Y-42257D01*
X78621Y-42435D02*
X78764Y-42435D01*
X78692Y-42435D02*
X78692Y-42185D01*
X78716Y-42221D01*
X78740Y-42245D01*
X78764Y-42257D01*
X80574Y-40443D02*
X80586Y-40455D01*
X80621Y-40467D01*
X80645Y-40467D01*
X80681Y-40455D01*
X80705Y-40431D01*
X80716Y-40407D01*
X80728Y-40360D01*
X80728Y-40324D01*
X80716Y-40276D01*
X80705Y-40253D01*
X80681Y-40229D01*
X80645Y-40217D01*
X80621Y-40217D01*
X80586Y-40229D01*
X80574Y-40241D01*
X80336Y-40467D02*
X80478Y-40467D01*
X80407Y-40467D02*
X80407Y-40217D01*
X80431Y-40253D01*
X80455Y-40276D01*
X80478Y-40288D01*
X80181Y-40217D02*
X80157Y-40217D01*
X80133Y-40229D01*
X80121Y-40241D01*
X80109Y-40265D01*
X80097Y-40312D01*
X80097Y-40372D01*
X80109Y-40419D01*
X80121Y-40443D01*
X80133Y-40455D01*
X80157Y-40467D01*
X80181Y-40467D01*
X80205Y-40455D01*
X80216Y-40443D01*
X80228Y-40419D01*
X80240Y-40372D01*
X80240Y-40312D01*
X80228Y-40265D01*
X80216Y-40241D01*
X80205Y-40229D01*
X80181Y-40217D01*
X78781Y-39262D02*
X78793Y-39274D01*
X78829Y-39286D01*
X78853Y-39286D01*
X78888Y-39274D01*
X78912Y-39250D01*
X78924Y-39226D01*
X78936Y-39179D01*
X78936Y-39143D01*
X78924Y-39095D01*
X78912Y-39072D01*
X78888Y-39048D01*
X78853Y-39036D01*
X78829Y-39036D01*
X78793Y-39048D01*
X78781Y-39060D01*
X78662Y-39286D02*
X78615Y-39286D01*
X78591Y-39274D01*
X78579Y-39262D01*
X78555Y-39226D01*
X78543Y-39179D01*
X78543Y-39083D01*
X78555Y-39060D01*
X78567Y-39048D01*
X78591Y-39036D01*
X78638Y-39036D01*
X78662Y-39048D01*
X78674Y-39060D01*
X78686Y-39083D01*
X78686Y-39143D01*
X78674Y-39167D01*
X78662Y-39179D01*
X78638Y-39191D01*
X78591Y-39191D01*
X78567Y-39179D01*
X78555Y-39167D01*
X78543Y-39143D01*
X72503Y-48439D02*
X72586Y-48320D01*
X72646Y-48439D02*
X72646Y-48189D01*
X72550Y-48189D01*
X72527Y-48201D01*
X72515Y-48213D01*
X72503Y-48237D01*
X72503Y-48273D01*
X72515Y-48297D01*
X72527Y-48308D01*
X72550Y-48320D01*
X72646Y-48320D01*
X72407Y-48213D02*
X72396Y-48201D01*
X72372Y-48189D01*
X72312Y-48189D01*
X72288Y-48201D01*
X72277Y-48213D01*
X72265Y-48237D01*
X72265Y-48261D01*
X72277Y-48297D01*
X72419Y-48439D01*
X72265Y-48439D01*
X72146Y-48439D02*
X72098Y-48439D01*
X72074Y-48427D01*
X72062Y-48416D01*
X72038Y-48380D01*
X72027Y-48332D01*
X72027Y-48237D01*
X72038Y-48213D01*
X72050Y-48201D01*
X72074Y-48189D01*
X72122Y-48189D01*
X72146Y-48201D01*
X72157Y-48213D01*
X72169Y-48237D01*
X72169Y-48297D01*
X72157Y-48320D01*
X72146Y-48332D01*
X72122Y-48344D01*
X72074Y-48344D01*
X72050Y-48332D01*
X72038Y-48320D01*
X72027Y-48297D01*
X75259Y-46668D02*
X75342Y-46549D01*
X75401Y-46668D02*
X75401Y-46418D01*
X75306Y-46418D01*
X75282Y-46430D01*
X75271Y-46442D01*
X75259Y-46465D01*
X75259Y-46501D01*
X75271Y-46525D01*
X75282Y-46537D01*
X75306Y-46549D01*
X75401Y-46549D01*
X75163Y-46442D02*
X75151Y-46430D01*
X75128Y-46418D01*
X75068Y-46418D01*
X75044Y-46430D01*
X75032Y-46442D01*
X75021Y-46465D01*
X75021Y-46489D01*
X75032Y-46525D01*
X75175Y-46668D01*
X75021Y-46668D01*
X74806Y-46501D02*
X74806Y-46668D01*
X74866Y-46406D02*
X74925Y-46584D01*
X74771Y-46584D01*
X76538Y-48439D02*
X76622Y-48320D01*
X76681Y-48439D02*
X76681Y-48189D01*
X76586Y-48189D01*
X76562Y-48201D01*
X76550Y-48213D01*
X76538Y-48237D01*
X76538Y-48273D01*
X76550Y-48297D01*
X76562Y-48308D01*
X76586Y-48320D01*
X76681Y-48320D01*
X76443Y-48213D02*
X76431Y-48201D01*
X76407Y-48189D01*
X76348Y-48189D01*
X76324Y-48201D01*
X76312Y-48213D01*
X76300Y-48237D01*
X76300Y-48261D01*
X76312Y-48297D01*
X76455Y-48439D01*
X76300Y-48439D01*
X76217Y-48189D02*
X76050Y-48189D01*
X76157Y-48439D01*
X75160Y-48439D02*
X75244Y-48320D01*
X75303Y-48439D02*
X75303Y-48189D01*
X75208Y-48189D01*
X75184Y-48201D01*
X75172Y-48213D01*
X75160Y-48237D01*
X75160Y-48273D01*
X75172Y-48297D01*
X75184Y-48308D01*
X75208Y-48320D01*
X75303Y-48320D01*
X75065Y-48213D02*
X75053Y-48201D01*
X75029Y-48189D01*
X74970Y-48189D01*
X74946Y-48201D01*
X74934Y-48213D01*
X74922Y-48237D01*
X74922Y-48261D01*
X74934Y-48297D01*
X75077Y-48439D01*
X74922Y-48439D01*
X74779Y-48297D02*
X74803Y-48285D01*
X74815Y-48273D01*
X74827Y-48249D01*
X74827Y-48237D01*
X74815Y-48213D01*
X74803Y-48201D01*
X74779Y-48189D01*
X74732Y-48189D01*
X74708Y-48201D01*
X74696Y-48213D01*
X74684Y-48237D01*
X74684Y-48249D01*
X74696Y-48273D01*
X74708Y-48285D01*
X74732Y-48297D01*
X74779Y-48297D01*
X74803Y-48308D01*
X74815Y-48320D01*
X74827Y-48344D01*
X74827Y-48392D01*
X74815Y-48416D01*
X74803Y-48427D01*
X74779Y-48439D01*
X74732Y-48439D01*
X74708Y-48427D01*
X74696Y-48416D01*
X74684Y-48392D01*
X74684Y-48344D01*
X74696Y-48320D01*
X74708Y-48308D01*
X74732Y-48297D01*
X74274Y-41451D02*
X74358Y-41332D01*
X74417Y-41451D02*
X74417Y-41201D01*
X74322Y-41201D01*
X74298Y-41213D01*
X74286Y-41225D01*
X74274Y-41249D01*
X74274Y-41285D01*
X74286Y-41308D01*
X74298Y-41320D01*
X74322Y-41332D01*
X74417Y-41332D01*
X74179Y-41225D02*
X74167Y-41213D01*
X74143Y-41201D01*
X74084Y-41201D01*
X74060Y-41213D01*
X74048Y-41225D01*
X74036Y-41249D01*
X74036Y-41273D01*
X74048Y-41308D01*
X74191Y-41451D01*
X74036Y-41451D01*
X73941Y-41225D02*
X73929Y-41213D01*
X73905Y-41201D01*
X73846Y-41201D01*
X73822Y-41213D01*
X73810Y-41225D01*
X73798Y-41249D01*
X73798Y-41273D01*
X73810Y-41308D01*
X73953Y-41451D01*
X73798Y-41451D01*
X74865Y-39778D02*
X74948Y-39659D01*
X75008Y-39778D02*
X75008Y-39528D01*
X74913Y-39528D01*
X74889Y-39540D01*
X74877Y-39552D01*
X74865Y-39576D01*
X74865Y-39611D01*
X74877Y-39635D01*
X74889Y-39647D01*
X74913Y-39659D01*
X75008Y-39659D01*
X74770Y-39552D02*
X74758Y-39540D01*
X74734Y-39528D01*
X74674Y-39528D01*
X74651Y-39540D01*
X74639Y-39552D01*
X74627Y-39576D01*
X74627Y-39599D01*
X74639Y-39635D01*
X74782Y-39778D01*
X74627Y-39778D01*
X74544Y-39528D02*
X74389Y-39528D01*
X74472Y-39623D01*
X74436Y-39623D01*
X74413Y-39635D01*
X74401Y-39647D01*
X74389Y-39671D01*
X74389Y-39730D01*
X74401Y-39754D01*
X74413Y-39766D01*
X74436Y-39778D01*
X74508Y-39778D01*
X74532Y-39766D01*
X74544Y-39754D01*
X72798Y-46077D02*
X72881Y-45958D01*
X72941Y-46077D02*
X72941Y-45827D01*
X72846Y-45827D01*
X72822Y-45839D01*
X72810Y-45851D01*
X72798Y-45875D01*
X72798Y-45910D01*
X72810Y-45934D01*
X72822Y-45946D01*
X72846Y-45958D01*
X72941Y-45958D01*
X72560Y-46077D02*
X72703Y-46077D01*
X72631Y-46077D02*
X72631Y-45827D01*
X72655Y-45863D01*
X72679Y-45887D01*
X72703Y-45899D01*
X72441Y-46077D02*
X72393Y-46077D01*
X72369Y-46065D01*
X72358Y-46053D01*
X72334Y-46018D01*
X72322Y-45970D01*
X72322Y-45875D01*
X72334Y-45851D01*
X72346Y-45839D01*
X72369Y-45827D01*
X72417Y-45827D01*
X72441Y-45839D01*
X72453Y-45851D01*
X72465Y-45875D01*
X72465Y-45934D01*
X72453Y-45958D01*
X72441Y-45970D01*
X72417Y-45982D01*
X72369Y-45982D01*
X72346Y-45970D01*
X72334Y-45958D01*
X72322Y-45934D01*
X74373Y-37514D02*
X74456Y-37395D01*
X74516Y-37514D02*
X74516Y-37264D01*
X74420Y-37264D01*
X74397Y-37276D01*
X74385Y-37288D01*
X74373Y-37312D01*
X74373Y-37348D01*
X74385Y-37371D01*
X74397Y-37383D01*
X74420Y-37395D01*
X74516Y-37395D01*
X74135Y-37514D02*
X74278Y-37514D01*
X74206Y-37514D02*
X74206Y-37264D01*
X74230Y-37300D01*
X74254Y-37324D01*
X74278Y-37336D01*
X74051Y-37264D02*
X73897Y-37264D01*
X73980Y-37359D01*
X73944Y-37359D01*
X73920Y-37371D01*
X73909Y-37383D01*
X73897Y-37407D01*
X73897Y-37467D01*
X73909Y-37490D01*
X73920Y-37502D01*
X73944Y-37514D01*
X74016Y-37514D01*
X74039Y-37502D01*
X74051Y-37490D01*
X75751Y-37514D02*
X75834Y-37395D01*
X75894Y-37514D02*
X75894Y-37264D01*
X75798Y-37264D01*
X75775Y-37276D01*
X75763Y-37288D01*
X75751Y-37312D01*
X75751Y-37348D01*
X75763Y-37371D01*
X75775Y-37383D01*
X75798Y-37395D01*
X75894Y-37395D01*
X75513Y-37514D02*
X75656Y-37514D01*
X75584Y-37514D02*
X75584Y-37264D01*
X75608Y-37300D01*
X75632Y-37324D01*
X75656Y-37336D01*
X75298Y-37348D02*
X75298Y-37514D01*
X75358Y-37252D02*
X75417Y-37431D01*
X75263Y-37431D01*
X75751Y-39483D02*
X75834Y-39364D01*
X75894Y-39483D02*
X75894Y-39233D01*
X75798Y-39233D01*
X75775Y-39245D01*
X75763Y-39256D01*
X75751Y-39280D01*
X75751Y-39316D01*
X75763Y-39340D01*
X75775Y-39352D01*
X75798Y-39364D01*
X75894Y-39364D01*
X75513Y-39483D02*
X75656Y-39483D01*
X75584Y-39483D02*
X75584Y-39233D01*
X75608Y-39268D01*
X75632Y-39292D01*
X75656Y-39304D01*
X75286Y-39233D02*
X75406Y-39233D01*
X75417Y-39352D01*
X75406Y-39340D01*
X75382Y-39328D01*
X75322Y-39328D01*
X75298Y-39340D01*
X75286Y-39352D01*
X75275Y-39376D01*
X75275Y-39435D01*
X75286Y-39459D01*
X75298Y-39471D01*
X75322Y-39483D01*
X75382Y-39483D01*
X75406Y-39471D01*
X75417Y-39459D01*
X72876Y-38498D02*
X72959Y-38379D01*
X73019Y-38498D02*
X73019Y-38248D01*
X72923Y-38248D01*
X72900Y-38260D01*
X72888Y-38272D01*
X72876Y-38296D01*
X72876Y-38332D01*
X72888Y-38356D01*
X72900Y-38367D01*
X72923Y-38379D01*
X73019Y-38379D01*
X72733Y-38356D02*
X72757Y-38344D01*
X72769Y-38332D01*
X72781Y-38308D01*
X72781Y-38296D01*
X72769Y-38272D01*
X72757Y-38260D01*
X72733Y-38248D01*
X72685Y-38248D01*
X72662Y-38260D01*
X72650Y-38272D01*
X72638Y-38296D01*
X72638Y-38308D01*
X72650Y-38332D01*
X72662Y-38344D01*
X72685Y-38356D01*
X72733Y-38356D01*
X72757Y-38367D01*
X72769Y-38379D01*
X72781Y-38403D01*
X72781Y-38451D01*
X72769Y-38475D01*
X72757Y-38487D01*
X72733Y-38498D01*
X72685Y-38498D01*
X72662Y-38487D01*
X72650Y-38475D01*
X72638Y-38451D01*
X72638Y-38403D01*
X72650Y-38379D01*
X72662Y-38367D01*
X72685Y-38356D01*
X74254Y-39483D02*
X74337Y-39364D01*
X74397Y-39483D02*
X74397Y-39233D01*
X74301Y-39233D01*
X74278Y-39245D01*
X74266Y-39256D01*
X74254Y-39280D01*
X74254Y-39316D01*
X74266Y-39340D01*
X74278Y-39352D01*
X74301Y-39364D01*
X74397Y-39364D01*
X74028Y-39233D02*
X74147Y-39233D01*
X74159Y-39352D01*
X74147Y-39340D01*
X74123Y-39328D01*
X74063Y-39328D01*
X74039Y-39340D01*
X74028Y-39352D01*
X74016Y-39376D01*
X74016Y-39435D01*
X74028Y-39459D01*
X74039Y-39471D01*
X74063Y-39483D01*
X74123Y-39483D01*
X74147Y-39471D01*
X74159Y-39459D01*
X81636Y-45585D02*
X81719Y-45466D01*
X81779Y-45585D02*
X81779Y-45335D01*
X81683Y-45335D01*
X81659Y-45347D01*
X81648Y-45359D01*
X81636Y-45383D01*
X81636Y-45418D01*
X81648Y-45442D01*
X81659Y-45454D01*
X81683Y-45466D01*
X81779Y-45466D01*
X81552Y-45335D02*
X81386Y-45335D01*
X81493Y-45585D01*
X81439Y-43617D02*
X81522Y-43497D01*
X81582Y-43617D02*
X81582Y-43367D01*
X81486Y-43367D01*
X81463Y-43378D01*
X81451Y-43390D01*
X81439Y-43414D01*
X81439Y-43450D01*
X81451Y-43474D01*
X81463Y-43486D01*
X81486Y-43497D01*
X81582Y-43497D01*
X81225Y-43367D02*
X81272Y-43367D01*
X81296Y-43378D01*
X81308Y-43390D01*
X81332Y-43426D01*
X81344Y-43474D01*
X81344Y-43569D01*
X81332Y-43593D01*
X81320Y-43605D01*
X81296Y-43617D01*
X81248Y-43617D01*
X81225Y-43605D01*
X81213Y-43593D01*
X81201Y-43569D01*
X81201Y-43509D01*
X81213Y-43486D01*
X81225Y-43474D01*
X81248Y-43462D01*
X81296Y-43462D01*
X81320Y-43474D01*
X81332Y-43486D01*
X81344Y-43509D01*
X80356Y-42435D02*
X80439Y-42316D01*
X80499Y-42435D02*
X80499Y-42185D01*
X80404Y-42185D01*
X80380Y-42197D01*
X80368Y-42209D01*
X80356Y-42233D01*
X80356Y-42269D01*
X80368Y-42293D01*
X80380Y-42304D01*
X80404Y-42316D01*
X80499Y-42316D01*
X80142Y-42269D02*
X80142Y-42435D01*
X80201Y-42174D02*
X80261Y-42352D01*
X80106Y-42352D01*
X79077Y-44601D02*
X79160Y-44482D01*
X79219Y-44601D02*
X79219Y-44351D01*
X79124Y-44351D01*
X79100Y-44363D01*
X79089Y-44375D01*
X79077Y-44398D01*
X79077Y-44434D01*
X79089Y-44458D01*
X79100Y-44470D01*
X79124Y-44482D01*
X79219Y-44482D01*
X78993Y-44351D02*
X78839Y-44351D01*
X78922Y-44446D01*
X78886Y-44446D01*
X78862Y-44458D01*
X78850Y-44470D01*
X78839Y-44494D01*
X78839Y-44553D01*
X78850Y-44577D01*
X78862Y-44589D01*
X78886Y-44601D01*
X78958Y-44601D01*
X78981Y-44589D01*
X78993Y-44577D01*
X74373Y-44404D02*
X74456Y-44285D01*
X74516Y-44404D02*
X74516Y-44154D01*
X74420Y-44154D01*
X74397Y-44166D01*
X74385Y-44178D01*
X74373Y-44202D01*
X74373Y-44237D01*
X74385Y-44261D01*
X74397Y-44273D01*
X74420Y-44285D01*
X74516Y-44285D01*
X74278Y-44178D02*
X74266Y-44166D01*
X74242Y-44154D01*
X74182Y-44154D01*
X74159Y-44166D01*
X74147Y-44178D01*
X74135Y-44202D01*
X74135Y-44225D01*
X74147Y-44261D01*
X74289Y-44404D01*
X74135Y-44404D01*
X73897Y-44404D02*
X74039Y-44404D01*
X73968Y-44404D02*
X73968Y-44154D01*
X73992Y-44190D01*
X74016Y-44213D01*
X74039Y-44225D01*
X75357Y-44404D02*
X75440Y-44285D01*
X75500Y-44404D02*
X75500Y-44154D01*
X75405Y-44154D01*
X75381Y-44166D01*
X75369Y-44178D01*
X75357Y-44202D01*
X75357Y-44237D01*
X75369Y-44261D01*
X75381Y-44273D01*
X75405Y-44285D01*
X75500Y-44285D01*
X75262Y-44178D02*
X75250Y-44166D01*
X75226Y-44154D01*
X75167Y-44154D01*
X75143Y-44166D01*
X75131Y-44178D01*
X75119Y-44202D01*
X75119Y-44225D01*
X75131Y-44261D01*
X75274Y-44404D01*
X75119Y-44404D01*
X74964Y-44154D02*
X74940Y-44154D01*
X74917Y-44166D01*
X74905Y-44178D01*
X74893Y-44202D01*
X74881Y-44249D01*
X74881Y-44309D01*
X74893Y-44356D01*
X74905Y-44380D01*
X74917Y-44392D01*
X74940Y-44404D01*
X74964Y-44404D01*
X74988Y-44392D01*
X75000Y-44380D01*
X75012Y-44356D01*
X75024Y-44309D01*
X75024Y-44249D01*
X75012Y-44202D01*
X75000Y-44178D01*
X74988Y-44166D01*
X74964Y-44154D01*
X77847Y-45433D02*
X77847Y-45636D01*
X77836Y-45660D01*
X77824Y-45672D01*
X77800Y-45683D01*
X77752Y-45683D01*
X77728Y-45672D01*
X77717Y-45660D01*
X77705Y-45636D01*
X77705Y-45433D01*
X77609Y-45433D02*
X77455Y-45433D01*
X77538Y-45529D01*
X77502Y-45529D01*
X77478Y-45541D01*
X77467Y-45553D01*
X77455Y-45576D01*
X77455Y-45636D01*
X77467Y-45660D01*
X77478Y-45672D01*
X77502Y-45683D01*
X77574Y-45683D01*
X77597Y-45672D01*
X77609Y-45660D01*
X74531Y-49841D02*
X74555Y-49829D01*
X74579Y-49805D01*
X74615Y-49770D01*
X74638Y-49758D01*
X74662Y-49758D01*
X74650Y-49817D02*
X74674Y-49805D01*
X74698Y-49782D01*
X74710Y-49734D01*
X74710Y-49651D01*
X74698Y-49603D01*
X74674Y-49579D01*
X74650Y-49567D01*
X74603Y-49567D01*
X74579Y-49579D01*
X74555Y-49603D01*
X74543Y-49651D01*
X74543Y-49734D01*
X74555Y-49782D01*
X74579Y-49805D01*
X74603Y-49817D01*
X74650Y-49817D01*
X74305Y-49817D02*
X74448Y-49817D01*
X74376Y-49817D02*
X74376Y-49567D01*
X74400Y-49603D01*
X74424Y-49627D01*
X74448Y-49639D01*
X82837Y-31510D02*
X82921Y-31391D01*
X82980Y-31510D02*
X82980Y-31260D01*
X82885Y-31260D01*
X82861Y-31272D01*
X82849Y-31284D01*
X82837Y-31308D01*
X82837Y-31344D01*
X82849Y-31367D01*
X82861Y-31379D01*
X82885Y-31391D01*
X82980Y-31391D01*
X82754Y-31260D02*
X82599Y-31260D01*
X82683Y-31355D01*
X82647Y-31355D01*
X82623Y-31367D01*
X82611Y-31379D01*
X82599Y-31403D01*
X82599Y-31463D01*
X82611Y-31486D01*
X82623Y-31498D01*
X82647Y-31510D01*
X82718Y-31510D01*
X82742Y-31498D01*
X82754Y-31486D01*
X82385Y-31260D02*
X82433Y-31260D01*
X82456Y-31272D01*
X82468Y-31284D01*
X82492Y-31320D01*
X82504Y-31367D01*
X82504Y-31463D01*
X82492Y-31486D01*
X82480Y-31498D01*
X82456Y-31510D01*
X82409Y-31510D01*
X82385Y-31498D01*
X82373Y-31486D01*
X82361Y-31463D01*
X82361Y-31403D01*
X82373Y-31379D01*
X82385Y-31367D01*
X82409Y-31355D01*
X82456Y-31355D01*
X82480Y-31367D01*
X82492Y-31379D01*
X82504Y-31403D01*
X72470Y-36969D02*
X72410Y-37219D01*
X72363Y-37040D01*
X72315Y-37219D01*
X72255Y-36969D01*
X72029Y-37219D02*
X72172Y-37219D01*
X72101Y-37219D02*
X72101Y-36969D01*
X72125Y-37005D01*
X72148Y-37028D01*
X72172Y-37040D01*
X77699Y-44577D02*
X77711Y-44589D01*
X77746Y-44601D01*
X77770Y-44601D01*
X77806Y-44589D01*
X77830Y-44565D01*
X77842Y-44541D01*
X77853Y-44494D01*
X77853Y-44458D01*
X77842Y-44410D01*
X77830Y-44386D01*
X77806Y-44363D01*
X77770Y-44351D01*
X77746Y-44351D01*
X77711Y-44363D01*
X77699Y-44375D01*
X77615Y-44351D02*
X77449Y-44351D01*
X77556Y-44601D01*
X77860Y-38150D02*
X77860Y-38352D01*
X77872Y-38376D01*
X77884Y-38388D01*
X77908Y-38400D01*
X77955Y-38400D01*
X77979Y-38388D01*
X77991Y-38376D01*
X78003Y-38352D01*
X78003Y-38150D01*
X78134Y-38400D02*
X78182Y-38400D01*
X78205Y-38388D01*
X78217Y-38376D01*
X78241Y-38340D01*
X78253Y-38293D01*
X78253Y-38198D01*
X78241Y-38174D01*
X78229Y-38162D01*
X78205Y-38150D01*
X78158Y-38150D01*
X78134Y-38162D01*
X78122Y-38174D01*
X78110Y-38198D01*
X78110Y-38257D01*
X78122Y-38281D01*
X78134Y-38293D01*
X78158Y-38305D01*
X78205Y-38305D01*
X78229Y-38293D01*
X78241Y-38281D01*
X78253Y-38257D01*
X82837Y-42928D02*
X82921Y-42809D01*
X82980Y-42928D02*
X82980Y-42678D01*
X82885Y-42678D01*
X82861Y-42689D01*
X82849Y-42701D01*
X82837Y-42725D01*
X82837Y-42761D01*
X82849Y-42785D01*
X82861Y-42797D01*
X82885Y-42809D01*
X82980Y-42809D01*
X82754Y-42678D02*
X82599Y-42678D01*
X82683Y-42773D01*
X82647Y-42773D01*
X82623Y-42785D01*
X82611Y-42797D01*
X82599Y-42820D01*
X82599Y-42880D01*
X82611Y-42904D01*
X82623Y-42916D01*
X82647Y-42928D01*
X82718Y-42928D01*
X82742Y-42916D01*
X82754Y-42904D01*
X82504Y-42701D02*
X82492Y-42689D01*
X82468Y-42678D01*
X82409Y-42678D01*
X82385Y-42689D01*
X82373Y-42701D01*
X82361Y-42725D01*
X82361Y-42749D01*
X82373Y-42785D01*
X82516Y-42928D01*
X82361Y-42928D01*
X82837Y-45585D02*
X82921Y-45466D01*
X82980Y-45585D02*
X82980Y-45335D01*
X82885Y-45335D01*
X82861Y-45347D01*
X82849Y-45359D01*
X82837Y-45383D01*
X82837Y-45418D01*
X82849Y-45442D01*
X82861Y-45454D01*
X82885Y-45466D01*
X82980Y-45466D01*
X82754Y-45335D02*
X82599Y-45335D01*
X82683Y-45430D01*
X82647Y-45430D01*
X82623Y-45442D01*
X82611Y-45454D01*
X82599Y-45478D01*
X82599Y-45537D01*
X82611Y-45561D01*
X82623Y-45573D01*
X82647Y-45585D01*
X82718Y-45585D01*
X82742Y-45573D01*
X82754Y-45561D01*
X82516Y-45335D02*
X82361Y-45335D01*
X82445Y-45430D01*
X82409Y-45430D01*
X82385Y-45442D01*
X82373Y-45454D01*
X82361Y-45478D01*
X82361Y-45537D01*
X82373Y-45561D01*
X82385Y-45573D01*
X82409Y-45585D01*
X82480Y-45585D01*
X82504Y-45573D01*
X82516Y-45561D01*
X79946Y-38256D02*
X79887Y-38506D01*
X79839Y-38328D01*
X79791Y-38506D01*
X79732Y-38256D01*
X79529Y-38340D02*
X79529Y-38506D01*
X79589Y-38244D02*
X79649Y-38423D01*
X79494Y-38423D01*
X78962Y-38256D02*
X78902Y-38506D01*
X78855Y-38328D01*
X78807Y-38506D01*
X78748Y-38256D01*
X78533Y-38256D02*
X78652Y-38256D01*
X78664Y-38375D01*
X78652Y-38363D01*
X78629Y-38352D01*
X78569Y-38352D01*
X78545Y-38363D01*
X78533Y-38375D01*
X78521Y-38399D01*
X78521Y-38459D01*
X78533Y-38482D01*
X78545Y-38494D01*
X78569Y-38506D01*
X78629Y-38506D01*
X78652Y-38494D01*
X78664Y-38482D01*
X77978Y-38256D02*
X77918Y-38506D01*
X77871Y-38328D01*
X77823Y-38506D01*
X77763Y-38256D01*
X77561Y-38256D02*
X77609Y-38256D01*
X77632Y-38268D01*
X77644Y-38280D01*
X77668Y-38316D01*
X77680Y-38363D01*
X77680Y-38459D01*
X77668Y-38482D01*
X77656Y-38494D01*
X77632Y-38506D01*
X77585Y-38506D01*
X77561Y-38494D01*
X77549Y-38482D01*
X77537Y-38459D01*
X77537Y-38399D01*
X77549Y-38375D01*
X77561Y-38363D01*
X77585Y-38352D01*
X77632Y-38352D01*
X77656Y-38363D01*
X77668Y-38375D01*
X77680Y-38399D01*
X81654Y-31580D02*
X81856Y-31580D01*
X81880Y-31592D01*
X81892Y-31604D01*
X81904Y-31627D01*
X81904Y-31675D01*
X81892Y-31699D01*
X81880Y-31711D01*
X81856Y-31723D01*
X81654Y-31723D01*
X81904Y-31973D02*
X81904Y-31830D01*
X81904Y-31901D02*
X81654Y-31901D01*
X81690Y-31877D01*
X81713Y-31854D01*
X81725Y-31830D01*
X81654Y-32199D02*
X81654Y-32080D01*
X81773Y-32068D01*
X81761Y-32080D01*
X81749Y-32104D01*
X81749Y-32163D01*
X81761Y-32187D01*
X81773Y-32199D01*
X81797Y-32211D01*
X81856Y-32211D01*
X81880Y-32199D01*
X81892Y-32187D01*
X81904Y-32163D01*
X81904Y-32104D01*
X81892Y-32080D01*
X81880Y-32068D01*
M02*
