G04 (created by PCBNEW (2013-mar-13)-testing) date Fri 19 Jul 2013 02:37:30 PM PDT*
%MOIN*%
G04 Gerber Fmt 3.4, Leading zero omitted, Abs format*
%FSLAX34Y34*%
G01*
G70*
G90*
G04 APERTURE LIST*
%ADD10C,0.005906*%
%ADD11C,0.015000*%
%ADD12R,0.027000X0.047000*%
%ADD13R,0.047000X0.027000*%
%ADD14R,0.037400X0.120100*%
%ADD15R,0.033400X0.033400*%
%ADD16R,0.029600X0.013800*%
%ADD17R,0.033500X0.056300*%
%ADD18R,0.017701X0.009902*%
%ADD19R,0.009902X0.017701*%
%ADD20R,0.041370X0.041370*%
%ADD21R,0.102362X0.102362*%
%ADD22R,0.045300X0.025600*%
%ADD23R,0.027591X0.017748*%
%ADD24R,0.088614X0.129953*%
%ADD25R,0.033500X0.021700*%
%ADD26R,0.021700X0.033500*%
%ADD27R,0.017700X0.013800*%
%ADD28R,0.013800X0.017700*%
%ADD29R,0.041400X0.080700*%
%ADD30R,0.027197X0.013024*%
%ADD31R,0.013024X0.027197*%
%ADD32R,0.127984X0.127984*%
%ADD33R,0.025600X0.025600*%
%ADD34R,0.025600X0.017700*%
%ADD35O,0.025622X0.014992*%
%ADD36O,0.014992X0.025622*%
%ADD37R,0.297276X0.297276*%
%ADD38R,0.057118X0.029559*%
%ADD39R,0.049200X0.015700*%
%ADD40C,0.082000*%
%ADD41R,0.082000X0.082000*%
%ADD42C,0.061055*%
%ADD43R,0.061055X0.061055*%
%ADD44R,0.052000X0.052000*%
%ADD45C,0.202000*%
%ADD46R,0.019717X0.056331*%
%ADD47R,0.059087X0.084677*%
%ADD48R,0.096488X0.076803*%
%ADD49R,0.047276X0.076803*%
%ADD50R,0.112236X0.041370*%
%ADD51R,0.057118X0.088614*%
%ADD52R,0.057118X0.096488*%
G04 APERTURE END LIST*
G54D10*
G54D11*
X87401Y-31102D02*
X87401Y-52362D01*
X66929Y-31102D02*
X87401Y-31102D01*
X66929Y-52362D02*
X66929Y-31102D01*
X87401Y-52362D02*
X66929Y-52362D01*
G54D12*
X80211Y-44389D03*
X80811Y-44389D03*
G54D13*
X79625Y-36323D03*
X79625Y-35723D03*
X75196Y-32278D03*
X75196Y-32878D03*
G54D12*
X82189Y-44389D03*
X81589Y-44389D03*
X82189Y-43405D03*
X81589Y-43405D03*
G54D13*
X76181Y-43213D03*
X76181Y-42613D03*
X73425Y-43597D03*
X73425Y-44197D03*
G54D12*
X80319Y-34251D03*
X79719Y-34251D03*
G54D13*
X78740Y-31786D03*
X78740Y-32386D03*
X80314Y-31786D03*
X80314Y-32386D03*
X75787Y-49896D03*
X75787Y-50496D03*
G54D12*
X80221Y-38582D03*
X79621Y-38582D03*
X80713Y-37598D03*
X80113Y-37598D03*
X76677Y-38681D03*
X76077Y-38681D03*
G54D13*
X73326Y-37603D03*
X73326Y-37003D03*
G54D12*
X80319Y-33267D03*
X79719Y-33267D03*
G54D13*
X74803Y-49896D03*
X74803Y-50496D03*
G54D12*
X71845Y-45472D03*
X72445Y-45472D03*
G54D14*
X74429Y-41633D03*
X75177Y-41633D03*
X74429Y-43208D03*
X75177Y-43208D03*
G54D15*
X75787Y-51869D03*
X75787Y-51279D03*
X77952Y-32381D03*
X77952Y-31791D03*
X79527Y-32381D03*
X79527Y-31791D03*
X75000Y-51869D03*
X75000Y-51279D03*
G54D16*
X74610Y-37598D03*
X74610Y-37401D03*
X74610Y-37205D03*
X74610Y-37008D03*
X75390Y-37008D03*
X75390Y-37205D03*
X75390Y-37401D03*
X75390Y-37598D03*
G54D17*
X75000Y-37303D03*
G54D18*
X71948Y-41752D03*
X71948Y-41909D03*
X71948Y-42067D03*
X71948Y-42224D03*
X71948Y-42382D03*
X71948Y-42539D03*
X71948Y-42696D03*
G54D19*
X72164Y-42913D03*
X72322Y-42913D03*
X72479Y-42913D03*
X72637Y-42913D03*
X72794Y-42913D03*
X72952Y-42913D03*
X73109Y-42913D03*
G54D18*
X73326Y-41752D03*
X73326Y-41909D03*
X73326Y-42067D03*
X73326Y-42224D03*
X73326Y-42382D03*
X73326Y-42539D03*
X73326Y-42697D03*
G54D19*
X72164Y-41535D03*
X72322Y-41535D03*
X72479Y-41535D03*
X72637Y-41535D03*
X72794Y-41535D03*
X72951Y-41535D03*
X73109Y-41535D03*
G54D20*
X72322Y-41909D03*
X72952Y-41909D03*
G54D21*
X72637Y-42224D03*
G54D20*
X72322Y-42539D03*
X72952Y-42539D03*
G54D22*
X76082Y-31889D03*
X76082Y-32381D03*
X76082Y-32873D03*
X76082Y-33365D03*
X76948Y-31889D03*
X76948Y-32381D03*
X76948Y-32873D03*
X76948Y-33365D03*
G54D23*
X75364Y-38405D03*
X75364Y-38720D03*
X75364Y-39035D03*
X75364Y-39350D03*
X74045Y-39350D03*
X74045Y-39035D03*
X74045Y-38720D03*
X74045Y-38405D03*
G54D24*
X74704Y-38877D03*
G54D25*
X82696Y-37205D03*
X82696Y-37520D03*
X82696Y-37835D03*
X82696Y-38149D03*
X82696Y-38464D03*
X82696Y-38779D03*
X81870Y-37205D03*
X81870Y-37520D03*
X81870Y-37835D03*
X81870Y-38149D03*
X81870Y-38464D03*
X81870Y-38779D03*
G54D26*
X82283Y-37205D03*
X82283Y-38779D03*
G54D27*
X81249Y-34439D03*
X81249Y-33671D03*
X81249Y-33927D03*
X81249Y-34183D03*
X82529Y-34439D03*
X82529Y-34183D03*
X82529Y-33927D03*
X82529Y-33671D03*
G54D28*
X81761Y-33415D03*
X81505Y-33415D03*
X82017Y-33415D03*
X82273Y-33415D03*
X81505Y-34695D03*
X81761Y-34695D03*
X82017Y-34695D03*
X82273Y-34695D03*
G54D29*
X82283Y-45472D03*
X81692Y-45472D03*
X81102Y-45472D03*
X80511Y-45472D03*
X79921Y-45472D03*
X79330Y-45472D03*
X78740Y-45472D03*
X78149Y-45472D03*
X77559Y-45472D03*
X77559Y-51771D03*
X78149Y-51771D03*
X78740Y-51771D03*
X79330Y-51771D03*
X79921Y-51771D03*
X80511Y-51771D03*
X81102Y-51771D03*
X81692Y-51771D03*
X82283Y-51771D03*
X76968Y-45472D03*
X76968Y-51771D03*
G54D30*
X73393Y-47244D03*
X73393Y-47440D03*
X73393Y-47637D03*
X73393Y-47834D03*
X73393Y-48031D03*
X73393Y-48228D03*
X73393Y-48425D03*
X73393Y-48622D03*
G54D31*
X73622Y-48850D03*
X73818Y-48850D03*
X74015Y-48850D03*
X74212Y-48850D03*
X74409Y-48850D03*
X74606Y-48850D03*
X74803Y-48850D03*
X75000Y-48850D03*
G54D30*
X75228Y-48622D03*
X75228Y-48425D03*
X75228Y-48228D03*
X75228Y-48031D03*
X75228Y-47834D03*
X75228Y-47637D03*
X75228Y-47440D03*
X75228Y-47244D03*
G54D31*
X75000Y-47015D03*
X74803Y-47015D03*
X74606Y-47015D03*
X74409Y-47015D03*
X74212Y-47015D03*
X74015Y-47015D03*
X73818Y-47015D03*
X73622Y-47015D03*
G54D32*
X74311Y-47933D03*
G54D33*
X73563Y-45177D03*
X73563Y-45767D03*
X74271Y-45767D03*
X74271Y-45177D03*
G54D34*
X73563Y-45472D03*
X74271Y-45472D03*
G54D35*
X77145Y-39960D03*
X77145Y-40472D03*
X77145Y-40728D03*
X77145Y-40984D03*
X77145Y-41240D03*
X77145Y-41496D03*
X77145Y-41751D03*
X77145Y-42007D03*
X77145Y-42263D03*
X77145Y-42519D03*
G54D36*
X77559Y-42933D03*
X77814Y-42933D03*
X78070Y-42933D03*
X78326Y-42933D03*
X78582Y-42933D03*
X78838Y-42933D03*
X79094Y-42933D03*
X79350Y-42933D03*
X79606Y-42933D03*
X79862Y-42933D03*
X80118Y-42933D03*
G54D35*
X80531Y-42519D03*
X80531Y-42263D03*
X80531Y-42007D03*
X80531Y-41751D03*
X80531Y-41496D03*
X80531Y-41240D03*
X80531Y-40984D03*
X80531Y-40728D03*
X80531Y-40472D03*
X80531Y-40216D03*
X80531Y-39960D03*
G54D36*
X80118Y-39547D03*
X79862Y-39547D03*
X79606Y-39547D03*
X79350Y-39547D03*
X79094Y-39547D03*
X78838Y-39547D03*
X78582Y-39547D03*
X78326Y-39547D03*
X78070Y-39547D03*
X77814Y-39547D03*
X77559Y-39547D03*
G54D37*
X78838Y-41240D03*
G54D35*
X77145Y-40216D03*
G54D38*
X72933Y-38484D03*
X72933Y-39074D03*
G54D15*
X82775Y-32381D03*
X82775Y-31791D03*
X81102Y-32381D03*
X81102Y-31791D03*
G54D12*
X82780Y-35531D03*
X82180Y-35531D03*
X80802Y-35531D03*
X81402Y-35531D03*
G54D13*
X81889Y-32386D03*
X81889Y-31786D03*
G54D39*
X76900Y-37117D03*
X76900Y-37373D03*
X76900Y-37627D03*
X76900Y-37883D03*
X79202Y-37883D03*
X79202Y-37627D03*
X79202Y-37373D03*
X79202Y-37117D03*
G54D40*
X71789Y-40354D03*
G54D41*
X73289Y-40354D03*
G54D13*
X75196Y-34059D03*
X75196Y-33459D03*
G54D12*
X72150Y-37106D03*
X71550Y-37106D03*
G54D42*
X76574Y-44291D03*
X77256Y-43897D03*
G54D10*
G36*
X75781Y-45102D02*
X75475Y-44573D01*
X76004Y-44268D01*
X76309Y-44796D01*
X75781Y-45102D01*
X75781Y-45102D01*
G37*
G54D43*
X71653Y-38976D03*
G54D42*
X71653Y-38188D03*
G54D43*
X78149Y-33267D03*
G54D42*
X78937Y-33267D03*
G54D44*
X81299Y-36318D03*
X82283Y-36318D03*
G54D45*
X68502Y-33070D03*
X68502Y-50393D03*
X85825Y-50393D03*
X85825Y-33070D03*
G54D46*
X72421Y-50763D03*
X72677Y-50763D03*
X72933Y-50763D03*
X73188Y-50763D03*
X73444Y-50763D03*
G54D47*
X71958Y-50905D03*
X73907Y-50905D03*
G54D48*
X71791Y-51811D03*
X74074Y-51811D03*
G54D49*
X72608Y-51811D03*
X73257Y-51811D03*
G54D50*
X78307Y-36220D03*
X76023Y-36220D03*
X78307Y-34645D03*
X76023Y-34645D03*
G54D51*
X81488Y-40000D03*
X82488Y-40000D03*
X82488Y-42480D03*
G54D52*
X81488Y-42440D03*
M02*
