M48
INCH,LZ
T1C0.014
T2C0.039
T3C0.055
T4C0.125
%
G90
G05
T1
X071109Y-051752
X071225Y-044269
X071467Y-050777
X071712Y-037558
X072146Y-043799
X072323Y-041909
X072323Y-042539
X072444Y-048269
X072521Y-04453
X072638Y-042224
X072835Y-049055
X072894Y-036915
X072953Y-041909
X072953Y-042539
X072961Y-050001
X07305Y-047516
X073072Y-045024
X073152Y-041008
X073241Y-045754
X07334Y-044524
X073437Y-043266
X073506Y-041144
X073579Y-039006
X073715Y-039406
X073872Y-046684
X073949Y-045829
X074008Y-037358
X074016Y-042224
X074072Y-040298
X074238Y-049601
X07425Y-046348
X074257Y-036915
X074395Y-050884
X074597Y-045026
X074717Y-049569
X075261Y-049312
X075532Y-042513
X075559Y-041969
X075562Y-048255
X075626Y-034011
X07563Y-032858
X075656Y-039629
X075659Y-032084
X075784Y-037438
X075876Y-039374
X076178Y-048271
X076204Y-040817
X07629Y-039106
X076378Y-047012
X07642Y-040268
X076463Y-03768
X076485Y-050532
X076569Y-045353
X076572Y-041329
X076607Y-043118
X076665Y-039114
X076757Y-038255
X07681Y-041559
X076922Y-039629
X077229Y-039214
X077538Y-034231
X077559Y-03869
X077559Y-051102
X077864Y-038275
X077922Y-046143
X078237Y-038058
X078312Y-044876
X078327Y-039064
X078659Y-039069
X078681Y-038292
X07874Y-032712
X078756Y-043322
X079052Y-039011
X079094Y-043256
X079168Y-03229
X07921Y-03838
X07949Y-044387
X079619Y-044042
X079728Y-035391
X079921Y-032056
X079937Y-04331
X080236Y-046372
X080391Y-043455
X080556Y-043951
X080675Y-033315
X080754Y-031541
X080785Y-037159
X080802Y-035104
X08085Y-042016
X080852Y-040728
X080857Y-041479
X081178Y-044488
X081237Y-046366
X081242Y-043134
X081424Y-037918
X081565Y-03697
X081608Y-039064
X081692Y-051172
X081954Y-033922
X081961Y-032814
X082045Y-043898
X082151Y-03684
X08263Y-035077
X082753Y-03274
X08278Y-039305
X082881Y-033813
X082884Y-036462
X083021Y-036972
X083054Y-038288
X083118Y-047618
X08315Y-05
X08315Y-051693
X083207Y-03184
X083208Y-045002
T2
X071654Y-038189
X071654Y-038976
X075893Y-044685
X076575Y-044291
X077257Y-043898
X07815Y-033268
X078937Y-033268
T3
X071789Y-040354
X073289Y-040354
T4
X068503Y-033071
X068503Y-050394
X085826Y-033071
X085826Y-050394
T0
M30
