G04 (created by PCBNEW (2013-mar-13)-testing) date Fri 19 Jul 2013 02:37:30 PM PDT*
%MOIN*%
G04 Gerber Fmt 3.4, Leading zero omitted, Abs format*
%FSLAX34Y34*%
G01*
G70*
G90*
G04 APERTURE LIST*
%ADD10C,0.005906*%
%ADD11C,0.015000*%
%ADD12R,0.045000X0.025000*%
%ADD13R,0.025000X0.045000*%
%ADD14R,0.027600X0.047200*%
%ADD15R,0.039400X0.047200*%
%ADD16R,0.039400X0.031500*%
%ADD17R,0.039400X0.110200*%
%ADD18R,0.051200X0.074800*%
%ADD19R,0.029500X0.013800*%
%ADD20R,0.030000X0.030000*%
%ADD21R,0.031400X0.051000*%
%ADD22R,0.051000X0.031400*%
G04 APERTURE END LIST*
G54D10*
G54D11*
X87401Y-31102D02*
X87401Y-52362D01*
X66929Y-31102D02*
X87401Y-31102D01*
X66929Y-52362D02*
X66929Y-31102D01*
X87401Y-52362D02*
X66929Y-52362D01*
G54D12*
X76377Y-49601D03*
X76377Y-50201D03*
G54D13*
X72534Y-39173D03*
X73134Y-39173D03*
G54D12*
X82775Y-37298D03*
X82775Y-37898D03*
X75787Y-41638D03*
X75787Y-41038D03*
X75984Y-46166D03*
X75984Y-45566D03*
G54D13*
X75201Y-42421D03*
X74601Y-42421D03*
X82278Y-33267D03*
X82878Y-33267D03*
X82180Y-38877D03*
X82780Y-38877D03*
G54D12*
X71653Y-43597D03*
X71653Y-44197D03*
X74015Y-47937D03*
X74015Y-47337D03*
X72637Y-43597D03*
X72637Y-44197D03*
X81791Y-37593D03*
X81791Y-38193D03*
X80807Y-37593D03*
X80807Y-38193D03*
X82775Y-34748D03*
X82775Y-34148D03*
X82775Y-35526D03*
X82775Y-36126D03*
X80314Y-44985D03*
X80314Y-44385D03*
X77263Y-41737D03*
X77263Y-41137D03*
G54D13*
X79237Y-42814D03*
X78637Y-42814D03*
G54D12*
X80413Y-40743D03*
X80413Y-41343D03*
G54D13*
X78440Y-39665D03*
X79040Y-39665D03*
G54D12*
X72342Y-47937D03*
X72342Y-47337D03*
X75098Y-46166D03*
X75098Y-45566D03*
X76377Y-47937D03*
X76377Y-47337D03*
X75000Y-47337D03*
X75000Y-47937D03*
X74803Y-41638D03*
X74803Y-41038D03*
G54D13*
X75004Y-40157D03*
X74404Y-40157D03*
G54D12*
X72637Y-45575D03*
X72637Y-44975D03*
G54D13*
X73912Y-37893D03*
X74512Y-37893D03*
X75890Y-37893D03*
X75290Y-37893D03*
X75290Y-38877D03*
X75890Y-38877D03*
X73134Y-37893D03*
X72534Y-37893D03*
X73912Y-38877D03*
X74512Y-38877D03*
X81894Y-44980D03*
X81294Y-44980D03*
X81697Y-43996D03*
X81097Y-43996D03*
X80614Y-42814D03*
X80014Y-42814D03*
X78735Y-44980D03*
X79335Y-44980D03*
G54D12*
X74212Y-43902D03*
X74212Y-43302D03*
X75196Y-43302D03*
X75196Y-43902D03*
G54D14*
X78937Y-45826D03*
X79370Y-45826D03*
X79803Y-45826D03*
X80236Y-45826D03*
X80669Y-45826D03*
X81102Y-45826D03*
X81535Y-45826D03*
X81968Y-45826D03*
X82402Y-45826D03*
G54D15*
X78327Y-45826D03*
X82717Y-47519D03*
G54D16*
X82717Y-49960D03*
G54D17*
X82717Y-51593D03*
G54D18*
X77402Y-51771D03*
G54D19*
X77726Y-52076D03*
G54D10*
G36*
X77712Y-52007D02*
X77657Y-52063D01*
X77601Y-52007D01*
X77657Y-51952D01*
X77712Y-52007D01*
X77712Y-52007D01*
G37*
G54D20*
X75098Y-49662D03*
X75473Y-48762D03*
X74723Y-48762D03*
G54D12*
X82775Y-31786D03*
X82775Y-32386D03*
G54D13*
X77957Y-44980D03*
X77357Y-44980D03*
G54D12*
X82775Y-43203D03*
X82775Y-43803D03*
X82775Y-44483D03*
X82775Y-45083D03*
G54D21*
X79920Y-31594D03*
X80391Y-31594D03*
X79446Y-31594D03*
X78975Y-31594D03*
X77086Y-31594D03*
X77558Y-31594D03*
X78503Y-31594D03*
X78031Y-31594D03*
X76141Y-31594D03*
X76613Y-31594D03*
X75668Y-31594D03*
X75196Y-31594D03*
X80393Y-36790D03*
X79920Y-36791D03*
X79448Y-36791D03*
X78976Y-36791D03*
X78503Y-36791D03*
X78031Y-36791D03*
X77558Y-36791D03*
X77086Y-36791D03*
X76613Y-36791D03*
X76141Y-36791D03*
X75668Y-36791D03*
X75196Y-36791D03*
G54D22*
X81495Y-32578D03*
X81495Y-32971D03*
X81495Y-33483D03*
X81495Y-33956D03*
X81495Y-34428D03*
X81495Y-34901D03*
X81495Y-35451D03*
X81495Y-35844D03*
M02*
