G04 (created by PCBNEW (2013-mar-13)-testing) date Fri 19 Jul 2013 02:37:30 PM PDT*
%MOIN*%
G04 Gerber Fmt 3.4, Leading zero omitted, Abs format*
%FSLAX34Y34*%
G01*
G70*
G90*
G04 APERTURE LIST*
%ADD10C,0.005906*%
%ADD11C,0.015000*%
%ADD12R,0.025000X0.045000*%
%ADD13R,0.045000X0.025000*%
%ADD14R,0.035400X0.118100*%
%ADD15R,0.031400X0.031400*%
%ADD16R,0.027600X0.011800*%
%ADD17R,0.031500X0.054300*%
%ADD18R,0.015701X0.007902*%
%ADD19R,0.007902X0.015701*%
%ADD20R,0.039370X0.039370*%
%ADD21R,0.043300X0.023600*%
%ADD22R,0.025591X0.015748*%
%ADD23R,0.086614X0.127953*%
%ADD24R,0.031500X0.019700*%
%ADD25R,0.019700X0.031500*%
%ADD26R,0.015700X0.011800*%
%ADD27R,0.011800X0.015700*%
%ADD28R,0.039400X0.078700*%
%ADD29R,0.025197X0.011024*%
%ADD30R,0.011024X0.025197*%
%ADD31R,0.125984X0.125984*%
%ADD32R,0.023600X0.023600*%
%ADD33R,0.023600X0.015700*%
%ADD34O,0.023622X0.012992*%
%ADD35O,0.012992X0.023622*%
%ADD36R,0.295276X0.295276*%
%ADD37R,0.055118X0.027559*%
%ADD38R,0.047200X0.013700*%
%ADD39C,0.080000*%
%ADD40R,0.080000X0.080000*%
%ADD41C,0.059055*%
%ADD42R,0.059055X0.059055*%
%ADD43R,0.050000X0.050000*%
%ADD44C,0.200000*%
%ADD45R,0.017717X0.054331*%
%ADD46R,0.057087X0.082677*%
%ADD47R,0.094488X0.074803*%
%ADD48R,0.045276X0.074803*%
%ADD49R,0.110236X0.039370*%
%ADD50R,0.055118X0.086614*%
%ADD51R,0.055118X0.094488*%
%ADD52C,0.026000*%
%ADD53C,0.007000*%
%ADD54C,0.024000*%
%ADD55C,0.009000*%
G04 APERTURE END LIST*
G54D10*
G54D11*
X87401Y-31102D02*
X87401Y-52362D01*
X66929Y-31102D02*
X87401Y-31102D01*
X66929Y-52362D02*
X66929Y-31102D01*
X87401Y-52362D02*
X66929Y-52362D01*
G54D12*
X80211Y-44389D03*
X80811Y-44389D03*
G54D13*
X79625Y-36323D03*
X79625Y-35723D03*
X75196Y-32278D03*
X75196Y-32878D03*
G54D12*
X82189Y-44389D03*
X81589Y-44389D03*
X82189Y-43405D03*
X81589Y-43405D03*
G54D13*
X76181Y-43213D03*
X76181Y-42613D03*
X73425Y-43597D03*
X73425Y-44197D03*
G54D12*
X80319Y-34251D03*
X79719Y-34251D03*
G54D13*
X78740Y-31786D03*
X78740Y-32386D03*
X80314Y-31786D03*
X80314Y-32386D03*
X75787Y-49896D03*
X75787Y-50496D03*
G54D12*
X80221Y-38582D03*
X79621Y-38582D03*
X80713Y-37598D03*
X80113Y-37598D03*
X76677Y-38681D03*
X76077Y-38681D03*
G54D13*
X73326Y-37603D03*
X73326Y-37003D03*
G54D12*
X80319Y-33267D03*
X79719Y-33267D03*
G54D13*
X74803Y-49896D03*
X74803Y-50496D03*
G54D12*
X71845Y-45472D03*
X72445Y-45472D03*
G54D14*
X74429Y-41633D03*
X75177Y-41633D03*
X74429Y-43208D03*
X75177Y-43208D03*
G54D15*
X75787Y-51869D03*
X75787Y-51279D03*
X77952Y-32381D03*
X77952Y-31791D03*
X79527Y-32381D03*
X79527Y-31791D03*
X75000Y-51869D03*
X75000Y-51279D03*
G54D16*
X74610Y-37598D03*
X74610Y-37401D03*
X74610Y-37205D03*
X74610Y-37008D03*
X75390Y-37008D03*
X75390Y-37205D03*
X75390Y-37401D03*
X75390Y-37598D03*
G54D17*
X75000Y-37303D03*
G54D18*
X71948Y-41752D03*
X71948Y-41909D03*
X71948Y-42067D03*
X71948Y-42224D03*
X71948Y-42382D03*
X71948Y-42539D03*
X71948Y-42696D03*
G54D19*
X72164Y-42913D03*
X72322Y-42913D03*
X72479Y-42913D03*
X72637Y-42913D03*
X72794Y-42913D03*
X72952Y-42913D03*
X73109Y-42913D03*
G54D18*
X73326Y-41752D03*
X73326Y-41909D03*
X73326Y-42067D03*
X73326Y-42224D03*
X73326Y-42382D03*
X73326Y-42539D03*
X73326Y-42697D03*
G54D19*
X72164Y-41535D03*
X72322Y-41535D03*
X72479Y-41535D03*
X72637Y-41535D03*
X72794Y-41535D03*
X72951Y-41535D03*
X73109Y-41535D03*
G54D20*
X72322Y-41909D03*
X72952Y-41909D03*
X72637Y-42224D03*
X72322Y-42539D03*
X72952Y-42539D03*
G54D21*
X76082Y-31889D03*
X76082Y-32381D03*
X76082Y-32873D03*
X76082Y-33365D03*
X76948Y-31889D03*
X76948Y-32381D03*
X76948Y-32873D03*
X76948Y-33365D03*
G54D22*
X75364Y-38405D03*
X75364Y-38720D03*
X75364Y-39035D03*
X75364Y-39350D03*
X74045Y-39350D03*
X74045Y-39035D03*
X74045Y-38720D03*
X74045Y-38405D03*
G54D23*
X74704Y-38877D03*
G54D24*
X82696Y-37205D03*
X82696Y-37520D03*
X82696Y-37835D03*
X82696Y-38149D03*
X82696Y-38464D03*
X82696Y-38779D03*
X81870Y-37205D03*
X81870Y-37520D03*
X81870Y-37835D03*
X81870Y-38149D03*
X81870Y-38464D03*
X81870Y-38779D03*
G54D25*
X82283Y-37205D03*
X82283Y-38779D03*
G54D26*
X81249Y-34439D03*
X81249Y-33671D03*
X81249Y-33927D03*
X81249Y-34183D03*
X82529Y-34439D03*
X82529Y-34183D03*
X82529Y-33927D03*
X82529Y-33671D03*
G54D27*
X81761Y-33415D03*
X81505Y-33415D03*
X82017Y-33415D03*
X82273Y-33415D03*
X81505Y-34695D03*
X81761Y-34695D03*
X82017Y-34695D03*
X82273Y-34695D03*
G54D28*
X82283Y-45472D03*
X81692Y-45472D03*
X81102Y-45472D03*
X80511Y-45472D03*
X79921Y-45472D03*
X79330Y-45472D03*
X78740Y-45472D03*
X78149Y-45472D03*
X77559Y-45472D03*
X77559Y-51771D03*
X78149Y-51771D03*
X78740Y-51771D03*
X79330Y-51771D03*
X79921Y-51771D03*
X80511Y-51771D03*
X81102Y-51771D03*
X81692Y-51771D03*
X82283Y-51771D03*
X76968Y-45472D03*
X76968Y-51771D03*
G54D29*
X73393Y-47244D03*
X73393Y-47440D03*
X73393Y-47637D03*
X73393Y-47834D03*
X73393Y-48031D03*
X73393Y-48228D03*
X73393Y-48425D03*
X73393Y-48622D03*
G54D30*
X73622Y-48850D03*
X73818Y-48850D03*
X74015Y-48850D03*
X74212Y-48850D03*
X74409Y-48850D03*
X74606Y-48850D03*
X74803Y-48850D03*
X75000Y-48850D03*
G54D29*
X75228Y-48622D03*
X75228Y-48425D03*
X75228Y-48228D03*
X75228Y-48031D03*
X75228Y-47834D03*
X75228Y-47637D03*
X75228Y-47440D03*
X75228Y-47244D03*
G54D30*
X75000Y-47015D03*
X74803Y-47015D03*
X74606Y-47015D03*
X74409Y-47015D03*
X74212Y-47015D03*
X74015Y-47015D03*
X73818Y-47015D03*
X73622Y-47015D03*
G54D31*
X74311Y-47933D03*
G54D32*
X73563Y-45177D03*
X73563Y-45767D03*
X74271Y-45767D03*
X74271Y-45177D03*
G54D33*
X73563Y-45472D03*
X74271Y-45472D03*
G54D34*
X77145Y-39960D03*
X77145Y-40472D03*
X77145Y-40728D03*
X77145Y-40984D03*
X77145Y-41240D03*
X77145Y-41496D03*
X77145Y-41751D03*
X77145Y-42007D03*
X77145Y-42263D03*
X77145Y-42519D03*
G54D35*
X77559Y-42933D03*
X77814Y-42933D03*
X78070Y-42933D03*
X78326Y-42933D03*
X78582Y-42933D03*
X78838Y-42933D03*
X79094Y-42933D03*
X79350Y-42933D03*
X79606Y-42933D03*
X79862Y-42933D03*
X80118Y-42933D03*
G54D34*
X80531Y-42519D03*
X80531Y-42263D03*
X80531Y-42007D03*
X80531Y-41751D03*
X80531Y-41496D03*
X80531Y-41240D03*
X80531Y-40984D03*
X80531Y-40728D03*
X80531Y-40472D03*
X80531Y-40216D03*
X80531Y-39960D03*
G54D35*
X80118Y-39547D03*
X79862Y-39547D03*
X79606Y-39547D03*
X79350Y-39547D03*
X79094Y-39547D03*
X78838Y-39547D03*
X78582Y-39547D03*
X78326Y-39547D03*
X78070Y-39547D03*
X77814Y-39547D03*
X77559Y-39547D03*
G54D36*
X78838Y-41240D03*
G54D34*
X77145Y-40216D03*
G54D37*
X72933Y-38484D03*
X72933Y-39074D03*
G54D15*
X82775Y-32381D03*
X82775Y-31791D03*
X81102Y-32381D03*
X81102Y-31791D03*
G54D12*
X82780Y-35531D03*
X82180Y-35531D03*
X80802Y-35531D03*
X81402Y-35531D03*
G54D13*
X81889Y-32386D03*
X81889Y-31786D03*
G54D38*
X76900Y-37117D03*
X76900Y-37373D03*
X76900Y-37627D03*
X76900Y-37883D03*
X79202Y-37883D03*
X79202Y-37627D03*
X79202Y-37373D03*
X79202Y-37117D03*
G54D39*
X71789Y-40354D03*
G54D40*
X73289Y-40354D03*
G54D13*
X75196Y-34059D03*
X75196Y-33459D03*
G54D12*
X72150Y-37106D03*
X71550Y-37106D03*
G54D41*
X76574Y-44291D03*
X77256Y-43897D03*
G54D10*
G36*
X75784Y-45088D02*
X75489Y-44576D01*
X76000Y-44281D01*
X76296Y-44793D01*
X75784Y-45088D01*
X75784Y-45088D01*
G37*
G54D42*
X71653Y-38976D03*
G54D41*
X71653Y-38188D03*
G54D42*
X78149Y-33267D03*
G54D41*
X78937Y-33267D03*
G54D43*
X81299Y-36318D03*
X82283Y-36318D03*
G54D44*
X68502Y-33070D03*
X68502Y-50393D03*
X85825Y-50393D03*
X85825Y-33070D03*
G54D45*
X72421Y-50763D03*
X72677Y-50763D03*
X72933Y-50763D03*
X73188Y-50763D03*
X73444Y-50763D03*
G54D46*
X71958Y-50905D03*
X73907Y-50905D03*
G54D47*
X71791Y-51811D03*
X74074Y-51811D03*
G54D48*
X72608Y-51811D03*
X73257Y-51811D03*
G54D49*
X78307Y-36220D03*
X76023Y-36220D03*
X78307Y-34645D03*
X76023Y-34645D03*
G54D50*
X81488Y-40000D03*
X82488Y-40000D03*
X82488Y-42480D03*
G54D51*
X81488Y-42440D03*
G54D52*
X75561Y-48254D03*
X76177Y-48270D03*
X74249Y-46347D03*
X73579Y-39006D03*
X74008Y-37357D03*
X79489Y-44386D03*
X73151Y-41008D03*
X72834Y-49055D03*
X71466Y-50777D03*
X76462Y-37680D03*
X83149Y-51692D03*
X83117Y-47617D03*
X77921Y-46143D03*
X81692Y-51172D03*
X83208Y-45001D03*
X74071Y-40298D03*
X76377Y-47012D03*
X71712Y-37557D03*
X82881Y-33812D03*
X71225Y-44268D03*
X82780Y-39304D03*
X72520Y-44529D03*
X74256Y-36914D03*
X77559Y-51102D03*
X80754Y-31540D03*
X71108Y-51752D03*
X73340Y-44523D03*
X74394Y-50884D03*
X78740Y-32711D03*
X73714Y-39406D03*
X75261Y-49312D03*
X75630Y-32857D03*
X80856Y-41478D03*
X81960Y-32813D03*
X78755Y-43321D03*
X79727Y-35391D03*
X76484Y-50532D03*
X82884Y-36462D03*
X76289Y-39106D03*
X80556Y-43950D03*
X81236Y-46366D03*
X76204Y-40816D03*
X76568Y-45353D03*
X79210Y-38380D03*
X77538Y-34230D03*
X77229Y-39214D03*
X75875Y-39374D03*
X81565Y-36969D03*
X81424Y-37917D03*
X76922Y-39629D03*
X75656Y-39629D03*
X75783Y-37438D03*
X73436Y-43265D03*
X73871Y-46684D03*
X74015Y-42224D03*
X72145Y-43799D03*
X82753Y-32740D03*
X83021Y-36971D03*
X83054Y-38287D03*
X81607Y-39063D03*
X81953Y-33922D03*
X73948Y-45828D03*
X73049Y-47515D03*
X72961Y-50000D03*
X74237Y-49600D03*
X73505Y-41143D03*
X78326Y-39063D03*
X78237Y-38057D03*
X79619Y-44042D03*
X79937Y-43310D03*
X80391Y-43455D03*
X77863Y-38275D03*
X81177Y-44488D03*
X81241Y-43134D03*
X80850Y-42015D03*
X79167Y-32289D03*
X80675Y-33315D03*
X77559Y-38690D03*
X76665Y-39113D03*
X76420Y-40267D03*
X76809Y-41559D03*
X74717Y-49568D03*
X74596Y-45026D03*
X79052Y-39010D03*
X73240Y-45754D03*
X78680Y-38292D03*
X75558Y-41968D03*
X79920Y-32055D03*
X83149Y-50000D03*
X82630Y-35076D03*
X80802Y-35103D03*
X75626Y-34010D03*
X72894Y-36914D03*
X80236Y-46371D03*
X76571Y-41329D03*
X78312Y-44875D03*
X83206Y-31840D03*
X73071Y-45023D03*
X72443Y-48269D03*
X79094Y-43256D03*
X80784Y-37159D03*
X76757Y-38254D03*
X80852Y-40728D03*
X75658Y-32083D03*
X78659Y-39068D03*
X82150Y-36840D03*
X76606Y-43117D03*
X75532Y-42513D03*
X82045Y-43897D03*
G54D53*
X72421Y-50374D02*
X72244Y-50196D01*
X72421Y-50763D02*
X72421Y-50374D01*
X72637Y-43897D02*
X72637Y-42913D01*
X72637Y-42913D02*
X72637Y-42913D01*
X75787Y-51869D02*
X75787Y-51607D01*
X75000Y-51869D02*
X75262Y-51869D01*
X75524Y-51607D02*
X75787Y-51607D01*
X75262Y-51869D02*
X75524Y-51607D01*
X75228Y-48228D02*
X75535Y-48228D01*
X75535Y-48228D02*
X75561Y-48254D01*
G54D54*
X71456Y-45078D02*
X71456Y-45499D01*
X72637Y-43897D02*
X71456Y-45078D01*
G54D53*
X71588Y-45499D02*
X71615Y-45472D01*
X71456Y-45499D02*
X71588Y-45499D01*
X71845Y-45472D02*
X71615Y-45472D01*
G54D54*
X71456Y-45499D02*
X71456Y-47280D01*
X71456Y-49409D02*
X72244Y-50196D01*
X71456Y-47280D02*
X71456Y-49409D01*
G54D53*
X73126Y-47280D02*
X73162Y-47244D01*
X71456Y-47280D02*
X73126Y-47280D01*
X73393Y-47244D02*
X73162Y-47244D01*
X74271Y-45472D02*
X74494Y-45472D01*
X76177Y-51378D02*
X76177Y-48270D01*
X75948Y-51607D02*
X76177Y-51378D01*
X75787Y-51607D02*
X75948Y-51607D01*
X74494Y-46102D02*
X74249Y-46347D01*
X74494Y-45472D02*
X74494Y-46102D01*
X73393Y-46829D02*
X73393Y-47244D01*
X73875Y-46347D02*
X73393Y-46829D01*
X74249Y-46347D02*
X73875Y-46347D01*
X80211Y-44389D02*
X79981Y-44389D01*
X79489Y-44386D02*
X79978Y-44386D01*
X79978Y-44386D02*
X79981Y-44389D01*
X74610Y-37205D02*
X74610Y-37401D01*
X80511Y-44459D02*
X80441Y-44389D01*
X80511Y-45472D02*
X80511Y-44459D01*
X80211Y-44389D02*
X80441Y-44389D01*
G54D54*
X71161Y-40982D02*
X71789Y-40354D01*
X71161Y-43110D02*
X71161Y-40982D01*
X71555Y-43503D02*
X71161Y-43110D01*
X71948Y-43503D02*
X71555Y-43503D01*
X72145Y-43307D02*
X71948Y-43503D01*
G54D53*
X74045Y-39035D02*
X73812Y-39035D01*
X73782Y-39006D02*
X73579Y-39006D01*
X73812Y-39035D02*
X73782Y-39006D01*
X72434Y-39709D02*
X71789Y-40354D01*
X72876Y-39709D02*
X72434Y-39709D01*
X73579Y-39006D02*
X72876Y-39709D01*
X74610Y-37205D02*
X74366Y-37205D01*
X78307Y-36220D02*
X77248Y-36220D01*
X74366Y-37205D02*
X74214Y-37357D01*
X74214Y-37357D02*
X74008Y-37357D01*
X76018Y-37449D02*
X77248Y-36220D01*
X76018Y-37535D02*
X76018Y-37449D01*
X75786Y-37767D02*
X76018Y-37535D01*
X74420Y-37767D02*
X75786Y-37767D01*
X74214Y-37561D02*
X74420Y-37767D01*
X74214Y-37357D02*
X74214Y-37561D01*
X72322Y-42913D02*
X72322Y-43021D01*
X72322Y-43129D02*
X72145Y-43307D01*
X72322Y-43021D02*
X72322Y-43129D01*
X72322Y-43021D02*
X72322Y-42913D01*
X72322Y-43021D02*
X72322Y-43021D01*
X80113Y-37598D02*
X79883Y-37598D01*
X79862Y-37634D02*
X79854Y-37627D01*
X79862Y-39547D02*
X79862Y-37634D01*
X79202Y-37627D02*
X79854Y-37627D01*
X79854Y-37627D02*
X79883Y-37598D01*
X79543Y-38174D02*
X79621Y-38252D01*
X79543Y-37882D02*
X79543Y-38174D01*
X79202Y-37882D02*
X79543Y-37882D01*
X79621Y-38582D02*
X79621Y-38252D01*
X79606Y-38927D02*
X79621Y-38912D01*
X79606Y-39547D02*
X79606Y-38927D01*
X79621Y-38582D02*
X79621Y-38912D01*
X72808Y-41351D02*
X73151Y-41008D01*
X72794Y-41351D02*
X72808Y-41351D01*
X72794Y-41535D02*
X72794Y-41351D01*
X73393Y-47834D02*
X73110Y-47834D01*
X72834Y-48110D02*
X72834Y-49055D01*
X73110Y-47834D02*
X72834Y-48110D01*
X71958Y-50905D02*
X71568Y-50905D01*
X71568Y-50878D02*
X71568Y-50905D01*
X71466Y-50777D02*
X71568Y-50878D01*
X78838Y-42933D02*
X78838Y-41240D01*
X78838Y-39547D02*
X78838Y-41240D01*
X81692Y-51172D02*
X81692Y-51771D01*
X78093Y-45971D02*
X78149Y-45971D01*
X77921Y-46143D02*
X78093Y-45971D01*
X78149Y-45472D02*
X78149Y-45971D01*
X81761Y-33415D02*
X81505Y-33415D01*
X82529Y-33506D02*
X82437Y-33415D01*
X82529Y-33671D02*
X82529Y-33506D01*
X82273Y-33415D02*
X82437Y-33415D01*
X81249Y-33506D02*
X81341Y-33415D01*
X81249Y-33671D02*
X81249Y-33506D01*
X81505Y-33415D02*
X81341Y-33415D01*
X74278Y-39304D02*
X74704Y-38877D01*
X74278Y-39350D02*
X74278Y-39304D01*
X74045Y-39350D02*
X74278Y-39350D01*
X73143Y-42539D02*
X73143Y-42539D01*
X72952Y-42539D02*
X73143Y-42539D01*
X73326Y-42539D02*
X73143Y-42539D01*
X73326Y-41909D02*
X73143Y-41909D01*
X74610Y-37008D02*
X74853Y-37008D01*
X74610Y-37598D02*
X74853Y-37598D01*
X74998Y-37303D02*
X75000Y-37303D01*
X74853Y-37158D02*
X74998Y-37303D01*
X74853Y-37008D02*
X74853Y-37158D01*
X71550Y-37106D02*
X71550Y-37436D01*
X71590Y-37436D02*
X71550Y-37436D01*
X71712Y-37557D02*
X71590Y-37436D01*
X81589Y-44389D02*
X81589Y-43405D01*
X73047Y-41814D02*
X73143Y-41909D01*
X72952Y-41909D02*
X73047Y-41814D01*
X73109Y-41752D02*
X73109Y-41535D01*
X73047Y-41814D02*
X73109Y-41752D01*
X71948Y-41909D02*
X72040Y-41909D01*
X72040Y-41909D02*
X72040Y-42067D01*
X72132Y-42539D02*
X72132Y-42696D01*
X71948Y-42696D02*
X72132Y-42696D01*
X72040Y-42382D02*
X72040Y-42539D01*
X71948Y-42539D02*
X72040Y-42539D01*
X72040Y-42539D02*
X72132Y-42539D01*
X71994Y-42067D02*
X71994Y-42224D01*
X71948Y-42067D02*
X71994Y-42067D01*
X71994Y-42067D02*
X72040Y-42067D01*
X71971Y-42224D02*
X71971Y-42382D01*
X71948Y-42382D02*
X71971Y-42382D01*
X71971Y-42382D02*
X72040Y-42382D01*
X71948Y-42224D02*
X71971Y-42224D01*
X71971Y-42224D02*
X71994Y-42224D01*
X72132Y-42539D02*
X72132Y-42539D01*
X72322Y-42539D02*
X72132Y-42539D01*
X72322Y-41909D02*
X72322Y-41645D01*
X72322Y-41645D02*
X72322Y-41645D01*
X72322Y-41535D02*
X72322Y-41645D01*
X72396Y-41719D02*
X72479Y-41719D01*
X72322Y-41645D02*
X72396Y-41719D01*
X72479Y-41535D02*
X72479Y-41673D01*
X72637Y-41535D02*
X72637Y-41719D01*
X72479Y-41673D02*
X72479Y-41719D01*
X72525Y-41719D02*
X72637Y-41719D01*
X72479Y-41673D02*
X72525Y-41719D01*
X74610Y-37008D02*
X74366Y-37008D01*
X74273Y-36914D02*
X74366Y-37008D01*
X74256Y-36914D02*
X74273Y-36914D01*
X75390Y-37401D02*
X75146Y-37401D01*
X74998Y-37401D02*
X75146Y-37401D01*
X74998Y-37303D02*
X74998Y-37401D01*
X74998Y-37453D02*
X74853Y-37598D01*
X74998Y-37401D02*
X74998Y-37453D01*
X76900Y-37882D02*
X76729Y-37882D01*
X76559Y-37757D02*
X76559Y-37680D01*
X76684Y-37882D02*
X76559Y-37757D01*
X76729Y-37882D02*
X76684Y-37882D01*
X76462Y-37680D02*
X76559Y-37680D01*
X76559Y-37680D02*
X76559Y-37627D01*
X77145Y-41240D02*
X76922Y-41240D01*
X77559Y-51102D02*
X77559Y-51771D01*
X80314Y-32386D02*
X80314Y-32156D01*
X81761Y-33415D02*
X82017Y-33415D01*
X82273Y-33415D02*
X82017Y-33415D01*
X82517Y-39041D02*
X82283Y-39041D01*
X82780Y-39304D02*
X82517Y-39041D01*
X82433Y-37835D02*
X82433Y-38149D01*
X82696Y-37835D02*
X82433Y-37835D01*
X82696Y-38149D02*
X82433Y-38149D01*
X82283Y-38910D02*
X82283Y-39041D01*
X82283Y-38910D02*
X82283Y-38779D01*
X82283Y-38299D02*
X82433Y-38149D01*
X82283Y-38779D02*
X82283Y-38299D01*
X71791Y-51811D02*
X71213Y-51811D01*
X71155Y-51752D02*
X71213Y-51811D01*
X71108Y-51752D02*
X71155Y-51752D01*
X74074Y-51811D02*
X74074Y-51331D01*
X73425Y-44197D02*
X73425Y-44427D01*
X73563Y-45472D02*
X73340Y-45472D01*
X73340Y-44512D02*
X73340Y-44523D01*
X73425Y-44427D02*
X73340Y-44512D01*
X73340Y-44523D02*
X73340Y-45472D01*
X74319Y-50884D02*
X74298Y-50905D01*
X74394Y-50884D02*
X74319Y-50884D01*
X73907Y-50905D02*
X74298Y-50905D01*
X78740Y-32386D02*
X78740Y-32711D01*
X82739Y-33671D02*
X82529Y-33671D01*
X82881Y-33812D02*
X82739Y-33671D01*
X73444Y-50763D02*
X73444Y-51140D01*
X73907Y-51164D02*
X73907Y-51140D01*
X74074Y-51331D02*
X73907Y-51164D01*
X73907Y-51140D02*
X73907Y-50905D01*
X72608Y-51331D02*
X73257Y-51331D01*
X72608Y-51811D02*
X72608Y-51331D01*
X73257Y-51811D02*
X73257Y-51331D01*
X73444Y-51144D02*
X73257Y-51331D01*
X73444Y-51140D02*
X73444Y-51144D01*
X73907Y-51140D02*
X73444Y-51140D01*
X74045Y-39350D02*
X73812Y-39350D01*
X73756Y-39406D02*
X73812Y-39350D01*
X73714Y-39406D02*
X73756Y-39406D01*
X73393Y-47834D02*
X74212Y-47834D01*
X74311Y-47933D02*
X74212Y-47834D01*
X75225Y-47246D02*
X75228Y-47244D01*
X74803Y-47246D02*
X75225Y-47246D01*
X74803Y-47015D02*
X74803Y-47246D01*
X75261Y-49312D02*
X75261Y-48622D01*
X75745Y-32857D02*
X75630Y-32857D01*
X75761Y-32873D02*
X75745Y-32857D01*
X75547Y-32857D02*
X75526Y-32878D01*
X75630Y-32857D02*
X75547Y-32857D01*
X75196Y-32878D02*
X75526Y-32878D01*
X76082Y-32873D02*
X75921Y-32873D01*
X75921Y-32873D02*
X75761Y-32873D01*
X76900Y-37627D02*
X76729Y-37627D01*
X76729Y-37627D02*
X76559Y-37627D01*
X76559Y-37503D02*
X76559Y-37372D01*
X76682Y-37627D02*
X76559Y-37503D01*
X76729Y-37627D02*
X76682Y-37627D01*
X76900Y-37372D02*
X76729Y-37372D01*
X76729Y-37372D02*
X76559Y-37372D01*
X76559Y-37247D02*
X76559Y-37117D01*
X76684Y-37372D02*
X76559Y-37247D01*
X76729Y-37372D02*
X76684Y-37372D01*
X76900Y-37117D02*
X76559Y-37117D01*
X81102Y-45472D02*
X81102Y-44929D01*
X80811Y-44389D02*
X80811Y-44719D01*
X81589Y-44389D02*
X81589Y-44719D01*
X80892Y-44719D02*
X81102Y-44929D01*
X80811Y-44719D02*
X80892Y-44719D01*
X81380Y-44929D02*
X81589Y-44719D01*
X81102Y-44929D02*
X81380Y-44929D01*
X80531Y-41496D02*
X80754Y-41496D01*
X80771Y-41478D02*
X80754Y-41496D01*
X80856Y-41478D02*
X80771Y-41478D01*
X81889Y-32742D02*
X81889Y-32386D01*
X81960Y-32813D02*
X81889Y-32742D01*
X76082Y-33365D02*
X75921Y-33365D01*
X75621Y-33365D02*
X75526Y-33459D01*
X75921Y-33365D02*
X75621Y-33365D01*
X75196Y-33459D02*
X75526Y-33459D01*
X75921Y-32873D02*
X75921Y-33365D01*
X78838Y-42933D02*
X78838Y-43156D01*
X78755Y-43239D02*
X78838Y-43156D01*
X78755Y-43321D02*
X78755Y-43239D01*
X79625Y-35723D02*
X79625Y-35493D01*
X79727Y-35391D02*
X79625Y-35493D01*
X75228Y-48622D02*
X75244Y-48622D01*
X75244Y-48622D02*
X75261Y-48622D01*
X80811Y-44389D02*
X80811Y-44059D01*
X80665Y-44059D02*
X80811Y-44059D01*
X80556Y-43950D02*
X80665Y-44059D01*
X75242Y-48619D02*
X75244Y-48622D01*
X75089Y-48619D02*
X75242Y-48619D01*
X74997Y-48527D02*
X75089Y-48619D01*
X74997Y-48031D02*
X74997Y-48527D01*
X75228Y-48031D02*
X74997Y-48031D01*
X74803Y-47933D02*
X74311Y-47933D01*
X74901Y-48031D02*
X74803Y-47933D01*
X74997Y-48031D02*
X74901Y-48031D01*
X74803Y-47933D02*
X74803Y-47246D01*
X76922Y-41240D02*
X76922Y-40984D01*
X76922Y-40984D02*
X77145Y-40984D01*
X76371Y-40984D02*
X76922Y-40984D01*
X76204Y-40816D02*
X76371Y-40984D01*
X78861Y-38030D02*
X78861Y-37372D01*
X79210Y-38380D02*
X78861Y-38030D01*
X79202Y-37372D02*
X78861Y-37372D01*
X80754Y-31861D02*
X80754Y-31540D01*
X80458Y-32156D02*
X80754Y-31861D01*
X80314Y-32156D02*
X80458Y-32156D01*
X81401Y-35861D02*
X81402Y-35861D01*
X81299Y-35963D02*
X81401Y-35861D01*
X81402Y-35531D02*
X81402Y-35861D01*
X81761Y-35402D02*
X81632Y-35531D01*
X81761Y-34695D02*
X81761Y-35402D01*
X81402Y-35531D02*
X81632Y-35531D01*
X81299Y-36141D02*
X81299Y-35963D01*
X81870Y-37520D02*
X81607Y-37520D01*
X81299Y-36141D02*
X81299Y-36318D01*
X81299Y-36318D02*
X81299Y-37211D01*
X80118Y-39547D02*
X80118Y-39324D01*
X80461Y-38980D02*
X80118Y-39324D01*
X80461Y-38512D02*
X80461Y-38980D01*
X81530Y-37442D02*
X80461Y-38512D01*
X81299Y-37211D02*
X81530Y-37442D01*
X81530Y-37442D02*
X81607Y-37520D01*
X76948Y-31889D02*
X77270Y-31889D01*
X78313Y-32643D02*
X78937Y-33267D01*
X77730Y-32643D02*
X78313Y-32643D01*
X77270Y-32183D02*
X77730Y-32643D01*
X77270Y-31889D02*
X77270Y-32183D01*
X78937Y-33267D02*
X79719Y-33267D01*
X79719Y-33267D02*
X79719Y-33267D01*
X75390Y-37205D02*
X75633Y-37205D01*
X75633Y-36879D02*
X75633Y-37205D01*
X75367Y-36613D02*
X75633Y-36879D01*
X75367Y-35968D02*
X75367Y-36613D01*
X75427Y-35908D02*
X75367Y-35968D01*
X75864Y-35908D02*
X75427Y-35908D01*
X77538Y-34234D02*
X75864Y-35908D01*
X77538Y-34230D02*
X77538Y-34234D01*
X79719Y-33267D02*
X79949Y-33267D01*
X75597Y-39095D02*
X75597Y-39035D01*
X75875Y-39374D02*
X75597Y-39095D01*
X75364Y-39035D02*
X75597Y-39035D01*
X77229Y-39877D02*
X77229Y-39214D01*
X77145Y-39960D02*
X77229Y-39877D01*
X79949Y-34525D02*
X79949Y-33267D01*
X79260Y-35214D02*
X79949Y-34525D01*
X79260Y-36503D02*
X79260Y-35214D01*
X77229Y-38534D02*
X79260Y-36503D01*
X77229Y-39214D02*
X77229Y-38534D01*
X82282Y-35963D02*
X82180Y-35861D01*
X82283Y-35963D02*
X82282Y-35963D01*
X82180Y-35531D02*
X82180Y-35861D01*
X82017Y-35038D02*
X82180Y-35201D01*
X82017Y-34695D02*
X82017Y-35038D01*
X82180Y-35531D02*
X82180Y-35201D01*
X82283Y-36274D02*
X82283Y-35963D01*
X81870Y-37835D02*
X81607Y-37835D01*
X81525Y-37917D02*
X81607Y-37835D01*
X81424Y-37917D02*
X81525Y-37917D01*
X82283Y-36274D02*
X82283Y-36318D01*
X82283Y-36318D02*
X81928Y-36318D01*
X81928Y-36606D02*
X81565Y-36969D01*
X81928Y-36318D02*
X81928Y-36606D01*
X80671Y-38670D02*
X81424Y-37917D01*
X80671Y-39820D02*
X80671Y-38670D01*
X80531Y-39960D02*
X80671Y-39820D01*
X77145Y-40216D02*
X76922Y-40216D01*
X78149Y-33267D02*
X78149Y-33416D01*
X76948Y-32381D02*
X77270Y-32381D01*
X77270Y-32536D02*
X78149Y-33416D01*
X77270Y-32381D02*
X77270Y-32536D01*
X75364Y-39350D02*
X75597Y-39350D01*
X75597Y-39570D02*
X75656Y-39629D01*
X75597Y-39350D02*
X75597Y-39570D01*
X75227Y-36845D02*
X75390Y-37008D01*
X75227Y-35910D02*
X75227Y-36845D01*
X75439Y-35698D02*
X75227Y-35910D01*
X75875Y-35698D02*
X75439Y-35698D01*
X77302Y-34271D02*
X75875Y-35698D01*
X77302Y-34133D02*
X77302Y-34271D01*
X78020Y-33416D02*
X77302Y-34133D01*
X78149Y-33416D02*
X78020Y-33416D01*
X76922Y-40216D02*
X76922Y-39629D01*
X78985Y-36580D02*
X78985Y-34251D01*
X76922Y-38643D02*
X78985Y-36580D01*
X76922Y-39629D02*
X76922Y-38643D01*
X78149Y-33416D02*
X78985Y-34251D01*
X78985Y-34251D02*
X79719Y-34251D01*
X78405Y-31791D02*
X78410Y-31786D01*
X77952Y-31791D02*
X78405Y-31791D01*
X78740Y-31786D02*
X78410Y-31786D01*
X77650Y-35571D02*
X77650Y-34645D01*
X75783Y-37438D02*
X77650Y-35571D01*
X78307Y-34645D02*
X77650Y-34645D01*
X73267Y-43097D02*
X73436Y-43265D01*
X72952Y-43097D02*
X73267Y-43097D01*
X72952Y-42913D02*
X72952Y-43097D01*
X74429Y-42736D02*
X74429Y-43208D01*
X74311Y-42618D02*
X74429Y-42736D01*
G54D54*
X73917Y-42618D02*
X74311Y-42618D01*
G54D53*
X73326Y-42382D02*
X73326Y-42382D01*
X73681Y-42382D02*
X73917Y-42618D01*
X73326Y-42382D02*
X73681Y-42382D01*
X73326Y-42382D02*
X73326Y-42382D01*
X73818Y-46736D02*
X73871Y-46684D01*
X73818Y-47015D02*
X73818Y-46736D01*
X73326Y-42224D02*
X73326Y-42224D01*
X73326Y-42224D02*
X74015Y-42224D01*
X72479Y-42913D02*
X72479Y-43189D01*
X72479Y-43464D02*
X72145Y-43799D01*
X72479Y-43189D02*
X72479Y-43464D01*
X72479Y-43189D02*
X72479Y-42913D01*
X72479Y-43189D02*
X72479Y-43189D01*
X82753Y-32666D02*
X82753Y-32740D01*
X82775Y-32643D02*
X82753Y-32666D01*
X82775Y-32381D02*
X82775Y-32643D01*
X81554Y-31791D02*
X81559Y-31786D01*
X81102Y-31791D02*
X81554Y-31791D01*
X81889Y-31786D02*
X81559Y-31786D01*
X79921Y-45472D02*
X79921Y-45971D01*
X82775Y-31791D02*
X82775Y-32053D01*
X82939Y-32053D02*
X82775Y-32053D01*
X83447Y-32562D02*
X82939Y-32053D01*
X83447Y-43197D02*
X83447Y-32562D01*
X82779Y-43866D02*
X83447Y-43197D01*
X82779Y-45733D02*
X82779Y-43866D01*
X82541Y-45971D02*
X82779Y-45733D01*
X79921Y-45971D02*
X82541Y-45971D01*
X82488Y-42480D02*
X82488Y-41942D01*
X81786Y-41240D02*
X80531Y-41240D01*
X82488Y-41942D02*
X81786Y-41240D01*
X81042Y-40984D02*
X80531Y-40984D01*
X81488Y-40538D02*
X81042Y-40984D01*
X81488Y-40000D02*
X81488Y-40538D01*
X73733Y-38484D02*
X73812Y-38405D01*
X72933Y-38484D02*
X73733Y-38484D01*
X74045Y-38405D02*
X73812Y-38405D01*
X72933Y-39074D02*
X72933Y-38831D01*
X74045Y-38720D02*
X73812Y-38720D01*
X73034Y-38730D02*
X72933Y-38831D01*
X73802Y-38730D02*
X73034Y-38730D01*
X73812Y-38720D02*
X73802Y-38730D01*
X82959Y-37033D02*
X83021Y-36971D01*
X82959Y-37205D02*
X82959Y-37033D01*
X82696Y-37205D02*
X82959Y-37205D01*
X82696Y-37520D02*
X82959Y-37520D01*
X82959Y-38192D02*
X83054Y-38287D01*
X82959Y-37520D02*
X82959Y-38192D01*
X73326Y-37603D02*
X73326Y-37718D01*
X72150Y-37106D02*
X72380Y-37106D01*
X72992Y-37718D02*
X73326Y-37718D01*
X72380Y-37106D02*
X72992Y-37718D01*
X73741Y-38133D02*
X73326Y-37718D01*
X75193Y-38133D02*
X73741Y-38133D01*
X75364Y-38303D02*
X75193Y-38133D01*
X75364Y-38405D02*
X75364Y-38303D01*
X81870Y-38779D02*
X81607Y-38779D01*
X81607Y-38779D02*
X81607Y-39063D01*
X81948Y-33927D02*
X81953Y-33922D01*
X81249Y-33927D02*
X81948Y-33927D01*
X73563Y-45177D02*
X73786Y-45177D01*
X74173Y-44790D02*
X73786Y-45177D01*
X74698Y-44790D02*
X74173Y-44790D01*
X74843Y-44935D02*
X74698Y-44790D01*
X74843Y-46085D02*
X74843Y-44935D01*
X74347Y-46582D02*
X74843Y-46085D01*
X74305Y-46582D02*
X74347Y-46582D01*
X74015Y-46872D02*
X74305Y-46582D01*
X74015Y-47015D02*
X74015Y-46872D01*
X74271Y-45767D02*
X74048Y-45767D01*
X73987Y-45828D02*
X73948Y-45828D01*
X74048Y-45767D02*
X73987Y-45828D01*
X73393Y-47440D02*
X73162Y-47440D01*
X73087Y-47515D02*
X73049Y-47515D01*
X73162Y-47440D02*
X73087Y-47515D01*
X79979Y-31791D02*
X79984Y-31786D01*
X79527Y-31791D02*
X79979Y-31791D01*
X80314Y-31786D02*
X79984Y-31786D01*
X72677Y-50284D02*
X72961Y-50000D01*
X72677Y-50763D02*
X72677Y-50284D01*
X74803Y-48850D02*
X74803Y-49081D01*
X74284Y-49600D02*
X74237Y-49600D01*
X74803Y-49081D02*
X74284Y-49600D01*
X74606Y-48993D02*
X74606Y-48850D01*
X74483Y-49116D02*
X74606Y-48993D01*
X74203Y-49116D02*
X74483Y-49116D01*
X72933Y-50387D02*
X74203Y-49116D01*
X72933Y-50763D02*
X72933Y-50387D01*
X75787Y-49896D02*
X75787Y-49666D01*
X75228Y-47637D02*
X75507Y-47637D01*
X75942Y-48072D02*
X75507Y-47637D01*
X75942Y-49511D02*
X75942Y-48072D01*
X75787Y-49666D02*
X75942Y-49511D01*
X73321Y-41328D02*
X73505Y-41143D01*
X73030Y-41328D02*
X73321Y-41328D01*
X72951Y-41406D02*
X73030Y-41328D01*
X72951Y-41535D02*
X72951Y-41406D01*
G54D54*
X74429Y-41633D02*
X74015Y-41633D01*
G54D53*
X73326Y-42067D02*
X73326Y-42067D01*
X73582Y-42067D02*
X73326Y-42067D01*
X74015Y-41633D02*
X73582Y-42067D01*
X73326Y-42067D02*
X73326Y-42067D01*
X74803Y-50820D02*
X74803Y-50496D01*
X75000Y-51017D02*
X74803Y-50820D01*
X75000Y-51279D02*
X75000Y-51017D01*
X75787Y-51279D02*
X75787Y-50496D01*
X73474Y-43597D02*
X73425Y-43597D01*
X73680Y-43390D02*
X73474Y-43597D01*
X73680Y-43177D02*
X73680Y-43390D01*
X73417Y-42913D02*
X73680Y-43177D01*
X73109Y-42913D02*
X73417Y-42913D01*
X74803Y-49896D02*
X75133Y-49896D01*
X75478Y-47834D02*
X75228Y-47834D01*
X75799Y-48155D02*
X75478Y-47834D01*
X75799Y-49230D02*
X75799Y-48155D01*
X75133Y-49896D02*
X75799Y-49230D01*
X78326Y-39547D02*
X78326Y-39063D01*
X78070Y-39547D02*
X78070Y-38406D01*
X78237Y-38240D02*
X78070Y-38406D01*
X78237Y-38057D02*
X78237Y-38240D01*
X77145Y-42519D02*
X76922Y-42519D01*
X76828Y-42613D02*
X76181Y-42613D01*
X76922Y-42519D02*
X76828Y-42613D01*
X76181Y-42613D02*
X76181Y-42843D01*
X73326Y-42697D02*
X73510Y-42697D01*
X73857Y-43044D02*
X73510Y-42697D01*
X73857Y-43557D02*
X73857Y-43044D01*
X74205Y-43904D02*
X73857Y-43557D01*
X75397Y-43904D02*
X74205Y-43904D01*
X75561Y-43740D02*
X75397Y-43904D01*
X75561Y-43319D02*
X75561Y-43740D01*
X76037Y-42843D02*
X75561Y-43319D01*
X76181Y-42843D02*
X76037Y-42843D01*
X77559Y-42933D02*
X77559Y-43156D01*
X72445Y-45472D02*
X72445Y-45142D01*
X76944Y-43156D02*
X77559Y-43156D01*
X76036Y-44064D02*
X76944Y-43156D01*
X73885Y-44064D02*
X76036Y-44064D01*
X73777Y-43955D02*
X73885Y-44064D01*
X73091Y-43955D02*
X73777Y-43955D01*
X72794Y-43659D02*
X73091Y-43955D01*
X72794Y-42913D02*
X72794Y-43659D01*
X73091Y-44496D02*
X72445Y-45142D01*
X73091Y-43955D02*
X73091Y-44496D01*
X77674Y-43296D02*
X77814Y-43156D01*
X77003Y-43296D02*
X77674Y-43296D01*
X75892Y-44406D02*
X77003Y-43296D01*
X75892Y-44685D02*
X75892Y-44406D01*
X77814Y-42933D02*
X77814Y-43156D01*
X77754Y-43473D02*
X78070Y-43156D01*
X77091Y-43473D02*
X77754Y-43473D01*
X76574Y-43989D02*
X77091Y-43473D01*
X76574Y-44291D02*
X76574Y-43989D01*
X78070Y-42933D02*
X78070Y-43156D01*
X77585Y-43897D02*
X78326Y-43156D01*
X77256Y-43897D02*
X77585Y-43897D01*
X78326Y-42933D02*
X78326Y-43156D01*
X76968Y-45472D02*
X76968Y-44770D01*
X78582Y-42933D02*
X78582Y-43156D01*
X76968Y-44770D02*
X78582Y-43156D01*
X77559Y-45472D02*
X77559Y-44973D01*
X79350Y-43332D02*
X79350Y-42933D01*
X77709Y-44973D02*
X79350Y-43332D01*
X77559Y-44973D02*
X77709Y-44973D01*
X79606Y-42933D02*
X79606Y-43156D01*
X79619Y-43169D02*
X79619Y-44042D01*
X79606Y-43156D02*
X79619Y-43169D01*
X79937Y-43231D02*
X79937Y-43310D01*
X79862Y-43156D02*
X79937Y-43231D01*
X79862Y-42933D02*
X79862Y-43156D01*
X80391Y-43429D02*
X80391Y-43455D01*
X80118Y-43156D02*
X80391Y-43429D01*
X80118Y-42933D02*
X80118Y-43156D01*
X77814Y-39547D02*
X77814Y-39324D01*
X77863Y-39275D02*
X77863Y-38275D01*
X77814Y-39324D02*
X77863Y-39275D01*
X81177Y-43708D02*
X81177Y-44488D01*
X80531Y-43062D02*
X81177Y-43708D01*
X80531Y-42519D02*
X80531Y-43062D01*
X80754Y-42647D02*
X81241Y-43134D01*
X80754Y-42263D02*
X80754Y-42647D01*
X80531Y-42263D02*
X80754Y-42263D01*
X78446Y-32149D02*
X78214Y-32381D01*
X79027Y-32149D02*
X78446Y-32149D01*
X79167Y-32289D02*
X79027Y-32149D01*
X77952Y-32381D02*
X78214Y-32381D01*
X80842Y-42007D02*
X80850Y-42015D01*
X80531Y-42007D02*
X80842Y-42007D01*
X79527Y-32381D02*
X79789Y-32381D01*
X80043Y-32635D02*
X79789Y-32381D01*
X80599Y-32635D02*
X80043Y-32635D01*
X80840Y-32394D02*
X80599Y-32635D01*
X80840Y-32172D02*
X80840Y-32394D01*
X80893Y-32119D02*
X80840Y-32172D01*
X82121Y-32119D02*
X80893Y-32119D01*
X82366Y-32364D02*
X82121Y-32119D01*
X82366Y-32945D02*
X82366Y-32364D01*
X83298Y-33877D02*
X82366Y-32945D01*
X83298Y-42543D02*
X83298Y-33877D01*
X82823Y-43018D02*
X83298Y-42543D01*
X82148Y-43018D02*
X82823Y-43018D01*
X81947Y-42817D02*
X82148Y-43018D01*
X81947Y-41983D02*
X81947Y-42817D01*
X81716Y-41751D02*
X81947Y-41983D01*
X80531Y-41751D02*
X81716Y-41751D01*
X80531Y-40472D02*
X80754Y-40472D01*
X81870Y-38464D02*
X81607Y-38464D01*
X81090Y-38981D02*
X81607Y-38464D01*
X81090Y-40136D02*
X81090Y-38981D01*
X80754Y-40472D02*
X81090Y-40136D01*
X80531Y-40216D02*
X80754Y-40216D01*
X81870Y-38149D02*
X81607Y-38149D01*
X80811Y-38945D02*
X81607Y-38149D01*
X80811Y-40159D02*
X80811Y-38945D01*
X80754Y-40216D02*
X80811Y-40159D01*
X81102Y-32381D02*
X81102Y-32643D01*
X77559Y-39547D02*
X77559Y-38690D01*
X80675Y-33070D02*
X80675Y-33315D01*
X81102Y-32643D02*
X80675Y-33070D01*
X77145Y-40472D02*
X76922Y-40472D01*
X76665Y-40215D02*
X76922Y-40472D01*
X76665Y-39113D02*
X76665Y-40215D01*
X77145Y-40728D02*
X76922Y-40728D01*
X76461Y-40267D02*
X76420Y-40267D01*
X76922Y-40728D02*
X76461Y-40267D01*
X77145Y-42007D02*
X76724Y-42007D01*
X75364Y-38720D02*
X76041Y-38720D01*
X76041Y-38717D02*
X76077Y-38681D01*
X76041Y-38720D02*
X76041Y-38717D01*
X75645Y-40928D02*
X76724Y-42007D01*
X75645Y-39995D02*
X75645Y-40928D01*
X75499Y-39849D02*
X75645Y-39995D01*
X72825Y-39849D02*
X75499Y-39849D01*
X72588Y-40085D02*
X72825Y-39849D01*
X72588Y-40448D02*
X72588Y-40085D01*
X72164Y-40872D02*
X72588Y-40448D01*
X72164Y-41535D02*
X72164Y-40872D01*
X76041Y-39192D02*
X76041Y-38720D01*
X76110Y-39262D02*
X76041Y-39192D01*
X76110Y-39529D02*
X76110Y-39262D01*
X75645Y-39995D02*
X76110Y-39529D01*
X77145Y-42263D02*
X76732Y-42263D01*
X73326Y-41752D02*
X73510Y-41752D01*
X75404Y-40936D02*
X76732Y-42263D01*
X74181Y-40936D02*
X75404Y-40936D01*
X73510Y-41607D02*
X74181Y-40936D01*
X73510Y-41752D02*
X73510Y-41607D01*
X76872Y-41496D02*
X76809Y-41559D01*
X77145Y-41496D02*
X76872Y-41496D01*
X75000Y-49286D02*
X74717Y-49568D01*
X75000Y-48850D02*
X75000Y-49286D01*
X74271Y-45177D02*
X74494Y-45177D01*
X74494Y-45128D02*
X74596Y-45026D01*
X74494Y-45177D02*
X74494Y-45128D01*
X79094Y-39052D02*
X79052Y-39010D01*
X79094Y-39547D02*
X79094Y-39052D01*
X73253Y-45767D02*
X73240Y-45754D01*
X73563Y-45767D02*
X73253Y-45767D01*
X79350Y-38962D02*
X78680Y-38292D01*
X79350Y-39547D02*
X79350Y-38962D01*
X75512Y-41968D02*
X75558Y-41968D01*
X75177Y-41633D02*
X75512Y-41968D01*
X82283Y-45472D02*
X82283Y-44973D01*
X82529Y-34603D02*
X82437Y-34695D01*
X82529Y-34439D02*
X82529Y-34603D01*
X82273Y-34695D02*
X82437Y-34695D01*
X81249Y-34603D02*
X81341Y-34695D01*
X81505Y-34695D02*
X81341Y-34695D01*
X82273Y-34695D02*
X82273Y-34878D01*
X81249Y-34439D02*
X81249Y-34603D01*
X81870Y-37205D02*
X82283Y-37205D01*
X82432Y-34878D02*
X82630Y-35076D01*
X82273Y-34878D02*
X82432Y-34878D01*
X82754Y-35201D02*
X82780Y-35201D01*
X82630Y-35076D02*
X82754Y-35201D01*
X82780Y-35531D02*
X82780Y-35201D01*
X75196Y-34059D02*
X75526Y-34059D01*
X75575Y-34010D02*
X75526Y-34059D01*
X75626Y-34010D02*
X75575Y-34010D01*
X82189Y-43405D02*
X82189Y-43735D01*
X82189Y-44389D02*
X82189Y-44059D01*
X73326Y-37003D02*
X72996Y-37003D01*
X72908Y-36914D02*
X72996Y-37003D01*
X72894Y-36914D02*
X72908Y-36914D01*
X76082Y-32381D02*
X75921Y-32381D01*
X76082Y-31889D02*
X75761Y-31889D01*
X80802Y-35531D02*
X80802Y-35103D01*
X81249Y-34656D02*
X81249Y-34603D01*
X80802Y-35103D02*
X81249Y-34656D01*
X81692Y-45472D02*
X81692Y-44973D01*
X81961Y-44973D02*
X81692Y-44973D01*
X81994Y-45007D02*
X81961Y-44973D01*
X81994Y-45026D02*
X81994Y-45007D01*
X82009Y-45040D02*
X81994Y-45026D01*
X82009Y-45040D02*
X82009Y-45040D01*
X82169Y-44880D02*
X82009Y-45040D01*
X82189Y-44880D02*
X82169Y-44880D01*
X82189Y-44389D02*
X82189Y-44880D01*
X82189Y-44880D02*
X82283Y-44973D01*
X77097Y-41799D02*
X77145Y-41751D01*
X76714Y-41799D02*
X77097Y-41799D01*
X76571Y-41657D02*
X76714Y-41799D01*
X76571Y-41329D02*
X76571Y-41657D01*
X80319Y-34251D02*
X80319Y-33267D01*
X80319Y-34251D02*
X81249Y-34251D01*
X81249Y-34183D02*
X81249Y-34251D01*
X81249Y-34251D02*
X81249Y-34439D01*
X79094Y-43256D02*
X79094Y-42933D01*
X76677Y-38681D02*
X76677Y-38350D01*
X76757Y-38271D02*
X76677Y-38350D01*
X76757Y-38254D02*
X76757Y-38271D01*
X80852Y-40728D02*
X80531Y-40728D01*
X75761Y-32220D02*
X75761Y-32083D01*
X75921Y-32381D02*
X75761Y-32220D01*
X75761Y-32083D02*
X75761Y-31889D01*
X75761Y-32083D02*
X75658Y-32083D01*
X75526Y-32215D02*
X75526Y-32278D01*
X75658Y-32083D02*
X75526Y-32215D01*
X75196Y-32278D02*
X75526Y-32278D01*
X78582Y-39145D02*
X78582Y-39547D01*
X78659Y-39068D02*
X78582Y-39145D01*
X82283Y-37205D02*
X82283Y-36942D01*
X82253Y-36942D02*
X82283Y-36942D01*
X82150Y-36840D02*
X82253Y-36942D01*
X76181Y-43213D02*
X76511Y-43213D01*
X76606Y-43117D02*
X76511Y-43213D01*
X75177Y-43208D02*
X75177Y-42513D01*
X75177Y-42513D02*
X75532Y-42513D01*
X82045Y-43880D02*
X82045Y-43897D01*
X82189Y-43735D02*
X82045Y-43880D01*
X82045Y-43915D02*
X82189Y-44059D01*
X82045Y-43897D02*
X82045Y-43915D01*
X80713Y-37433D02*
X80713Y-37598D01*
X80221Y-38090D02*
X80221Y-38582D01*
X80483Y-37828D02*
X80221Y-38090D01*
X80483Y-37598D02*
X80483Y-37828D01*
X80713Y-37598D02*
X80483Y-37598D01*
X80713Y-37433D02*
X80713Y-37230D01*
X79202Y-37117D02*
X79543Y-37117D01*
X80713Y-37230D02*
X80784Y-37159D01*
X80516Y-37034D02*
X79625Y-37034D01*
X80713Y-37230D02*
X80516Y-37034D01*
X79625Y-36323D02*
X79625Y-37034D01*
X79625Y-37034D02*
X79543Y-37117D01*
G54D10*
G36*
X72022Y-42703D02*
X72010Y-42716D01*
X71988Y-42716D01*
X71988Y-42738D01*
X71985Y-42741D01*
X71960Y-42802D01*
X71960Y-42867D01*
X71960Y-43024D01*
X71983Y-43079D01*
X71944Y-43105D01*
X71909Y-43140D01*
X71909Y-42829D01*
X71909Y-42716D01*
X71776Y-42716D01*
X71745Y-42747D01*
X71745Y-42760D01*
X71764Y-42806D01*
X71799Y-42841D01*
X71845Y-42860D01*
X71878Y-42860D01*
X71909Y-42829D01*
X71909Y-43140D01*
X71830Y-43218D01*
X71673Y-43218D01*
X71446Y-42992D01*
X71446Y-41100D01*
X71641Y-40904D01*
X71676Y-40919D01*
X71901Y-40919D01*
X71964Y-40893D01*
X71964Y-41413D01*
X71960Y-41424D01*
X71960Y-41489D01*
X71960Y-41547D01*
X71837Y-41547D01*
X71776Y-41573D01*
X71730Y-41619D01*
X71705Y-41680D01*
X71705Y-41745D01*
X71705Y-41824D01*
X71730Y-41885D01*
X71775Y-41930D01*
X71745Y-41960D01*
X71745Y-41973D01*
X71751Y-41988D01*
X71745Y-42003D01*
X71745Y-42016D01*
X71776Y-42047D01*
X71792Y-42047D01*
X71799Y-42054D01*
X71828Y-42066D01*
X71799Y-42078D01*
X71791Y-42087D01*
X71776Y-42087D01*
X71745Y-42118D01*
X71745Y-42131D01*
X71751Y-42145D01*
X71745Y-42160D01*
X71745Y-42173D01*
X71776Y-42204D01*
X71791Y-42204D01*
X71799Y-42212D01*
X71828Y-42224D01*
X71799Y-42236D01*
X71792Y-42244D01*
X71776Y-42244D01*
X71745Y-42275D01*
X71745Y-42288D01*
X71751Y-42303D01*
X71745Y-42318D01*
X71745Y-42331D01*
X71776Y-42362D01*
X71792Y-42362D01*
X71799Y-42369D01*
X71828Y-42381D01*
X71799Y-42393D01*
X71791Y-42402D01*
X71776Y-42402D01*
X71745Y-42433D01*
X71745Y-42446D01*
X71751Y-42460D01*
X71745Y-42475D01*
X71745Y-42488D01*
X71776Y-42519D01*
X71791Y-42519D01*
X71799Y-42527D01*
X71827Y-42539D01*
X71799Y-42550D01*
X71791Y-42559D01*
X71776Y-42559D01*
X71745Y-42590D01*
X71745Y-42603D01*
X71751Y-42617D01*
X71745Y-42632D01*
X71745Y-42645D01*
X71776Y-42676D01*
X71791Y-42676D01*
X71799Y-42684D01*
X71845Y-42703D01*
X71878Y-42703D01*
X71905Y-42676D01*
X71909Y-42676D01*
X71909Y-42672D01*
X71909Y-42563D01*
X71909Y-42559D01*
X71905Y-42559D01*
X71885Y-42539D01*
X71905Y-42519D01*
X71909Y-42519D01*
X71909Y-42515D01*
X71909Y-42406D01*
X71909Y-42402D01*
X71905Y-42402D01*
X71885Y-42381D01*
X71904Y-42362D01*
X71909Y-42362D01*
X71909Y-42357D01*
X71909Y-42249D01*
X71909Y-42244D01*
X71904Y-42244D01*
X71885Y-42224D01*
X71905Y-42204D01*
X71909Y-42204D01*
X71909Y-42200D01*
X71909Y-42091D01*
X71909Y-42087D01*
X71905Y-42087D01*
X71885Y-42066D01*
X71904Y-42047D01*
X71909Y-42047D01*
X71909Y-42042D01*
X71909Y-42027D01*
X71988Y-42027D01*
X71988Y-42042D01*
X71988Y-42047D01*
X71993Y-42047D01*
X72012Y-42066D01*
X71992Y-42087D01*
X71988Y-42087D01*
X71988Y-42091D01*
X71988Y-42200D01*
X71988Y-42204D01*
X71992Y-42204D01*
X72012Y-42224D01*
X71993Y-42244D01*
X71988Y-42244D01*
X71988Y-42249D01*
X71988Y-42357D01*
X71988Y-42362D01*
X71993Y-42362D01*
X72012Y-42381D01*
X71992Y-42402D01*
X71988Y-42402D01*
X71988Y-42406D01*
X71988Y-42515D01*
X71988Y-42519D01*
X71992Y-42519D01*
X72011Y-42539D01*
X71992Y-42559D01*
X71988Y-42559D01*
X71988Y-42563D01*
X71988Y-42672D01*
X71988Y-42676D01*
X71992Y-42676D01*
X72019Y-42703D01*
X72022Y-42703D01*
X72022Y-42703D01*
G37*
G54D55*
X72022Y-42703D02*
X72010Y-42716D01*
X71988Y-42716D01*
X71988Y-42738D01*
X71985Y-42741D01*
X71960Y-42802D01*
X71960Y-42867D01*
X71960Y-43024D01*
X71983Y-43079D01*
X71944Y-43105D01*
X71909Y-43140D01*
X71909Y-42829D01*
X71909Y-42716D01*
X71776Y-42716D01*
X71745Y-42747D01*
X71745Y-42760D01*
X71764Y-42806D01*
X71799Y-42841D01*
X71845Y-42860D01*
X71878Y-42860D01*
X71909Y-42829D01*
X71909Y-43140D01*
X71830Y-43218D01*
X71673Y-43218D01*
X71446Y-42992D01*
X71446Y-41100D01*
X71641Y-40904D01*
X71676Y-40919D01*
X71901Y-40919D01*
X71964Y-40893D01*
X71964Y-41413D01*
X71960Y-41424D01*
X71960Y-41489D01*
X71960Y-41547D01*
X71837Y-41547D01*
X71776Y-41573D01*
X71730Y-41619D01*
X71705Y-41680D01*
X71705Y-41745D01*
X71705Y-41824D01*
X71730Y-41885D01*
X71775Y-41930D01*
X71745Y-41960D01*
X71745Y-41973D01*
X71751Y-41988D01*
X71745Y-42003D01*
X71745Y-42016D01*
X71776Y-42047D01*
X71792Y-42047D01*
X71799Y-42054D01*
X71828Y-42066D01*
X71799Y-42078D01*
X71791Y-42087D01*
X71776Y-42087D01*
X71745Y-42118D01*
X71745Y-42131D01*
X71751Y-42145D01*
X71745Y-42160D01*
X71745Y-42173D01*
X71776Y-42204D01*
X71791Y-42204D01*
X71799Y-42212D01*
X71828Y-42224D01*
X71799Y-42236D01*
X71792Y-42244D01*
X71776Y-42244D01*
X71745Y-42275D01*
X71745Y-42288D01*
X71751Y-42303D01*
X71745Y-42318D01*
X71745Y-42331D01*
X71776Y-42362D01*
X71792Y-42362D01*
X71799Y-42369D01*
X71828Y-42381D01*
X71799Y-42393D01*
X71791Y-42402D01*
X71776Y-42402D01*
X71745Y-42433D01*
X71745Y-42446D01*
X71751Y-42460D01*
X71745Y-42475D01*
X71745Y-42488D01*
X71776Y-42519D01*
X71791Y-42519D01*
X71799Y-42527D01*
X71827Y-42539D01*
X71799Y-42550D01*
X71791Y-42559D01*
X71776Y-42559D01*
X71745Y-42590D01*
X71745Y-42603D01*
X71751Y-42617D01*
X71745Y-42632D01*
X71745Y-42645D01*
X71776Y-42676D01*
X71791Y-42676D01*
X71799Y-42684D01*
X71845Y-42703D01*
X71878Y-42703D01*
X71905Y-42676D01*
X71909Y-42676D01*
X71909Y-42672D01*
X71909Y-42563D01*
X71909Y-42559D01*
X71905Y-42559D01*
X71885Y-42539D01*
X71905Y-42519D01*
X71909Y-42519D01*
X71909Y-42515D01*
X71909Y-42406D01*
X71909Y-42402D01*
X71905Y-42402D01*
X71885Y-42381D01*
X71904Y-42362D01*
X71909Y-42362D01*
X71909Y-42357D01*
X71909Y-42249D01*
X71909Y-42244D01*
X71904Y-42244D01*
X71885Y-42224D01*
X71905Y-42204D01*
X71909Y-42204D01*
X71909Y-42200D01*
X71909Y-42091D01*
X71909Y-42087D01*
X71905Y-42087D01*
X71885Y-42066D01*
X71904Y-42047D01*
X71909Y-42047D01*
X71909Y-42042D01*
X71909Y-42027D01*
X71988Y-42027D01*
X71988Y-42042D01*
X71988Y-42047D01*
X71993Y-42047D01*
X72012Y-42066D01*
X71992Y-42087D01*
X71988Y-42087D01*
X71988Y-42091D01*
X71988Y-42200D01*
X71988Y-42204D01*
X71992Y-42204D01*
X72012Y-42224D01*
X71993Y-42244D01*
X71988Y-42244D01*
X71988Y-42249D01*
X71988Y-42357D01*
X71988Y-42362D01*
X71993Y-42362D01*
X72012Y-42381D01*
X71992Y-42402D01*
X71988Y-42402D01*
X71988Y-42406D01*
X71988Y-42515D01*
X71988Y-42519D01*
X71992Y-42519D01*
X72011Y-42539D01*
X71992Y-42559D01*
X71988Y-42559D01*
X71988Y-42563D01*
X71988Y-42672D01*
X71988Y-42676D01*
X71992Y-42676D01*
X72019Y-42703D01*
X72022Y-42703D01*
G54D10*
G36*
X72519Y-41574D02*
X72504Y-41574D01*
X72499Y-41574D01*
X72499Y-41579D01*
X72480Y-41598D01*
X72460Y-41578D01*
X72460Y-41574D01*
X72456Y-41574D01*
X72440Y-41574D01*
X72440Y-41496D01*
X72456Y-41496D01*
X72460Y-41496D01*
X72460Y-41492D01*
X72480Y-41471D01*
X72499Y-41491D01*
X72499Y-41496D01*
X72504Y-41496D01*
X72519Y-41496D01*
X72519Y-41574D01*
X72519Y-41574D01*
G37*
G54D55*
X72519Y-41574D02*
X72504Y-41574D01*
X72499Y-41574D01*
X72499Y-41579D01*
X72480Y-41598D01*
X72460Y-41578D01*
X72460Y-41574D01*
X72456Y-41574D01*
X72440Y-41574D01*
X72440Y-41496D01*
X72456Y-41496D01*
X72460Y-41496D01*
X72460Y-41492D01*
X72480Y-41471D01*
X72499Y-41491D01*
X72499Y-41496D01*
X72504Y-41496D01*
X72519Y-41496D01*
X72519Y-41574D01*
G54D10*
G36*
X73132Y-42539D02*
X73108Y-42564D01*
X73083Y-42625D01*
X73083Y-42669D01*
X73037Y-42669D01*
X73031Y-42672D01*
X73025Y-42669D01*
X72959Y-42669D01*
X72880Y-42669D01*
X72873Y-42672D01*
X72867Y-42669D01*
X72801Y-42669D01*
X72722Y-42669D01*
X72716Y-42672D01*
X72710Y-42669D01*
X72644Y-42669D01*
X72565Y-42669D01*
X72558Y-42672D01*
X72552Y-42669D01*
X72486Y-42669D01*
X72407Y-42669D01*
X72401Y-42672D01*
X72395Y-42669D01*
X72329Y-42669D01*
X72250Y-42669D01*
X72243Y-42672D01*
X72237Y-42669D01*
X72171Y-42669D01*
X72152Y-42669D01*
X72152Y-42645D01*
X72152Y-42632D01*
X72152Y-42603D01*
X72152Y-42591D01*
X72152Y-42590D01*
X72121Y-42559D01*
X72106Y-42559D01*
X72098Y-42550D01*
X72070Y-42539D01*
X72098Y-42527D01*
X72106Y-42519D01*
X72121Y-42519D01*
X72152Y-42488D01*
X72152Y-42475D01*
X72146Y-42460D01*
X72152Y-42446D01*
X72152Y-42433D01*
X72121Y-42402D01*
X72106Y-42402D01*
X72098Y-42393D01*
X72069Y-42381D01*
X72098Y-42369D01*
X72105Y-42362D01*
X72121Y-42362D01*
X72152Y-42331D01*
X72152Y-42318D01*
X72146Y-42303D01*
X72152Y-42288D01*
X72152Y-42275D01*
X72121Y-42244D01*
X72105Y-42244D01*
X72098Y-42236D01*
X72069Y-42224D01*
X72098Y-42212D01*
X72106Y-42204D01*
X72121Y-42204D01*
X72152Y-42173D01*
X72152Y-42160D01*
X72146Y-42145D01*
X72152Y-42131D01*
X72152Y-42118D01*
X72121Y-42087D01*
X72106Y-42087D01*
X72098Y-42078D01*
X72069Y-42066D01*
X72098Y-42054D01*
X72105Y-42047D01*
X72121Y-42047D01*
X72152Y-42016D01*
X72152Y-42003D01*
X72146Y-41988D01*
X72152Y-41973D01*
X72152Y-41960D01*
X72122Y-41930D01*
X72167Y-41885D01*
X72192Y-41824D01*
X72192Y-41778D01*
X72237Y-41778D01*
X72297Y-41753D01*
X72343Y-41708D01*
X72373Y-41738D01*
X72387Y-41738D01*
X72401Y-41733D01*
X72415Y-41738D01*
X72428Y-41738D01*
X72460Y-41707D01*
X72460Y-41692D01*
X72468Y-41684D01*
X72480Y-41655D01*
X72492Y-41684D01*
X72499Y-41691D01*
X72499Y-41707D01*
X72530Y-41738D01*
X72544Y-41738D01*
X72558Y-41732D01*
X72573Y-41738D01*
X72586Y-41738D01*
X72616Y-41708D01*
X72661Y-41753D01*
X72722Y-41778D01*
X72788Y-41778D01*
X72867Y-41778D01*
X72873Y-41776D01*
X72879Y-41778D01*
X72945Y-41778D01*
X73024Y-41778D01*
X73083Y-41754D01*
X73083Y-41824D01*
X73108Y-41885D01*
X73132Y-41909D01*
X73108Y-41934D01*
X73083Y-41995D01*
X73083Y-42060D01*
X73083Y-42139D01*
X73085Y-42145D01*
X73083Y-42152D01*
X73083Y-42217D01*
X73083Y-42296D01*
X73086Y-42303D01*
X73083Y-42310D01*
X73083Y-42375D01*
X73083Y-42454D01*
X73108Y-42515D01*
X73132Y-42539D01*
X73132Y-42539D01*
G37*
G54D55*
X73132Y-42539D02*
X73108Y-42564D01*
X73083Y-42625D01*
X73083Y-42669D01*
X73037Y-42669D01*
X73031Y-42672D01*
X73025Y-42669D01*
X72959Y-42669D01*
X72880Y-42669D01*
X72873Y-42672D01*
X72867Y-42669D01*
X72801Y-42669D01*
X72722Y-42669D01*
X72716Y-42672D01*
X72710Y-42669D01*
X72644Y-42669D01*
X72565Y-42669D01*
X72558Y-42672D01*
X72552Y-42669D01*
X72486Y-42669D01*
X72407Y-42669D01*
X72401Y-42672D01*
X72395Y-42669D01*
X72329Y-42669D01*
X72250Y-42669D01*
X72243Y-42672D01*
X72237Y-42669D01*
X72171Y-42669D01*
X72152Y-42669D01*
X72152Y-42645D01*
X72152Y-42632D01*
X72152Y-42603D01*
X72152Y-42591D01*
X72152Y-42590D01*
X72121Y-42559D01*
X72106Y-42559D01*
X72098Y-42550D01*
X72070Y-42539D01*
X72098Y-42527D01*
X72106Y-42519D01*
X72121Y-42519D01*
X72152Y-42488D01*
X72152Y-42475D01*
X72146Y-42460D01*
X72152Y-42446D01*
X72152Y-42433D01*
X72121Y-42402D01*
X72106Y-42402D01*
X72098Y-42393D01*
X72069Y-42381D01*
X72098Y-42369D01*
X72105Y-42362D01*
X72121Y-42362D01*
X72152Y-42331D01*
X72152Y-42318D01*
X72146Y-42303D01*
X72152Y-42288D01*
X72152Y-42275D01*
X72121Y-42244D01*
X72105Y-42244D01*
X72098Y-42236D01*
X72069Y-42224D01*
X72098Y-42212D01*
X72106Y-42204D01*
X72121Y-42204D01*
X72152Y-42173D01*
X72152Y-42160D01*
X72146Y-42145D01*
X72152Y-42131D01*
X72152Y-42118D01*
X72121Y-42087D01*
X72106Y-42087D01*
X72098Y-42078D01*
X72069Y-42066D01*
X72098Y-42054D01*
X72105Y-42047D01*
X72121Y-42047D01*
X72152Y-42016D01*
X72152Y-42003D01*
X72146Y-41988D01*
X72152Y-41973D01*
X72152Y-41960D01*
X72122Y-41930D01*
X72167Y-41885D01*
X72192Y-41824D01*
X72192Y-41778D01*
X72237Y-41778D01*
X72297Y-41753D01*
X72343Y-41708D01*
X72373Y-41738D01*
X72387Y-41738D01*
X72401Y-41733D01*
X72415Y-41738D01*
X72428Y-41738D01*
X72460Y-41707D01*
X72460Y-41692D01*
X72468Y-41684D01*
X72480Y-41655D01*
X72492Y-41684D01*
X72499Y-41691D01*
X72499Y-41707D01*
X72530Y-41738D01*
X72544Y-41738D01*
X72558Y-41732D01*
X72573Y-41738D01*
X72586Y-41738D01*
X72616Y-41708D01*
X72661Y-41753D01*
X72722Y-41778D01*
X72788Y-41778D01*
X72867Y-41778D01*
X72873Y-41776D01*
X72879Y-41778D01*
X72945Y-41778D01*
X73024Y-41778D01*
X73083Y-41754D01*
X73083Y-41824D01*
X73108Y-41885D01*
X73132Y-41909D01*
X73108Y-41934D01*
X73083Y-41995D01*
X73083Y-42060D01*
X73083Y-42139D01*
X73085Y-42145D01*
X73083Y-42152D01*
X73083Y-42217D01*
X73083Y-42296D01*
X73086Y-42303D01*
X73083Y-42310D01*
X73083Y-42375D01*
X73083Y-42454D01*
X73108Y-42515D01*
X73132Y-42539D01*
G54D10*
G36*
X73895Y-49141D02*
X73207Y-49829D01*
X73128Y-49750D01*
X73019Y-49705D01*
X72902Y-49705D01*
X72794Y-49750D01*
X72738Y-49805D01*
X72738Y-48210D01*
X72694Y-48102D01*
X72611Y-48019D01*
X72502Y-47974D01*
X72385Y-47974D01*
X72276Y-48019D01*
X72193Y-48101D01*
X72148Y-48210D01*
X72148Y-48327D01*
X72193Y-48436D01*
X72276Y-48519D01*
X72384Y-48564D01*
X72502Y-48564D01*
X72610Y-48519D01*
X72693Y-48436D01*
X72738Y-48328D01*
X72738Y-48210D01*
X72738Y-49805D01*
X72711Y-49833D01*
X72666Y-49941D01*
X72666Y-50012D01*
X72535Y-50143D01*
X72522Y-50163D01*
X72507Y-50087D01*
X72445Y-49995D01*
X71741Y-49291D01*
X71741Y-47480D01*
X72754Y-47480D01*
X72754Y-47574D01*
X72799Y-47682D01*
X72882Y-47765D01*
X72991Y-47810D01*
X73108Y-47810D01*
X73139Y-47797D01*
X73142Y-47801D01*
X73174Y-47832D01*
X73178Y-47834D01*
X73174Y-47836D01*
X73142Y-47868D01*
X73127Y-47882D01*
X73102Y-47943D01*
X73102Y-48009D01*
X73102Y-48119D01*
X73107Y-48129D01*
X73102Y-48140D01*
X73102Y-48206D01*
X73102Y-48316D01*
X73107Y-48326D01*
X73102Y-48337D01*
X73102Y-48402D01*
X73102Y-48513D01*
X73107Y-48523D01*
X73102Y-48534D01*
X73102Y-48599D01*
X73102Y-48709D01*
X73127Y-48770D01*
X73174Y-48817D01*
X73234Y-48842D01*
X73300Y-48842D01*
X73401Y-48842D01*
X73401Y-49009D01*
X73427Y-49069D01*
X73473Y-49116D01*
X73534Y-49141D01*
X73599Y-49141D01*
X73709Y-49141D01*
X73720Y-49137D01*
X73730Y-49141D01*
X73796Y-49141D01*
X73895Y-49141D01*
X73895Y-49141D01*
G37*
G54D55*
X73895Y-49141D02*
X73207Y-49829D01*
X73128Y-49750D01*
X73019Y-49705D01*
X72902Y-49705D01*
X72794Y-49750D01*
X72738Y-49805D01*
X72738Y-48210D01*
X72694Y-48102D01*
X72611Y-48019D01*
X72502Y-47974D01*
X72385Y-47974D01*
X72276Y-48019D01*
X72193Y-48101D01*
X72148Y-48210D01*
X72148Y-48327D01*
X72193Y-48436D01*
X72276Y-48519D01*
X72384Y-48564D01*
X72502Y-48564D01*
X72610Y-48519D01*
X72693Y-48436D01*
X72738Y-48328D01*
X72738Y-48210D01*
X72738Y-49805D01*
X72711Y-49833D01*
X72666Y-49941D01*
X72666Y-50012D01*
X72535Y-50143D01*
X72522Y-50163D01*
X72507Y-50087D01*
X72445Y-49995D01*
X71741Y-49291D01*
X71741Y-47480D01*
X72754Y-47480D01*
X72754Y-47574D01*
X72799Y-47682D01*
X72882Y-47765D01*
X72991Y-47810D01*
X73108Y-47810D01*
X73139Y-47797D01*
X73142Y-47801D01*
X73174Y-47832D01*
X73178Y-47834D01*
X73174Y-47836D01*
X73142Y-47868D01*
X73127Y-47882D01*
X73102Y-47943D01*
X73102Y-48009D01*
X73102Y-48119D01*
X73107Y-48129D01*
X73102Y-48140D01*
X73102Y-48206D01*
X73102Y-48316D01*
X73107Y-48326D01*
X73102Y-48337D01*
X73102Y-48402D01*
X73102Y-48513D01*
X73107Y-48523D01*
X73102Y-48534D01*
X73102Y-48599D01*
X73102Y-48709D01*
X73127Y-48770D01*
X73174Y-48817D01*
X73234Y-48842D01*
X73300Y-48842D01*
X73401Y-48842D01*
X73401Y-49009D01*
X73427Y-49069D01*
X73473Y-49116D01*
X73534Y-49141D01*
X73599Y-49141D01*
X73709Y-49141D01*
X73720Y-49137D01*
X73730Y-49141D01*
X73796Y-49141D01*
X73895Y-49141D01*
G54D10*
G36*
X73995Y-45344D02*
X73988Y-45361D01*
X73988Y-45426D01*
X73988Y-45533D01*
X73890Y-45533D01*
X73823Y-45561D01*
X73821Y-45555D01*
X73806Y-45541D01*
X73774Y-45509D01*
X73714Y-45484D01*
X73648Y-45484D01*
X73450Y-45484D01*
X73450Y-45460D01*
X73478Y-45460D01*
X73714Y-45460D01*
X73774Y-45435D01*
X73806Y-45403D01*
X73821Y-45388D01*
X73829Y-45368D01*
X73862Y-45362D01*
X73927Y-45318D01*
X73988Y-45258D01*
X73988Y-45328D01*
X73995Y-45344D01*
X73995Y-45344D01*
G37*
G54D55*
X73995Y-45344D02*
X73988Y-45361D01*
X73988Y-45426D01*
X73988Y-45533D01*
X73890Y-45533D01*
X73823Y-45561D01*
X73821Y-45555D01*
X73806Y-45541D01*
X73774Y-45509D01*
X73714Y-45484D01*
X73648Y-45484D01*
X73450Y-45484D01*
X73450Y-45460D01*
X73478Y-45460D01*
X73714Y-45460D01*
X73774Y-45435D01*
X73806Y-45403D01*
X73821Y-45388D01*
X73829Y-45368D01*
X73862Y-45362D01*
X73927Y-45318D01*
X73988Y-45258D01*
X73988Y-45328D01*
X73995Y-45344D01*
G54D10*
G36*
X74264Y-46050D02*
X74261Y-46052D01*
X74191Y-46052D01*
X74082Y-46097D01*
X74032Y-46147D01*
X73875Y-46147D01*
X73811Y-46160D01*
X73799Y-46162D01*
X73734Y-46206D01*
X73252Y-46688D01*
X73208Y-46752D01*
X73193Y-46829D01*
X73193Y-47041D01*
X73186Y-47044D01*
X73162Y-47044D01*
X73086Y-47059D01*
X73054Y-47080D01*
X71741Y-47080D01*
X71741Y-45862D01*
X71753Y-45862D01*
X72003Y-45862D01*
X72064Y-45837D01*
X72110Y-45790D01*
X72135Y-45730D01*
X72135Y-45664D01*
X72135Y-45214D01*
X72110Y-45153D01*
X72064Y-45107D01*
X72003Y-45082D01*
X71937Y-45082D01*
X71856Y-45082D01*
X72839Y-44099D01*
X72884Y-44031D01*
X72891Y-44038D01*
X72891Y-44413D01*
X72304Y-45000D01*
X72260Y-45065D01*
X72254Y-45096D01*
X72227Y-45107D01*
X72180Y-45153D01*
X72155Y-45214D01*
X72155Y-45280D01*
X72155Y-45730D01*
X72180Y-45790D01*
X72227Y-45837D01*
X72287Y-45862D01*
X72353Y-45862D01*
X72603Y-45862D01*
X72664Y-45837D01*
X72710Y-45790D01*
X72735Y-45730D01*
X72735Y-45664D01*
X72735Y-45214D01*
X72712Y-45158D01*
X72780Y-45090D01*
X72821Y-45190D01*
X72904Y-45273D01*
X73012Y-45318D01*
X73129Y-45318D01*
X73238Y-45273D01*
X73280Y-45232D01*
X73280Y-45328D01*
X73305Y-45388D01*
X73320Y-45403D01*
X73320Y-45467D01*
X73299Y-45459D01*
X73182Y-45459D01*
X73073Y-45503D01*
X72990Y-45586D01*
X72945Y-45695D01*
X72945Y-45812D01*
X72990Y-45921D01*
X73073Y-46004D01*
X73181Y-46049D01*
X73299Y-46049D01*
X73354Y-46026D01*
X73412Y-46050D01*
X73478Y-46050D01*
X73714Y-46050D01*
X73741Y-46038D01*
X73781Y-46078D01*
X73889Y-46123D01*
X74007Y-46123D01*
X74115Y-46078D01*
X74144Y-46050D01*
X74186Y-46050D01*
X74264Y-46050D01*
X74264Y-46050D01*
G37*
G54D55*
X74264Y-46050D02*
X74261Y-46052D01*
X74191Y-46052D01*
X74082Y-46097D01*
X74032Y-46147D01*
X73875Y-46147D01*
X73811Y-46160D01*
X73799Y-46162D01*
X73734Y-46206D01*
X73252Y-46688D01*
X73208Y-46752D01*
X73193Y-46829D01*
X73193Y-47041D01*
X73186Y-47044D01*
X73162Y-47044D01*
X73086Y-47059D01*
X73054Y-47080D01*
X71741Y-47080D01*
X71741Y-45862D01*
X71753Y-45862D01*
X72003Y-45862D01*
X72064Y-45837D01*
X72110Y-45790D01*
X72135Y-45730D01*
X72135Y-45664D01*
X72135Y-45214D01*
X72110Y-45153D01*
X72064Y-45107D01*
X72003Y-45082D01*
X71937Y-45082D01*
X71856Y-45082D01*
X72839Y-44099D01*
X72884Y-44031D01*
X72891Y-44038D01*
X72891Y-44413D01*
X72304Y-45000D01*
X72260Y-45065D01*
X72254Y-45096D01*
X72227Y-45107D01*
X72180Y-45153D01*
X72155Y-45214D01*
X72155Y-45280D01*
X72155Y-45730D01*
X72180Y-45790D01*
X72227Y-45837D01*
X72287Y-45862D01*
X72353Y-45862D01*
X72603Y-45862D01*
X72664Y-45837D01*
X72710Y-45790D01*
X72735Y-45730D01*
X72735Y-45664D01*
X72735Y-45214D01*
X72712Y-45158D01*
X72780Y-45090D01*
X72821Y-45190D01*
X72904Y-45273D01*
X73012Y-45318D01*
X73129Y-45318D01*
X73238Y-45273D01*
X73280Y-45232D01*
X73280Y-45328D01*
X73305Y-45388D01*
X73320Y-45403D01*
X73320Y-45467D01*
X73299Y-45459D01*
X73182Y-45459D01*
X73073Y-45503D01*
X72990Y-45586D01*
X72945Y-45695D01*
X72945Y-45812D01*
X72990Y-45921D01*
X73073Y-46004D01*
X73181Y-46049D01*
X73299Y-46049D01*
X73354Y-46026D01*
X73412Y-46050D01*
X73478Y-46050D01*
X73714Y-46050D01*
X73741Y-46038D01*
X73781Y-46078D01*
X73889Y-46123D01*
X74007Y-46123D01*
X74115Y-46078D01*
X74144Y-46050D01*
X74186Y-46050D01*
X74264Y-46050D01*
G54D10*
G36*
X74423Y-48038D02*
X74416Y-48038D01*
X74416Y-48045D01*
X74206Y-48045D01*
X74206Y-48038D01*
X74198Y-48038D01*
X74198Y-47828D01*
X74206Y-47828D01*
X74206Y-47820D01*
X74416Y-47820D01*
X74416Y-47828D01*
X74423Y-47828D01*
X74423Y-48038D01*
X74423Y-48038D01*
G37*
G54D55*
X74423Y-48038D02*
X74416Y-48038D01*
X74416Y-48045D01*
X74206Y-48045D01*
X74206Y-48038D01*
X74198Y-48038D01*
X74198Y-47828D01*
X74206Y-47828D01*
X74206Y-47820D01*
X74416Y-47820D01*
X74416Y-47828D01*
X74423Y-47828D01*
X74423Y-48038D01*
G54D10*
G36*
X74722Y-36981D02*
X74715Y-36981D01*
X74439Y-36981D01*
X74381Y-37005D01*
X74366Y-37005D01*
X74303Y-37017D01*
X74290Y-37020D01*
X74225Y-37063D01*
X74178Y-37110D01*
X74175Y-37107D01*
X74067Y-37062D01*
X73949Y-37062D01*
X73841Y-37107D01*
X73758Y-37190D01*
X73713Y-37298D01*
X73713Y-37416D01*
X73758Y-37524D01*
X73840Y-37607D01*
X73949Y-37652D01*
X74039Y-37652D01*
X74072Y-37703D01*
X74278Y-37909D01*
X74314Y-37933D01*
X73824Y-37933D01*
X73697Y-37806D01*
X73716Y-37760D01*
X73716Y-37695D01*
X73716Y-37445D01*
X73691Y-37384D01*
X73645Y-37338D01*
X73584Y-37313D01*
X73518Y-37313D01*
X73068Y-37313D01*
X73008Y-37338D01*
X72961Y-37384D01*
X72955Y-37398D01*
X72521Y-36964D01*
X72457Y-36921D01*
X72440Y-36918D01*
X72440Y-36848D01*
X72433Y-36832D01*
X72609Y-36832D01*
X72599Y-36855D01*
X72599Y-36973D01*
X72644Y-37081D01*
X72727Y-37164D01*
X72835Y-37209D01*
X72952Y-37209D01*
X72956Y-37208D01*
X72961Y-37221D01*
X73008Y-37268D01*
X73068Y-37293D01*
X73134Y-37293D01*
X73584Y-37293D01*
X73645Y-37268D01*
X73691Y-37221D01*
X73716Y-37160D01*
X73716Y-37095D01*
X73716Y-36845D01*
X73711Y-36832D01*
X74426Y-36832D01*
X74401Y-36843D01*
X74366Y-36878D01*
X74347Y-36924D01*
X74347Y-36947D01*
X74378Y-36978D01*
X74541Y-36978D01*
X74541Y-36949D01*
X74679Y-36949D01*
X74679Y-36978D01*
X74722Y-36978D01*
X74722Y-36981D01*
X74722Y-36981D01*
G37*
G54D55*
X74722Y-36981D02*
X74715Y-36981D01*
X74439Y-36981D01*
X74381Y-37005D01*
X74366Y-37005D01*
X74303Y-37017D01*
X74290Y-37020D01*
X74225Y-37063D01*
X74178Y-37110D01*
X74175Y-37107D01*
X74067Y-37062D01*
X73949Y-37062D01*
X73841Y-37107D01*
X73758Y-37190D01*
X73713Y-37298D01*
X73713Y-37416D01*
X73758Y-37524D01*
X73840Y-37607D01*
X73949Y-37652D01*
X74039Y-37652D01*
X74072Y-37703D01*
X74278Y-37909D01*
X74314Y-37933D01*
X73824Y-37933D01*
X73697Y-37806D01*
X73716Y-37760D01*
X73716Y-37695D01*
X73716Y-37445D01*
X73691Y-37384D01*
X73645Y-37338D01*
X73584Y-37313D01*
X73518Y-37313D01*
X73068Y-37313D01*
X73008Y-37338D01*
X72961Y-37384D01*
X72955Y-37398D01*
X72521Y-36964D01*
X72457Y-36921D01*
X72440Y-36918D01*
X72440Y-36848D01*
X72433Y-36832D01*
X72609Y-36832D01*
X72599Y-36855D01*
X72599Y-36973D01*
X72644Y-37081D01*
X72727Y-37164D01*
X72835Y-37209D01*
X72952Y-37209D01*
X72956Y-37208D01*
X72961Y-37221D01*
X73008Y-37268D01*
X73068Y-37293D01*
X73134Y-37293D01*
X73584Y-37293D01*
X73645Y-37268D01*
X73691Y-37221D01*
X73716Y-37160D01*
X73716Y-37095D01*
X73716Y-36845D01*
X73711Y-36832D01*
X74426Y-36832D01*
X74401Y-36843D01*
X74366Y-36878D01*
X74347Y-36924D01*
X74347Y-36947D01*
X74378Y-36978D01*
X74541Y-36978D01*
X74541Y-36949D01*
X74679Y-36949D01*
X74679Y-36978D01*
X74722Y-36978D01*
X74722Y-36981D01*
G54D10*
G36*
X75361Y-39594D02*
X75361Y-39649D01*
X73981Y-39649D01*
X73981Y-39522D01*
X73981Y-39389D01*
X73823Y-39389D01*
X73792Y-39421D01*
X73792Y-39453D01*
X73811Y-39499D01*
X73846Y-39535D01*
X73892Y-39554D01*
X73942Y-39554D01*
X73950Y-39554D01*
X73981Y-39522D01*
X73981Y-39649D01*
X73218Y-39649D01*
X73567Y-39301D01*
X73637Y-39301D01*
X73746Y-39256D01*
X73774Y-39227D01*
X73798Y-39232D01*
X73792Y-39246D01*
X73792Y-39279D01*
X73823Y-39311D01*
X73981Y-39311D01*
X73981Y-39279D01*
X74109Y-39279D01*
X74109Y-39311D01*
X74146Y-39311D01*
X74146Y-39389D01*
X74109Y-39389D01*
X74109Y-39522D01*
X74140Y-39554D01*
X74148Y-39554D01*
X74151Y-39554D01*
X74165Y-39588D01*
X74200Y-39623D01*
X74246Y-39642D01*
X74296Y-39642D01*
X74568Y-39642D01*
X74599Y-39611D01*
X74599Y-38982D01*
X74591Y-38982D01*
X74591Y-38772D01*
X74599Y-38772D01*
X74599Y-38765D01*
X74809Y-38765D01*
X74809Y-38772D01*
X74817Y-38772D01*
X74817Y-38982D01*
X74809Y-38982D01*
X74809Y-39611D01*
X74840Y-39642D01*
X75112Y-39642D01*
X75162Y-39642D01*
X75208Y-39623D01*
X75238Y-39594D01*
X75269Y-39594D01*
X75361Y-39594D01*
X75361Y-39594D01*
G37*
G54D55*
X75361Y-39594D02*
X75361Y-39649D01*
X73981Y-39649D01*
X73981Y-39522D01*
X73981Y-39389D01*
X73823Y-39389D01*
X73792Y-39421D01*
X73792Y-39453D01*
X73811Y-39499D01*
X73846Y-39535D01*
X73892Y-39554D01*
X73942Y-39554D01*
X73950Y-39554D01*
X73981Y-39522D01*
X73981Y-39649D01*
X73218Y-39649D01*
X73567Y-39301D01*
X73637Y-39301D01*
X73746Y-39256D01*
X73774Y-39227D01*
X73798Y-39232D01*
X73792Y-39246D01*
X73792Y-39279D01*
X73823Y-39311D01*
X73981Y-39311D01*
X73981Y-39279D01*
X74109Y-39279D01*
X74109Y-39311D01*
X74146Y-39311D01*
X74146Y-39389D01*
X74109Y-39389D01*
X74109Y-39522D01*
X74140Y-39554D01*
X74148Y-39554D01*
X74151Y-39554D01*
X74165Y-39588D01*
X74200Y-39623D01*
X74246Y-39642D01*
X74296Y-39642D01*
X74568Y-39642D01*
X74599Y-39611D01*
X74599Y-38982D01*
X74591Y-38982D01*
X74591Y-38772D01*
X74599Y-38772D01*
X74599Y-38765D01*
X74809Y-38765D01*
X74809Y-38772D01*
X74817Y-38772D01*
X74817Y-38982D01*
X74809Y-38982D01*
X74809Y-39611D01*
X74840Y-39642D01*
X75112Y-39642D01*
X75162Y-39642D01*
X75208Y-39623D01*
X75238Y-39594D01*
X75269Y-39594D01*
X75361Y-39594D01*
G54D10*
G36*
X75445Y-40744D02*
X75404Y-40736D01*
X74181Y-40736D01*
X74105Y-40751D01*
X74040Y-40794D01*
X73786Y-41049D01*
X73756Y-40976D01*
X73673Y-40893D01*
X73638Y-40879D01*
X73714Y-40879D01*
X73760Y-40860D01*
X73795Y-40825D01*
X73814Y-40779D01*
X73814Y-40729D01*
X73814Y-40490D01*
X73783Y-40459D01*
X73394Y-40459D01*
X73394Y-40467D01*
X73184Y-40467D01*
X73184Y-40459D01*
X73176Y-40459D01*
X73176Y-40249D01*
X73184Y-40249D01*
X73184Y-40241D01*
X73394Y-40241D01*
X73394Y-40249D01*
X73783Y-40249D01*
X73814Y-40218D01*
X73814Y-40049D01*
X75416Y-40049D01*
X75445Y-40078D01*
X75445Y-40744D01*
X75445Y-40744D01*
G37*
G54D55*
X75445Y-40744D02*
X75404Y-40736D01*
X74181Y-40736D01*
X74105Y-40751D01*
X74040Y-40794D01*
X73786Y-41049D01*
X73756Y-40976D01*
X73673Y-40893D01*
X73638Y-40879D01*
X73714Y-40879D01*
X73760Y-40860D01*
X73795Y-40825D01*
X73814Y-40779D01*
X73814Y-40729D01*
X73814Y-40490D01*
X73783Y-40459D01*
X73394Y-40459D01*
X73394Y-40467D01*
X73184Y-40467D01*
X73184Y-40459D01*
X73176Y-40459D01*
X73176Y-40249D01*
X73184Y-40249D01*
X73184Y-40241D01*
X73394Y-40241D01*
X73394Y-40249D01*
X73783Y-40249D01*
X73814Y-40218D01*
X73814Y-40049D01*
X75416Y-40049D01*
X75445Y-40078D01*
X75445Y-40744D01*
G54D10*
G36*
X75599Y-49148D02*
X75479Y-49267D01*
X75479Y-48702D01*
X75479Y-48680D01*
X75448Y-48649D01*
X75291Y-48649D01*
X75291Y-48770D01*
X75322Y-48802D01*
X75379Y-48802D01*
X75425Y-48783D01*
X75460Y-48747D01*
X75479Y-48702D01*
X75479Y-49267D01*
X75117Y-49630D01*
X75060Y-49606D01*
X75012Y-49606D01*
X75012Y-49556D01*
X75141Y-49427D01*
X75184Y-49362D01*
X75184Y-49362D01*
X75187Y-49349D01*
X75199Y-49286D01*
X75200Y-49286D01*
X75200Y-49057D01*
X75220Y-49009D01*
X75220Y-48943D01*
X75220Y-48691D01*
X75200Y-48645D01*
X75387Y-48645D01*
X75447Y-48620D01*
X75479Y-48588D01*
X75494Y-48573D01*
X75504Y-48549D01*
X75599Y-48549D01*
X75599Y-49148D01*
X75599Y-49148D01*
G37*
G54D55*
X75599Y-49148D02*
X75479Y-49267D01*
X75479Y-48702D01*
X75479Y-48680D01*
X75448Y-48649D01*
X75291Y-48649D01*
X75291Y-48770D01*
X75322Y-48802D01*
X75379Y-48802D01*
X75425Y-48783D01*
X75460Y-48747D01*
X75479Y-48702D01*
X75479Y-49267D01*
X75117Y-49630D01*
X75060Y-49606D01*
X75012Y-49606D01*
X75012Y-49556D01*
X75141Y-49427D01*
X75184Y-49362D01*
X75184Y-49362D01*
X75187Y-49349D01*
X75199Y-49286D01*
X75200Y-49286D01*
X75200Y-49057D01*
X75220Y-49009D01*
X75220Y-48943D01*
X75220Y-48691D01*
X75200Y-48645D01*
X75387Y-48645D01*
X75447Y-48620D01*
X75479Y-48588D01*
X75494Y-48573D01*
X75504Y-48549D01*
X75599Y-48549D01*
X75599Y-49148D01*
G54D10*
G36*
X75977Y-50206D02*
X75529Y-50206D01*
X75468Y-50231D01*
X75422Y-50278D01*
X75397Y-50339D01*
X75397Y-50404D01*
X75397Y-50654D01*
X75422Y-50715D01*
X75468Y-50761D01*
X75529Y-50786D01*
X75587Y-50786D01*
X75587Y-50962D01*
X75536Y-50982D01*
X75490Y-51029D01*
X75465Y-51089D01*
X75465Y-51155D01*
X75465Y-51419D01*
X75460Y-51420D01*
X75447Y-51422D01*
X75382Y-51466D01*
X75263Y-51585D01*
X75252Y-51574D01*
X75296Y-51530D01*
X75322Y-51469D01*
X75322Y-51403D01*
X75322Y-51089D01*
X75296Y-51029D01*
X75250Y-50982D01*
X75189Y-50957D01*
X75188Y-50957D01*
X75184Y-50941D01*
X75141Y-50876D01*
X75052Y-50786D01*
X75060Y-50786D01*
X75121Y-50761D01*
X75168Y-50715D01*
X75193Y-50654D01*
X75193Y-50589D01*
X75193Y-50339D01*
X75168Y-50278D01*
X75121Y-50231D01*
X75060Y-50206D01*
X74995Y-50206D01*
X74545Y-50206D01*
X74484Y-50231D01*
X74438Y-50278D01*
X74413Y-50339D01*
X74413Y-50404D01*
X74413Y-50654D01*
X74438Y-50715D01*
X74484Y-50761D01*
X74545Y-50786D01*
X74603Y-50786D01*
X74603Y-50820D01*
X74618Y-50897D01*
X74661Y-50962D01*
X74715Y-51016D01*
X74703Y-51029D01*
X74678Y-51089D01*
X74678Y-51155D01*
X74678Y-51469D01*
X74703Y-51530D01*
X74747Y-51574D01*
X74703Y-51619D01*
X74678Y-51679D01*
X74678Y-51745D01*
X74678Y-52059D01*
X74703Y-52120D01*
X74705Y-52122D01*
X73658Y-52122D01*
X73658Y-51060D01*
X73658Y-51010D01*
X73658Y-50900D01*
X73658Y-50627D01*
X73658Y-50516D01*
X73658Y-50467D01*
X73639Y-50421D01*
X73604Y-50386D01*
X73558Y-50367D01*
X73520Y-50367D01*
X73489Y-50398D01*
X73489Y-50658D01*
X73627Y-50658D01*
X73658Y-50627D01*
X73658Y-50900D01*
X73627Y-50868D01*
X73489Y-50868D01*
X73489Y-51129D01*
X73520Y-51160D01*
X73558Y-51160D01*
X73604Y-51141D01*
X73639Y-51106D01*
X73658Y-51060D01*
X73658Y-52122D01*
X70593Y-52122D01*
X70664Y-36832D01*
X71310Y-36832D01*
X71300Y-36856D01*
X71300Y-36906D01*
X71300Y-36970D01*
X71331Y-37001D01*
X71487Y-37001D01*
X71487Y-36993D01*
X71612Y-36993D01*
X71612Y-37001D01*
X71769Y-37001D01*
X71800Y-36970D01*
X71800Y-36906D01*
X71800Y-36856D01*
X71790Y-36832D01*
X71866Y-36832D01*
X71860Y-36848D01*
X71860Y-36914D01*
X71860Y-37364D01*
X71885Y-37424D01*
X71931Y-37471D01*
X71992Y-37496D01*
X72058Y-37496D01*
X72308Y-37496D01*
X72368Y-37471D01*
X72415Y-37424D01*
X72415Y-37424D01*
X72850Y-37859D01*
X72915Y-37902D01*
X72992Y-37918D01*
X73243Y-37918D01*
X73600Y-38274D01*
X73614Y-38284D01*
X73361Y-38284D01*
X73348Y-38252D01*
X73302Y-38206D01*
X73241Y-38181D01*
X73175Y-38181D01*
X72624Y-38181D01*
X72564Y-38206D01*
X72517Y-38252D01*
X72492Y-38313D01*
X72492Y-38379D01*
X72492Y-38654D01*
X72517Y-38715D01*
X72564Y-38761D01*
X72606Y-38779D01*
X72564Y-38797D01*
X72517Y-38843D01*
X72492Y-38904D01*
X72492Y-38969D01*
X72492Y-39245D01*
X72517Y-39306D01*
X72564Y-39352D01*
X72624Y-39377D01*
X72690Y-39377D01*
X72924Y-39377D01*
X72793Y-39509D01*
X72434Y-39509D01*
X72358Y-39524D01*
X72336Y-39538D01*
X72293Y-39567D01*
X72113Y-39747D01*
X72113Y-39304D01*
X72113Y-39238D01*
X72113Y-38648D01*
X72088Y-38587D01*
X72082Y-38580D01*
X72082Y-38183D01*
X72051Y-38029D01*
X71998Y-37992D01*
X71850Y-38140D01*
X71850Y-37843D01*
X71812Y-37791D01*
X71800Y-37788D01*
X71800Y-37356D01*
X71800Y-37306D01*
X71800Y-37242D01*
X71769Y-37211D01*
X71612Y-37211D01*
X71612Y-37425D01*
X71644Y-37456D01*
X71700Y-37456D01*
X71746Y-37437D01*
X71781Y-37402D01*
X71800Y-37356D01*
X71800Y-37788D01*
X71648Y-37760D01*
X71494Y-37791D01*
X71487Y-37800D01*
X71487Y-37425D01*
X71487Y-37211D01*
X71331Y-37211D01*
X71300Y-37242D01*
X71300Y-37306D01*
X71300Y-37356D01*
X71319Y-37402D01*
X71354Y-37437D01*
X71400Y-37456D01*
X71456Y-37456D01*
X71487Y-37425D01*
X71487Y-37800D01*
X71456Y-37843D01*
X71653Y-38040D01*
X71850Y-37843D01*
X71850Y-38140D01*
X71802Y-38188D01*
X71998Y-38385D01*
X72051Y-38348D01*
X72082Y-38183D01*
X72082Y-38580D01*
X72042Y-38541D01*
X71981Y-38516D01*
X71915Y-38516D01*
X71832Y-38516D01*
X71653Y-38337D01*
X71505Y-38485D01*
X71505Y-38188D01*
X71308Y-37992D01*
X71255Y-38029D01*
X71225Y-38194D01*
X71255Y-38348D01*
X71308Y-38385D01*
X71505Y-38188D01*
X71505Y-38485D01*
X71474Y-38516D01*
X71325Y-38516D01*
X71264Y-38541D01*
X71218Y-38587D01*
X71193Y-38648D01*
X71193Y-38713D01*
X71193Y-39304D01*
X71218Y-39365D01*
X71264Y-39411D01*
X71325Y-39436D01*
X71391Y-39436D01*
X71981Y-39436D01*
X72042Y-39411D01*
X72088Y-39365D01*
X72113Y-39304D01*
X72113Y-39747D01*
X72021Y-39839D01*
X71902Y-39789D01*
X71677Y-39789D01*
X71469Y-39875D01*
X71310Y-40033D01*
X71224Y-40241D01*
X71224Y-40466D01*
X71238Y-40501D01*
X70959Y-40780D01*
X70898Y-40873D01*
X70894Y-40891D01*
X70876Y-40982D01*
X70876Y-40982D01*
X70876Y-43110D01*
X70876Y-43110D01*
X70894Y-43201D01*
X70898Y-43219D01*
X70959Y-43311D01*
X71353Y-43705D01*
X71353Y-43705D01*
X71353Y-43705D01*
X71415Y-43746D01*
X71446Y-43767D01*
X71446Y-43767D01*
X71555Y-43788D01*
X71555Y-43788D01*
X71555Y-43788D01*
X71850Y-43788D01*
X71850Y-43857D01*
X71895Y-43966D01*
X71978Y-44049D01*
X72052Y-44079D01*
X71255Y-44877D01*
X71193Y-44969D01*
X71189Y-44987D01*
X71171Y-45078D01*
X71171Y-45078D01*
X71171Y-45499D01*
X71171Y-47280D01*
X71171Y-49409D01*
X71171Y-49409D01*
X71189Y-49500D01*
X71193Y-49518D01*
X71255Y-49610D01*
X72042Y-50398D01*
X72135Y-50460D01*
X72167Y-50466D01*
X72167Y-50524D01*
X72167Y-51068D01*
X72192Y-51128D01*
X72239Y-51175D01*
X72299Y-51200D01*
X72365Y-51200D01*
X72542Y-51200D01*
X72549Y-51197D01*
X72555Y-51200D01*
X72621Y-51200D01*
X72798Y-51200D01*
X72805Y-51197D01*
X72811Y-51200D01*
X72877Y-51200D01*
X73054Y-51200D01*
X73061Y-51197D01*
X73067Y-51200D01*
X73133Y-51200D01*
X73310Y-51200D01*
X73371Y-51175D01*
X73417Y-51128D01*
X73442Y-51068D01*
X73442Y-51002D01*
X73442Y-50459D01*
X73417Y-50398D01*
X73371Y-50352D01*
X73310Y-50327D01*
X73275Y-50327D01*
X73943Y-49659D01*
X73987Y-49767D01*
X74070Y-49850D01*
X74178Y-49895D01*
X74296Y-49895D01*
X74404Y-49850D01*
X74413Y-49842D01*
X74413Y-50054D01*
X74438Y-50115D01*
X74484Y-50161D01*
X74545Y-50186D01*
X74610Y-50186D01*
X75060Y-50186D01*
X75121Y-50161D01*
X75168Y-50115D01*
X75179Y-50087D01*
X75209Y-50081D01*
X75274Y-50038D01*
X75397Y-49915D01*
X75397Y-50054D01*
X75422Y-50115D01*
X75468Y-50161D01*
X75529Y-50186D01*
X75595Y-50186D01*
X75977Y-50186D01*
X75977Y-50206D01*
X75977Y-50206D01*
G37*
G54D55*
X75977Y-50206D02*
X75529Y-50206D01*
X75468Y-50231D01*
X75422Y-50278D01*
X75397Y-50339D01*
X75397Y-50404D01*
X75397Y-50654D01*
X75422Y-50715D01*
X75468Y-50761D01*
X75529Y-50786D01*
X75587Y-50786D01*
X75587Y-50962D01*
X75536Y-50982D01*
X75490Y-51029D01*
X75465Y-51089D01*
X75465Y-51155D01*
X75465Y-51419D01*
X75460Y-51420D01*
X75447Y-51422D01*
X75382Y-51466D01*
X75263Y-51585D01*
X75252Y-51574D01*
X75296Y-51530D01*
X75322Y-51469D01*
X75322Y-51403D01*
X75322Y-51089D01*
X75296Y-51029D01*
X75250Y-50982D01*
X75189Y-50957D01*
X75188Y-50957D01*
X75184Y-50941D01*
X75141Y-50876D01*
X75052Y-50786D01*
X75060Y-50786D01*
X75121Y-50761D01*
X75168Y-50715D01*
X75193Y-50654D01*
X75193Y-50589D01*
X75193Y-50339D01*
X75168Y-50278D01*
X75121Y-50231D01*
X75060Y-50206D01*
X74995Y-50206D01*
X74545Y-50206D01*
X74484Y-50231D01*
X74438Y-50278D01*
X74413Y-50339D01*
X74413Y-50404D01*
X74413Y-50654D01*
X74438Y-50715D01*
X74484Y-50761D01*
X74545Y-50786D01*
X74603Y-50786D01*
X74603Y-50820D01*
X74618Y-50897D01*
X74661Y-50962D01*
X74715Y-51016D01*
X74703Y-51029D01*
X74678Y-51089D01*
X74678Y-51155D01*
X74678Y-51469D01*
X74703Y-51530D01*
X74747Y-51574D01*
X74703Y-51619D01*
X74678Y-51679D01*
X74678Y-51745D01*
X74678Y-52059D01*
X74703Y-52120D01*
X74705Y-52122D01*
X73658Y-52122D01*
X73658Y-51060D01*
X73658Y-51010D01*
X73658Y-50900D01*
X73658Y-50627D01*
X73658Y-50516D01*
X73658Y-50467D01*
X73639Y-50421D01*
X73604Y-50386D01*
X73558Y-50367D01*
X73520Y-50367D01*
X73489Y-50398D01*
X73489Y-50658D01*
X73627Y-50658D01*
X73658Y-50627D01*
X73658Y-50900D01*
X73627Y-50868D01*
X73489Y-50868D01*
X73489Y-51129D01*
X73520Y-51160D01*
X73558Y-51160D01*
X73604Y-51141D01*
X73639Y-51106D01*
X73658Y-51060D01*
X73658Y-52122D01*
X70593Y-52122D01*
X70664Y-36832D01*
X71310Y-36832D01*
X71300Y-36856D01*
X71300Y-36906D01*
X71300Y-36970D01*
X71331Y-37001D01*
X71487Y-37001D01*
X71487Y-36993D01*
X71612Y-36993D01*
X71612Y-37001D01*
X71769Y-37001D01*
X71800Y-36970D01*
X71800Y-36906D01*
X71800Y-36856D01*
X71790Y-36832D01*
X71866Y-36832D01*
X71860Y-36848D01*
X71860Y-36914D01*
X71860Y-37364D01*
X71885Y-37424D01*
X71931Y-37471D01*
X71992Y-37496D01*
X72058Y-37496D01*
X72308Y-37496D01*
X72368Y-37471D01*
X72415Y-37424D01*
X72415Y-37424D01*
X72850Y-37859D01*
X72915Y-37902D01*
X72992Y-37918D01*
X73243Y-37918D01*
X73600Y-38274D01*
X73614Y-38284D01*
X73361Y-38284D01*
X73348Y-38252D01*
X73302Y-38206D01*
X73241Y-38181D01*
X73175Y-38181D01*
X72624Y-38181D01*
X72564Y-38206D01*
X72517Y-38252D01*
X72492Y-38313D01*
X72492Y-38379D01*
X72492Y-38654D01*
X72517Y-38715D01*
X72564Y-38761D01*
X72606Y-38779D01*
X72564Y-38797D01*
X72517Y-38843D01*
X72492Y-38904D01*
X72492Y-38969D01*
X72492Y-39245D01*
X72517Y-39306D01*
X72564Y-39352D01*
X72624Y-39377D01*
X72690Y-39377D01*
X72924Y-39377D01*
X72793Y-39509D01*
X72434Y-39509D01*
X72358Y-39524D01*
X72336Y-39538D01*
X72293Y-39567D01*
X72113Y-39747D01*
X72113Y-39304D01*
X72113Y-39238D01*
X72113Y-38648D01*
X72088Y-38587D01*
X72082Y-38580D01*
X72082Y-38183D01*
X72051Y-38029D01*
X71998Y-37992D01*
X71850Y-38140D01*
X71850Y-37843D01*
X71812Y-37791D01*
X71800Y-37788D01*
X71800Y-37356D01*
X71800Y-37306D01*
X71800Y-37242D01*
X71769Y-37211D01*
X71612Y-37211D01*
X71612Y-37425D01*
X71644Y-37456D01*
X71700Y-37456D01*
X71746Y-37437D01*
X71781Y-37402D01*
X71800Y-37356D01*
X71800Y-37788D01*
X71648Y-37760D01*
X71494Y-37791D01*
X71487Y-37800D01*
X71487Y-37425D01*
X71487Y-37211D01*
X71331Y-37211D01*
X71300Y-37242D01*
X71300Y-37306D01*
X71300Y-37356D01*
X71319Y-37402D01*
X71354Y-37437D01*
X71400Y-37456D01*
X71456Y-37456D01*
X71487Y-37425D01*
X71487Y-37800D01*
X71456Y-37843D01*
X71653Y-38040D01*
X71850Y-37843D01*
X71850Y-38140D01*
X71802Y-38188D01*
X71998Y-38385D01*
X72051Y-38348D01*
X72082Y-38183D01*
X72082Y-38580D01*
X72042Y-38541D01*
X71981Y-38516D01*
X71915Y-38516D01*
X71832Y-38516D01*
X71653Y-38337D01*
X71505Y-38485D01*
X71505Y-38188D01*
X71308Y-37992D01*
X71255Y-38029D01*
X71225Y-38194D01*
X71255Y-38348D01*
X71308Y-38385D01*
X71505Y-38188D01*
X71505Y-38485D01*
X71474Y-38516D01*
X71325Y-38516D01*
X71264Y-38541D01*
X71218Y-38587D01*
X71193Y-38648D01*
X71193Y-38713D01*
X71193Y-39304D01*
X71218Y-39365D01*
X71264Y-39411D01*
X71325Y-39436D01*
X71391Y-39436D01*
X71981Y-39436D01*
X72042Y-39411D01*
X72088Y-39365D01*
X72113Y-39304D01*
X72113Y-39747D01*
X72021Y-39839D01*
X71902Y-39789D01*
X71677Y-39789D01*
X71469Y-39875D01*
X71310Y-40033D01*
X71224Y-40241D01*
X71224Y-40466D01*
X71238Y-40501D01*
X70959Y-40780D01*
X70898Y-40873D01*
X70894Y-40891D01*
X70876Y-40982D01*
X70876Y-40982D01*
X70876Y-43110D01*
X70876Y-43110D01*
X70894Y-43201D01*
X70898Y-43219D01*
X70959Y-43311D01*
X71353Y-43705D01*
X71353Y-43705D01*
X71353Y-43705D01*
X71415Y-43746D01*
X71446Y-43767D01*
X71446Y-43767D01*
X71555Y-43788D01*
X71555Y-43788D01*
X71555Y-43788D01*
X71850Y-43788D01*
X71850Y-43857D01*
X71895Y-43966D01*
X71978Y-44049D01*
X72052Y-44079D01*
X71255Y-44877D01*
X71193Y-44969D01*
X71189Y-44987D01*
X71171Y-45078D01*
X71171Y-45078D01*
X71171Y-45499D01*
X71171Y-47280D01*
X71171Y-49409D01*
X71171Y-49409D01*
X71189Y-49500D01*
X71193Y-49518D01*
X71255Y-49610D01*
X72042Y-50398D01*
X72135Y-50460D01*
X72167Y-50466D01*
X72167Y-50524D01*
X72167Y-51068D01*
X72192Y-51128D01*
X72239Y-51175D01*
X72299Y-51200D01*
X72365Y-51200D01*
X72542Y-51200D01*
X72549Y-51197D01*
X72555Y-51200D01*
X72621Y-51200D01*
X72798Y-51200D01*
X72805Y-51197D01*
X72811Y-51200D01*
X72877Y-51200D01*
X73054Y-51200D01*
X73061Y-51197D01*
X73067Y-51200D01*
X73133Y-51200D01*
X73310Y-51200D01*
X73371Y-51175D01*
X73417Y-51128D01*
X73442Y-51068D01*
X73442Y-51002D01*
X73442Y-50459D01*
X73417Y-50398D01*
X73371Y-50352D01*
X73310Y-50327D01*
X73275Y-50327D01*
X73943Y-49659D01*
X73987Y-49767D01*
X74070Y-49850D01*
X74178Y-49895D01*
X74296Y-49895D01*
X74404Y-49850D01*
X74413Y-49842D01*
X74413Y-50054D01*
X74438Y-50115D01*
X74484Y-50161D01*
X74545Y-50186D01*
X74610Y-50186D01*
X75060Y-50186D01*
X75121Y-50161D01*
X75168Y-50115D01*
X75179Y-50087D01*
X75209Y-50081D01*
X75274Y-50038D01*
X75397Y-49915D01*
X75397Y-50054D01*
X75422Y-50115D01*
X75468Y-50161D01*
X75529Y-50186D01*
X75595Y-50186D01*
X75977Y-50186D01*
X75977Y-50206D01*
G54D10*
G36*
X76283Y-35007D02*
X75792Y-35498D01*
X75439Y-35498D01*
X75362Y-35513D01*
X75297Y-35557D01*
X75085Y-35769D01*
X75042Y-35834D01*
X75027Y-35910D01*
X75027Y-36845D01*
X75042Y-36921D01*
X75078Y-36976D01*
X75078Y-37198D01*
X75087Y-37198D01*
X75087Y-37296D01*
X75112Y-37357D01*
X75112Y-37358D01*
X75112Y-37408D01*
X75078Y-37408D01*
X75078Y-37416D01*
X74921Y-37416D01*
X74921Y-37408D01*
X74913Y-37408D01*
X74913Y-37309D01*
X74910Y-37303D01*
X74913Y-37296D01*
X74913Y-37231D01*
X74913Y-37198D01*
X74921Y-37198D01*
X74921Y-36937D01*
X74890Y-36906D01*
X74873Y-36906D01*
X74873Y-36903D01*
X74864Y-36903D01*
X74853Y-36878D01*
X74818Y-36843D01*
X74793Y-36832D01*
X75021Y-36832D01*
X75021Y-34349D01*
X75338Y-34349D01*
X75332Y-34355D01*
X75307Y-34415D01*
X75307Y-34481D01*
X75307Y-34875D01*
X75332Y-34935D01*
X75378Y-34982D01*
X75439Y-35007D01*
X75505Y-35007D01*
X76283Y-35007D01*
X76283Y-35007D01*
G37*
G54D55*
X76283Y-35007D02*
X75792Y-35498D01*
X75439Y-35498D01*
X75362Y-35513D01*
X75297Y-35557D01*
X75085Y-35769D01*
X75042Y-35834D01*
X75027Y-35910D01*
X75027Y-36845D01*
X75042Y-36921D01*
X75078Y-36976D01*
X75078Y-37198D01*
X75087Y-37198D01*
X75087Y-37296D01*
X75112Y-37357D01*
X75112Y-37358D01*
X75112Y-37408D01*
X75078Y-37408D01*
X75078Y-37416D01*
X74921Y-37416D01*
X74921Y-37408D01*
X74913Y-37408D01*
X74913Y-37309D01*
X74910Y-37303D01*
X74913Y-37296D01*
X74913Y-37231D01*
X74913Y-37198D01*
X74921Y-37198D01*
X74921Y-36937D01*
X74890Y-36906D01*
X74873Y-36906D01*
X74873Y-36903D01*
X74864Y-36903D01*
X74853Y-36878D01*
X74818Y-36843D01*
X74793Y-36832D01*
X75021Y-36832D01*
X75021Y-34349D01*
X75338Y-34349D01*
X75332Y-34355D01*
X75307Y-34415D01*
X75307Y-34481D01*
X75307Y-34875D01*
X75332Y-34935D01*
X75378Y-34982D01*
X75439Y-35007D01*
X75505Y-35007D01*
X76283Y-35007D01*
G54D10*
G36*
X78910Y-43489D02*
X77626Y-44773D01*
X77559Y-44773D01*
X77482Y-44789D01*
X77418Y-44832D01*
X77374Y-44897D01*
X77371Y-44913D01*
X77329Y-44913D01*
X77268Y-44939D01*
X77263Y-44944D01*
X77258Y-44939D01*
X77198Y-44913D01*
X77168Y-44913D01*
X77168Y-44853D01*
X78724Y-43297D01*
X78767Y-43232D01*
X78778Y-43176D01*
X78808Y-43176D01*
X78799Y-43197D01*
X78799Y-43314D01*
X78844Y-43423D01*
X78910Y-43489D01*
X78910Y-43489D01*
G37*
G54D55*
X78910Y-43489D02*
X77626Y-44773D01*
X77559Y-44773D01*
X77482Y-44789D01*
X77418Y-44832D01*
X77374Y-44897D01*
X77371Y-44913D01*
X77329Y-44913D01*
X77268Y-44939D01*
X77263Y-44944D01*
X77258Y-44939D01*
X77198Y-44913D01*
X77168Y-44913D01*
X77168Y-44853D01*
X78724Y-43297D01*
X78767Y-43232D01*
X78778Y-43176D01*
X78808Y-43176D01*
X78799Y-43197D01*
X78799Y-43314D01*
X78844Y-43423D01*
X78910Y-43489D01*
G54D10*
G36*
X78951Y-41345D02*
X78943Y-41345D01*
X78943Y-42703D01*
X78931Y-42711D01*
X78929Y-42715D01*
X78899Y-42700D01*
X78871Y-42724D01*
X78871Y-42841D01*
X78864Y-42874D01*
X78864Y-42991D01*
X78871Y-43024D01*
X78871Y-43045D01*
X78806Y-43045D01*
X78806Y-43024D01*
X78812Y-42991D01*
X78812Y-42874D01*
X78806Y-42841D01*
X78806Y-42724D01*
X78777Y-42700D01*
X78747Y-42715D01*
X78745Y-42711D01*
X78733Y-42703D01*
X78733Y-41345D01*
X77374Y-41345D01*
X77366Y-41333D01*
X77363Y-41330D01*
X77378Y-41301D01*
X77354Y-41272D01*
X77237Y-41272D01*
X77204Y-41266D01*
X77086Y-41266D01*
X77086Y-41266D01*
X77086Y-41207D01*
X77086Y-41142D01*
X77086Y-41082D01*
X77086Y-41016D01*
X76937Y-41016D01*
X76912Y-41045D01*
X76936Y-41090D01*
X76958Y-41112D01*
X76936Y-41133D01*
X76912Y-41178D01*
X76937Y-41207D01*
X77086Y-41207D01*
X77086Y-41266D01*
X77054Y-41272D01*
X76937Y-41272D01*
X76924Y-41287D01*
X76868Y-41264D01*
X76864Y-41264D01*
X76822Y-41162D01*
X76739Y-41079D01*
X76630Y-41034D01*
X76513Y-41034D01*
X76404Y-41079D01*
X76321Y-41161D01*
X76276Y-41270D01*
X76276Y-41277D01*
X75845Y-40846D01*
X75845Y-40078D01*
X76252Y-39670D01*
X76252Y-39670D01*
X76295Y-39606D01*
X76295Y-39606D01*
X76298Y-39593D01*
X76310Y-39529D01*
X76310Y-39529D01*
X76310Y-39262D01*
X76295Y-39185D01*
X76252Y-39121D01*
X76241Y-39109D01*
X76241Y-39068D01*
X76296Y-39045D01*
X76342Y-38999D01*
X76367Y-38938D01*
X76367Y-38873D01*
X76367Y-38423D01*
X76342Y-38362D01*
X76296Y-38316D01*
X76235Y-38291D01*
X76170Y-38291D01*
X75920Y-38291D01*
X75859Y-38316D01*
X75813Y-38362D01*
X75787Y-38423D01*
X75787Y-38488D01*
X75787Y-38520D01*
X75655Y-38520D01*
X75657Y-38517D01*
X75657Y-38451D01*
X75657Y-38293D01*
X75632Y-38233D01*
X75585Y-38186D01*
X75524Y-38161D01*
X75505Y-38161D01*
X75335Y-37991D01*
X75299Y-37967D01*
X75786Y-37967D01*
X75863Y-37952D01*
X75927Y-37909D01*
X76160Y-37677D01*
X76203Y-37612D01*
X76203Y-37612D01*
X76205Y-37599D01*
X76218Y-37535D01*
X76218Y-37535D01*
X76218Y-37532D01*
X76539Y-37212D01*
X76539Y-37222D01*
X76544Y-37222D01*
X76553Y-37245D01*
X76539Y-37279D01*
X76539Y-37307D01*
X76570Y-37338D01*
X76795Y-37338D01*
X76795Y-37279D01*
X76795Y-37210D01*
X76795Y-37151D01*
X76787Y-37151D01*
X76787Y-37082D01*
X76795Y-37082D01*
X76795Y-36956D01*
X77330Y-36420D01*
X77590Y-36420D01*
X77590Y-36450D01*
X77616Y-36510D01*
X77662Y-36557D01*
X77723Y-36582D01*
X77788Y-36582D01*
X78700Y-36582D01*
X77261Y-38021D01*
X77052Y-38230D01*
X77052Y-38196D01*
X77007Y-38087D01*
X76996Y-38076D01*
X77005Y-38076D01*
X77005Y-38045D01*
X77036Y-38076D01*
X77161Y-38076D01*
X77206Y-38057D01*
X77242Y-38022D01*
X77261Y-37976D01*
X77261Y-37948D01*
X77261Y-37817D01*
X77261Y-37789D01*
X77246Y-37755D01*
X77261Y-37720D01*
X77261Y-37692D01*
X77261Y-37561D01*
X77261Y-37533D01*
X77247Y-37500D01*
X77261Y-37466D01*
X77261Y-37438D01*
X77261Y-37307D01*
X77261Y-37279D01*
X77246Y-37245D01*
X77261Y-37210D01*
X77261Y-37182D01*
X77261Y-37051D01*
X77261Y-37023D01*
X77242Y-36977D01*
X77206Y-36942D01*
X77161Y-36923D01*
X77036Y-36923D01*
X77005Y-36954D01*
X77005Y-37082D01*
X77229Y-37082D01*
X77261Y-37051D01*
X77261Y-37182D01*
X77229Y-37151D01*
X77005Y-37151D01*
X77005Y-37210D01*
X77005Y-37279D01*
X77005Y-37338D01*
X77229Y-37338D01*
X77261Y-37307D01*
X77261Y-37438D01*
X77229Y-37407D01*
X77005Y-37407D01*
X77005Y-37464D01*
X77005Y-37535D01*
X77005Y-37592D01*
X77229Y-37592D01*
X77261Y-37561D01*
X77261Y-37692D01*
X77229Y-37661D01*
X77005Y-37661D01*
X77005Y-37720D01*
X77005Y-37789D01*
X77005Y-37848D01*
X77229Y-37848D01*
X77261Y-37817D01*
X77261Y-37948D01*
X77229Y-37917D01*
X77005Y-37917D01*
X77005Y-37951D01*
X76795Y-37951D01*
X76795Y-37917D01*
X76795Y-37848D01*
X76795Y-37789D01*
X76795Y-37720D01*
X76795Y-37661D01*
X76795Y-37592D01*
X76795Y-37535D01*
X76795Y-37464D01*
X76795Y-37407D01*
X76570Y-37407D01*
X76539Y-37438D01*
X76539Y-37466D01*
X76553Y-37500D01*
X76539Y-37533D01*
X76539Y-37561D01*
X76570Y-37592D01*
X76795Y-37592D01*
X76795Y-37661D01*
X76570Y-37661D01*
X76539Y-37692D01*
X76539Y-37720D01*
X76553Y-37755D01*
X76539Y-37789D01*
X76539Y-37817D01*
X76570Y-37848D01*
X76795Y-37848D01*
X76795Y-37917D01*
X76570Y-37917D01*
X76539Y-37948D01*
X76539Y-37976D01*
X76558Y-38022D01*
X76565Y-38029D01*
X76507Y-38087D01*
X76462Y-38195D01*
X76462Y-38313D01*
X76462Y-38314D01*
X76459Y-38316D01*
X76413Y-38362D01*
X76387Y-38423D01*
X76387Y-38488D01*
X76387Y-38938D01*
X76403Y-38975D01*
X76370Y-39054D01*
X76369Y-39172D01*
X76414Y-39280D01*
X76465Y-39330D01*
X76465Y-39972D01*
X76361Y-39972D01*
X76253Y-40017D01*
X76170Y-40100D01*
X76125Y-40208D01*
X76124Y-40326D01*
X76169Y-40434D01*
X76252Y-40517D01*
X76361Y-40562D01*
X76474Y-40562D01*
X76781Y-40869D01*
X76845Y-40913D01*
X76845Y-40913D01*
X76916Y-40927D01*
X76937Y-40951D01*
X77054Y-40951D01*
X77086Y-40958D01*
X77204Y-40958D01*
X77237Y-40951D01*
X77237Y-41016D01*
X77204Y-41016D01*
X77204Y-41082D01*
X77204Y-41142D01*
X77204Y-41207D01*
X77354Y-41207D01*
X77378Y-41178D01*
X77355Y-41135D01*
X78733Y-41135D01*
X78733Y-39776D01*
X78745Y-39768D01*
X78747Y-39764D01*
X78777Y-39780D01*
X78806Y-39755D01*
X78806Y-39638D01*
X78812Y-39605D01*
X78812Y-39488D01*
X78806Y-39455D01*
X78806Y-39434D01*
X78871Y-39434D01*
X78871Y-39455D01*
X78864Y-39488D01*
X78864Y-39605D01*
X78871Y-39638D01*
X78871Y-39755D01*
X78899Y-39780D01*
X78929Y-39764D01*
X78931Y-39768D01*
X78943Y-39776D01*
X78943Y-41135D01*
X78951Y-41135D01*
X78951Y-41345D01*
X78951Y-41345D01*
G37*
G54D55*
X78951Y-41345D02*
X78943Y-41345D01*
X78943Y-42703D01*
X78931Y-42711D01*
X78929Y-42715D01*
X78899Y-42700D01*
X78871Y-42724D01*
X78871Y-42841D01*
X78864Y-42874D01*
X78864Y-42991D01*
X78871Y-43024D01*
X78871Y-43045D01*
X78806Y-43045D01*
X78806Y-43024D01*
X78812Y-42991D01*
X78812Y-42874D01*
X78806Y-42841D01*
X78806Y-42724D01*
X78777Y-42700D01*
X78747Y-42715D01*
X78745Y-42711D01*
X78733Y-42703D01*
X78733Y-41345D01*
X77374Y-41345D01*
X77366Y-41333D01*
X77363Y-41330D01*
X77378Y-41301D01*
X77354Y-41272D01*
X77237Y-41272D01*
X77204Y-41266D01*
X77086Y-41266D01*
X77086Y-41266D01*
X77086Y-41207D01*
X77086Y-41142D01*
X77086Y-41082D01*
X77086Y-41016D01*
X76937Y-41016D01*
X76912Y-41045D01*
X76936Y-41090D01*
X76958Y-41112D01*
X76936Y-41133D01*
X76912Y-41178D01*
X76937Y-41207D01*
X77086Y-41207D01*
X77086Y-41266D01*
X77054Y-41272D01*
X76937Y-41272D01*
X76924Y-41287D01*
X76868Y-41264D01*
X76864Y-41264D01*
X76822Y-41162D01*
X76739Y-41079D01*
X76630Y-41034D01*
X76513Y-41034D01*
X76404Y-41079D01*
X76321Y-41161D01*
X76276Y-41270D01*
X76276Y-41277D01*
X75845Y-40846D01*
X75845Y-40078D01*
X76252Y-39670D01*
X76252Y-39670D01*
X76295Y-39606D01*
X76295Y-39606D01*
X76298Y-39593D01*
X76310Y-39529D01*
X76310Y-39529D01*
X76310Y-39262D01*
X76295Y-39185D01*
X76252Y-39121D01*
X76241Y-39109D01*
X76241Y-39068D01*
X76296Y-39045D01*
X76342Y-38999D01*
X76367Y-38938D01*
X76367Y-38873D01*
X76367Y-38423D01*
X76342Y-38362D01*
X76296Y-38316D01*
X76235Y-38291D01*
X76170Y-38291D01*
X75920Y-38291D01*
X75859Y-38316D01*
X75813Y-38362D01*
X75787Y-38423D01*
X75787Y-38488D01*
X75787Y-38520D01*
X75655Y-38520D01*
X75657Y-38517D01*
X75657Y-38451D01*
X75657Y-38293D01*
X75632Y-38233D01*
X75585Y-38186D01*
X75524Y-38161D01*
X75505Y-38161D01*
X75335Y-37991D01*
X75299Y-37967D01*
X75786Y-37967D01*
X75863Y-37952D01*
X75927Y-37909D01*
X76160Y-37677D01*
X76203Y-37612D01*
X76203Y-37612D01*
X76205Y-37599D01*
X76218Y-37535D01*
X76218Y-37535D01*
X76218Y-37532D01*
X76539Y-37212D01*
X76539Y-37222D01*
X76544Y-37222D01*
X76553Y-37245D01*
X76539Y-37279D01*
X76539Y-37307D01*
X76570Y-37338D01*
X76795Y-37338D01*
X76795Y-37279D01*
X76795Y-37210D01*
X76795Y-37151D01*
X76787Y-37151D01*
X76787Y-37082D01*
X76795Y-37082D01*
X76795Y-36956D01*
X77330Y-36420D01*
X77590Y-36420D01*
X77590Y-36450D01*
X77616Y-36510D01*
X77662Y-36557D01*
X77723Y-36582D01*
X77788Y-36582D01*
X78700Y-36582D01*
X77261Y-38021D01*
X77052Y-38230D01*
X77052Y-38196D01*
X77007Y-38087D01*
X76996Y-38076D01*
X77005Y-38076D01*
X77005Y-38045D01*
X77036Y-38076D01*
X77161Y-38076D01*
X77206Y-38057D01*
X77242Y-38022D01*
X77261Y-37976D01*
X77261Y-37948D01*
X77261Y-37817D01*
X77261Y-37789D01*
X77246Y-37755D01*
X77261Y-37720D01*
X77261Y-37692D01*
X77261Y-37561D01*
X77261Y-37533D01*
X77247Y-37500D01*
X77261Y-37466D01*
X77261Y-37438D01*
X77261Y-37307D01*
X77261Y-37279D01*
X77246Y-37245D01*
X77261Y-37210D01*
X77261Y-37182D01*
X77261Y-37051D01*
X77261Y-37023D01*
X77242Y-36977D01*
X77206Y-36942D01*
X77161Y-36923D01*
X77036Y-36923D01*
X77005Y-36954D01*
X77005Y-37082D01*
X77229Y-37082D01*
X77261Y-37051D01*
X77261Y-37182D01*
X77229Y-37151D01*
X77005Y-37151D01*
X77005Y-37210D01*
X77005Y-37279D01*
X77005Y-37338D01*
X77229Y-37338D01*
X77261Y-37307D01*
X77261Y-37438D01*
X77229Y-37407D01*
X77005Y-37407D01*
X77005Y-37464D01*
X77005Y-37535D01*
X77005Y-37592D01*
X77229Y-37592D01*
X77261Y-37561D01*
X77261Y-37692D01*
X77229Y-37661D01*
X77005Y-37661D01*
X77005Y-37720D01*
X77005Y-37789D01*
X77005Y-37848D01*
X77229Y-37848D01*
X77261Y-37817D01*
X77261Y-37948D01*
X77229Y-37917D01*
X77005Y-37917D01*
X77005Y-37951D01*
X76795Y-37951D01*
X76795Y-37917D01*
X76795Y-37848D01*
X76795Y-37789D01*
X76795Y-37720D01*
X76795Y-37661D01*
X76795Y-37592D01*
X76795Y-37535D01*
X76795Y-37464D01*
X76795Y-37407D01*
X76570Y-37407D01*
X76539Y-37438D01*
X76539Y-37466D01*
X76553Y-37500D01*
X76539Y-37533D01*
X76539Y-37561D01*
X76570Y-37592D01*
X76795Y-37592D01*
X76795Y-37661D01*
X76570Y-37661D01*
X76539Y-37692D01*
X76539Y-37720D01*
X76553Y-37755D01*
X76539Y-37789D01*
X76539Y-37817D01*
X76570Y-37848D01*
X76795Y-37848D01*
X76795Y-37917D01*
X76570Y-37917D01*
X76539Y-37948D01*
X76539Y-37976D01*
X76558Y-38022D01*
X76565Y-38029D01*
X76507Y-38087D01*
X76462Y-38195D01*
X76462Y-38313D01*
X76462Y-38314D01*
X76459Y-38316D01*
X76413Y-38362D01*
X76387Y-38423D01*
X76387Y-38488D01*
X76387Y-38938D01*
X76403Y-38975D01*
X76370Y-39054D01*
X76369Y-39172D01*
X76414Y-39280D01*
X76465Y-39330D01*
X76465Y-39972D01*
X76361Y-39972D01*
X76253Y-40017D01*
X76170Y-40100D01*
X76125Y-40208D01*
X76124Y-40326D01*
X76169Y-40434D01*
X76252Y-40517D01*
X76361Y-40562D01*
X76474Y-40562D01*
X76781Y-40869D01*
X76845Y-40913D01*
X76845Y-40913D01*
X76916Y-40927D01*
X76937Y-40951D01*
X77054Y-40951D01*
X77086Y-40958D01*
X77204Y-40958D01*
X77237Y-40951D01*
X77237Y-41016D01*
X77204Y-41016D01*
X77204Y-41082D01*
X77204Y-41142D01*
X77204Y-41207D01*
X77354Y-41207D01*
X77378Y-41178D01*
X77355Y-41135D01*
X78733Y-41135D01*
X78733Y-39776D01*
X78745Y-39768D01*
X78747Y-39764D01*
X78777Y-39780D01*
X78806Y-39755D01*
X78806Y-39638D01*
X78812Y-39605D01*
X78812Y-39488D01*
X78806Y-39455D01*
X78806Y-39434D01*
X78871Y-39434D01*
X78871Y-39455D01*
X78864Y-39488D01*
X78864Y-39605D01*
X78871Y-39638D01*
X78871Y-39755D01*
X78899Y-39780D01*
X78929Y-39764D01*
X78931Y-39768D01*
X78943Y-39776D01*
X78943Y-41135D01*
X78951Y-41135D01*
X78951Y-41345D01*
G54D10*
G36*
X79362Y-38257D02*
X79356Y-38264D01*
X79331Y-38324D01*
X79331Y-38390D01*
X79331Y-38660D01*
X78975Y-38304D01*
X78975Y-38233D01*
X78930Y-38125D01*
X78914Y-38108D01*
X78933Y-38116D01*
X78999Y-38116D01*
X79343Y-38116D01*
X79343Y-38174D01*
X79358Y-38251D01*
X79362Y-38257D01*
X79362Y-38257D01*
G37*
G54D55*
X79362Y-38257D02*
X79356Y-38264D01*
X79331Y-38324D01*
X79331Y-38390D01*
X79331Y-38660D01*
X78975Y-38304D01*
X78975Y-38233D01*
X78930Y-38125D01*
X78914Y-38108D01*
X78933Y-38116D01*
X78999Y-38116D01*
X79343Y-38116D01*
X79343Y-38174D01*
X79358Y-38251D01*
X79362Y-38257D01*
G54D10*
G36*
X79894Y-37234D02*
X79848Y-37279D01*
X79823Y-37340D01*
X79823Y-37406D01*
X79823Y-37410D01*
X79806Y-37413D01*
X79786Y-37427D01*
X79563Y-37427D01*
X79551Y-37427D01*
X79531Y-37407D01*
X79504Y-37407D01*
X79471Y-37393D01*
X79405Y-37393D01*
X78933Y-37393D01*
X78900Y-37407D01*
X78872Y-37407D01*
X78841Y-37438D01*
X78841Y-37450D01*
X78826Y-37465D01*
X78801Y-37525D01*
X78801Y-37591D01*
X78801Y-37728D01*
X78812Y-37755D01*
X78801Y-37781D01*
X78801Y-37847D01*
X78801Y-37984D01*
X78820Y-38030D01*
X78739Y-37997D01*
X78622Y-37997D01*
X78532Y-38034D01*
X78532Y-37999D01*
X78487Y-37890D01*
X78404Y-37807D01*
X78296Y-37762D01*
X78284Y-37762D01*
X78809Y-37237D01*
X78826Y-37278D01*
X78841Y-37293D01*
X78841Y-37307D01*
X78872Y-37338D01*
X78904Y-37338D01*
X78933Y-37350D01*
X78999Y-37350D01*
X79471Y-37350D01*
X79499Y-37338D01*
X79531Y-37338D01*
X79556Y-37314D01*
X79563Y-37313D01*
X79619Y-37301D01*
X79684Y-37258D01*
X79708Y-37234D01*
X79894Y-37234D01*
X79894Y-37234D01*
G37*
G54D55*
X79894Y-37234D02*
X79848Y-37279D01*
X79823Y-37340D01*
X79823Y-37406D01*
X79823Y-37410D01*
X79806Y-37413D01*
X79786Y-37427D01*
X79563Y-37427D01*
X79551Y-37427D01*
X79531Y-37407D01*
X79504Y-37407D01*
X79471Y-37393D01*
X79405Y-37393D01*
X78933Y-37393D01*
X78900Y-37407D01*
X78872Y-37407D01*
X78841Y-37438D01*
X78841Y-37450D01*
X78826Y-37465D01*
X78801Y-37525D01*
X78801Y-37591D01*
X78801Y-37728D01*
X78812Y-37755D01*
X78801Y-37781D01*
X78801Y-37847D01*
X78801Y-37984D01*
X78820Y-38030D01*
X78739Y-37997D01*
X78622Y-37997D01*
X78532Y-38034D01*
X78532Y-37999D01*
X78487Y-37890D01*
X78404Y-37807D01*
X78296Y-37762D01*
X78284Y-37762D01*
X78809Y-37237D01*
X78826Y-37278D01*
X78841Y-37293D01*
X78841Y-37307D01*
X78872Y-37338D01*
X78904Y-37338D01*
X78933Y-37350D01*
X78999Y-37350D01*
X79471Y-37350D01*
X79499Y-37338D01*
X79531Y-37338D01*
X79556Y-37314D01*
X79563Y-37313D01*
X79619Y-37301D01*
X79684Y-37258D01*
X79708Y-37234D01*
X79894Y-37234D01*
G54D10*
G36*
X80634Y-32828D02*
X80549Y-32913D01*
X80538Y-32902D01*
X80477Y-32877D01*
X80411Y-32877D01*
X80161Y-32877D01*
X80101Y-32902D01*
X80054Y-32949D01*
X80029Y-33009D01*
X80029Y-33075D01*
X80029Y-33085D01*
X80026Y-33082D01*
X80009Y-33079D01*
X80009Y-33009D01*
X79984Y-32949D01*
X79938Y-32902D01*
X79877Y-32877D01*
X79811Y-32877D01*
X79561Y-32877D01*
X79501Y-32902D01*
X79454Y-32949D01*
X79429Y-33009D01*
X79429Y-33067D01*
X79352Y-33067D01*
X79327Y-33007D01*
X79198Y-32877D01*
X79028Y-32807D01*
X78845Y-32807D01*
X78784Y-32832D01*
X78588Y-32636D01*
X78603Y-32636D01*
X78635Y-32605D01*
X78635Y-32449D01*
X78627Y-32449D01*
X78627Y-32349D01*
X78853Y-32349D01*
X78853Y-32449D01*
X78845Y-32449D01*
X78845Y-32605D01*
X78876Y-32636D01*
X78940Y-32636D01*
X78990Y-32636D01*
X79035Y-32617D01*
X79071Y-32582D01*
X79075Y-32570D01*
X79108Y-32584D01*
X79211Y-32584D01*
X79230Y-32632D01*
X79277Y-32678D01*
X79337Y-32703D01*
X79403Y-32703D01*
X79717Y-32703D01*
X79778Y-32678D01*
X79790Y-32665D01*
X79902Y-32777D01*
X79967Y-32820D01*
X80043Y-32835D01*
X80599Y-32835D01*
X80634Y-32828D01*
X80634Y-32828D01*
G37*
G54D55*
X80634Y-32828D02*
X80549Y-32913D01*
X80538Y-32902D01*
X80477Y-32877D01*
X80411Y-32877D01*
X80161Y-32877D01*
X80101Y-32902D01*
X80054Y-32949D01*
X80029Y-33009D01*
X80029Y-33075D01*
X80029Y-33085D01*
X80026Y-33082D01*
X80009Y-33079D01*
X80009Y-33009D01*
X79984Y-32949D01*
X79938Y-32902D01*
X79877Y-32877D01*
X79811Y-32877D01*
X79561Y-32877D01*
X79501Y-32902D01*
X79454Y-32949D01*
X79429Y-33009D01*
X79429Y-33067D01*
X79352Y-33067D01*
X79327Y-33007D01*
X79198Y-32877D01*
X79028Y-32807D01*
X78845Y-32807D01*
X78784Y-32832D01*
X78588Y-32636D01*
X78603Y-32636D01*
X78635Y-32605D01*
X78635Y-32449D01*
X78627Y-32449D01*
X78627Y-32349D01*
X78853Y-32349D01*
X78853Y-32449D01*
X78845Y-32449D01*
X78845Y-32605D01*
X78876Y-32636D01*
X78940Y-32636D01*
X78990Y-32636D01*
X79035Y-32617D01*
X79071Y-32582D01*
X79075Y-32570D01*
X79108Y-32584D01*
X79211Y-32584D01*
X79230Y-32632D01*
X79277Y-32678D01*
X79337Y-32703D01*
X79403Y-32703D01*
X79717Y-32703D01*
X79778Y-32678D01*
X79790Y-32665D01*
X79902Y-32777D01*
X79967Y-32820D01*
X80043Y-32835D01*
X80599Y-32835D01*
X80634Y-32828D01*
G54D10*
G36*
X81561Y-35142D02*
X81560Y-35141D01*
X81494Y-35141D01*
X81244Y-35141D01*
X81183Y-35166D01*
X81137Y-35213D01*
X81112Y-35273D01*
X81112Y-35339D01*
X81112Y-35789D01*
X81137Y-35849D01*
X81138Y-35851D01*
X81114Y-35887D01*
X81111Y-35903D01*
X81016Y-35903D01*
X80955Y-35929D01*
X80909Y-35975D01*
X80884Y-36036D01*
X80884Y-36101D01*
X80884Y-36601D01*
X80909Y-36662D01*
X80955Y-36708D01*
X81016Y-36733D01*
X81082Y-36733D01*
X81099Y-36733D01*
X81099Y-37211D01*
X81114Y-37287D01*
X81157Y-37352D01*
X81247Y-37442D01*
X81003Y-37687D01*
X81003Y-37358D01*
X81034Y-37326D01*
X81079Y-37218D01*
X81079Y-37101D01*
X81035Y-36992D01*
X80952Y-36909D01*
X80843Y-36864D01*
X80726Y-36864D01*
X80657Y-36892D01*
X80593Y-36849D01*
X80516Y-36834D01*
X79825Y-36834D01*
X79825Y-36613D01*
X79883Y-36613D01*
X79944Y-36588D01*
X79990Y-36542D01*
X80015Y-36481D01*
X80015Y-36415D01*
X80015Y-36165D01*
X79990Y-36105D01*
X79975Y-36090D01*
X79975Y-35873D01*
X79975Y-35817D01*
X79975Y-35629D01*
X79975Y-35573D01*
X79956Y-35527D01*
X79921Y-35492D01*
X79875Y-35473D01*
X79826Y-35473D01*
X79762Y-35473D01*
X79730Y-35504D01*
X79730Y-35661D01*
X79944Y-35661D01*
X79975Y-35629D01*
X79975Y-35817D01*
X79944Y-35786D01*
X79730Y-35786D01*
X79730Y-35942D01*
X79762Y-35973D01*
X79826Y-35973D01*
X79875Y-35973D01*
X79921Y-35954D01*
X79956Y-35919D01*
X79975Y-35873D01*
X79975Y-36090D01*
X79944Y-36058D01*
X79883Y-36033D01*
X79818Y-36033D01*
X79460Y-36033D01*
X79460Y-35973D01*
X79489Y-35973D01*
X79520Y-35942D01*
X79520Y-35786D01*
X79513Y-35786D01*
X79513Y-35661D01*
X79520Y-35661D01*
X79520Y-35504D01*
X79489Y-35473D01*
X79460Y-35473D01*
X79460Y-35297D01*
X80091Y-34666D01*
X80091Y-34666D01*
X80119Y-34624D01*
X80161Y-34641D01*
X80227Y-34641D01*
X80477Y-34641D01*
X80538Y-34616D01*
X80584Y-34570D01*
X80609Y-34509D01*
X80609Y-34451D01*
X81006Y-34451D01*
X81006Y-34530D01*
X81031Y-34591D01*
X81031Y-34591D01*
X80814Y-34808D01*
X80743Y-34808D01*
X80635Y-34853D01*
X80552Y-34936D01*
X80507Y-35044D01*
X80507Y-35162D01*
X80532Y-35224D01*
X80512Y-35273D01*
X80512Y-35339D01*
X80512Y-35789D01*
X80537Y-35849D01*
X80583Y-35896D01*
X80644Y-35921D01*
X80710Y-35921D01*
X80960Y-35921D01*
X81020Y-35896D01*
X81067Y-35849D01*
X81092Y-35789D01*
X81092Y-35723D01*
X81092Y-35273D01*
X81071Y-35224D01*
X81097Y-35162D01*
X81097Y-35091D01*
X81301Y-34887D01*
X81333Y-34893D01*
X81353Y-34913D01*
X81413Y-34938D01*
X81479Y-34938D01*
X81561Y-34938D01*
X81561Y-35142D01*
X81561Y-35142D01*
G37*
G54D55*
X81561Y-35142D02*
X81560Y-35141D01*
X81494Y-35141D01*
X81244Y-35141D01*
X81183Y-35166D01*
X81137Y-35213D01*
X81112Y-35273D01*
X81112Y-35339D01*
X81112Y-35789D01*
X81137Y-35849D01*
X81138Y-35851D01*
X81114Y-35887D01*
X81111Y-35903D01*
X81016Y-35903D01*
X80955Y-35929D01*
X80909Y-35975D01*
X80884Y-36036D01*
X80884Y-36101D01*
X80884Y-36601D01*
X80909Y-36662D01*
X80955Y-36708D01*
X81016Y-36733D01*
X81082Y-36733D01*
X81099Y-36733D01*
X81099Y-37211D01*
X81114Y-37287D01*
X81157Y-37352D01*
X81247Y-37442D01*
X81003Y-37687D01*
X81003Y-37358D01*
X81034Y-37326D01*
X81079Y-37218D01*
X81079Y-37101D01*
X81035Y-36992D01*
X80952Y-36909D01*
X80843Y-36864D01*
X80726Y-36864D01*
X80657Y-36892D01*
X80593Y-36849D01*
X80516Y-36834D01*
X79825Y-36834D01*
X79825Y-36613D01*
X79883Y-36613D01*
X79944Y-36588D01*
X79990Y-36542D01*
X80015Y-36481D01*
X80015Y-36415D01*
X80015Y-36165D01*
X79990Y-36105D01*
X79975Y-36090D01*
X79975Y-35873D01*
X79975Y-35817D01*
X79975Y-35629D01*
X79975Y-35573D01*
X79956Y-35527D01*
X79921Y-35492D01*
X79875Y-35473D01*
X79826Y-35473D01*
X79762Y-35473D01*
X79730Y-35504D01*
X79730Y-35661D01*
X79944Y-35661D01*
X79975Y-35629D01*
X79975Y-35817D01*
X79944Y-35786D01*
X79730Y-35786D01*
X79730Y-35942D01*
X79762Y-35973D01*
X79826Y-35973D01*
X79875Y-35973D01*
X79921Y-35954D01*
X79956Y-35919D01*
X79975Y-35873D01*
X79975Y-36090D01*
X79944Y-36058D01*
X79883Y-36033D01*
X79818Y-36033D01*
X79460Y-36033D01*
X79460Y-35973D01*
X79489Y-35973D01*
X79520Y-35942D01*
X79520Y-35786D01*
X79513Y-35786D01*
X79513Y-35661D01*
X79520Y-35661D01*
X79520Y-35504D01*
X79489Y-35473D01*
X79460Y-35473D01*
X79460Y-35297D01*
X80091Y-34666D01*
X80091Y-34666D01*
X80119Y-34624D01*
X80161Y-34641D01*
X80227Y-34641D01*
X80477Y-34641D01*
X80538Y-34616D01*
X80584Y-34570D01*
X80609Y-34509D01*
X80609Y-34451D01*
X81006Y-34451D01*
X81006Y-34530D01*
X81031Y-34591D01*
X81031Y-34591D01*
X80814Y-34808D01*
X80743Y-34808D01*
X80635Y-34853D01*
X80552Y-34936D01*
X80507Y-35044D01*
X80507Y-35162D01*
X80532Y-35224D01*
X80512Y-35273D01*
X80512Y-35339D01*
X80512Y-35789D01*
X80537Y-35849D01*
X80583Y-35896D01*
X80644Y-35921D01*
X80710Y-35921D01*
X80960Y-35921D01*
X81020Y-35896D01*
X81067Y-35849D01*
X81092Y-35789D01*
X81092Y-35723D01*
X81092Y-35273D01*
X81071Y-35224D01*
X81097Y-35162D01*
X81097Y-35091D01*
X81301Y-34887D01*
X81333Y-34893D01*
X81353Y-34913D01*
X81413Y-34938D01*
X81479Y-34938D01*
X81561Y-34938D01*
X81561Y-35142D01*
G54D10*
G36*
X81989Y-44777D02*
X81987Y-44779D01*
X81961Y-44773D01*
X81839Y-44773D01*
X81839Y-44639D01*
X81839Y-44589D01*
X81839Y-44526D01*
X81839Y-44253D01*
X81839Y-44189D01*
X81839Y-44139D01*
X81820Y-44093D01*
X81785Y-44058D01*
X81739Y-44039D01*
X81683Y-44039D01*
X81652Y-44071D01*
X81652Y-44284D01*
X81808Y-44284D01*
X81839Y-44253D01*
X81839Y-44526D01*
X81808Y-44494D01*
X81652Y-44494D01*
X81652Y-44708D01*
X81683Y-44739D01*
X81739Y-44739D01*
X81785Y-44720D01*
X81820Y-44685D01*
X81839Y-44639D01*
X81839Y-44773D01*
X81692Y-44773D01*
X81615Y-44789D01*
X81551Y-44832D01*
X81507Y-44897D01*
X81504Y-44913D01*
X81462Y-44913D01*
X81401Y-44939D01*
X81368Y-44972D01*
X81324Y-44953D01*
X81274Y-44953D01*
X81232Y-44953D01*
X81200Y-44985D01*
X81200Y-45367D01*
X81215Y-45367D01*
X81215Y-45577D01*
X81200Y-45577D01*
X81200Y-45585D01*
X81003Y-45585D01*
X81003Y-45577D01*
X80989Y-45577D01*
X80989Y-45367D01*
X81003Y-45367D01*
X81003Y-44985D01*
X80972Y-44953D01*
X80930Y-44953D01*
X80880Y-44953D01*
X80835Y-44972D01*
X80801Y-44939D01*
X80741Y-44913D01*
X80711Y-44913D01*
X80711Y-44739D01*
X80718Y-44739D01*
X80749Y-44708D01*
X80749Y-44494D01*
X80711Y-44494D01*
X80711Y-44459D01*
X80698Y-44396D01*
X80698Y-44284D01*
X80749Y-44284D01*
X80749Y-44071D01*
X80718Y-44039D01*
X80661Y-44039D01*
X80616Y-44058D01*
X80580Y-44093D01*
X80561Y-44139D01*
X80561Y-44189D01*
X80561Y-44233D01*
X80518Y-44204D01*
X80501Y-44201D01*
X80501Y-44131D01*
X80476Y-44071D01*
X80430Y-44024D01*
X80369Y-43999D01*
X80303Y-43999D01*
X80053Y-43999D01*
X79993Y-44024D01*
X79946Y-44071D01*
X79921Y-44131D01*
X79921Y-44186D01*
X79878Y-44186D01*
X79914Y-44101D01*
X79914Y-43983D01*
X79869Y-43875D01*
X79819Y-43825D01*
X79819Y-43580D01*
X79878Y-43605D01*
X79995Y-43605D01*
X80104Y-43560D01*
X80112Y-43552D01*
X80140Y-43622D01*
X80223Y-43705D01*
X80332Y-43750D01*
X80449Y-43750D01*
X80558Y-43705D01*
X80641Y-43622D01*
X80686Y-43514D01*
X80686Y-43500D01*
X80977Y-43791D01*
X80977Y-44046D01*
X80961Y-44039D01*
X80905Y-44039D01*
X80874Y-44071D01*
X80874Y-44284D01*
X80924Y-44284D01*
X80924Y-44328D01*
X80882Y-44429D01*
X80882Y-44494D01*
X80874Y-44494D01*
X80874Y-44708D01*
X80905Y-44739D01*
X80961Y-44739D01*
X80997Y-44725D01*
X81010Y-44738D01*
X81118Y-44783D01*
X81236Y-44783D01*
X81344Y-44738D01*
X81378Y-44704D01*
X81393Y-44720D01*
X81439Y-44739D01*
X81496Y-44739D01*
X81527Y-44708D01*
X81527Y-44494D01*
X81476Y-44494D01*
X81476Y-44284D01*
X81527Y-44284D01*
X81527Y-44071D01*
X81496Y-44039D01*
X81439Y-44039D01*
X81393Y-44058D01*
X81377Y-44075D01*
X81377Y-43720D01*
X81393Y-43736D01*
X81439Y-43755D01*
X81496Y-43755D01*
X81527Y-43724D01*
X81527Y-43510D01*
X81476Y-43510D01*
X81476Y-43316D01*
X81491Y-43301D01*
X81492Y-43300D01*
X81527Y-43300D01*
X81527Y-43292D01*
X81652Y-43292D01*
X81652Y-43300D01*
X81808Y-43300D01*
X81839Y-43269D01*
X81839Y-43205D01*
X81839Y-43155D01*
X81820Y-43109D01*
X81789Y-43078D01*
X81796Y-43078D01*
X81857Y-43053D01*
X81878Y-43031D01*
X81929Y-43082D01*
X81924Y-43087D01*
X81899Y-43147D01*
X81899Y-43213D01*
X81899Y-43638D01*
X81878Y-43647D01*
X81839Y-43686D01*
X81839Y-43655D01*
X81839Y-43605D01*
X81839Y-43541D01*
X81808Y-43510D01*
X81652Y-43510D01*
X81652Y-43724D01*
X81683Y-43755D01*
X81739Y-43755D01*
X81785Y-43736D01*
X81820Y-43701D01*
X81839Y-43655D01*
X81839Y-43686D01*
X81795Y-43730D01*
X81750Y-43838D01*
X81750Y-43956D01*
X81795Y-44064D01*
X81878Y-44147D01*
X81899Y-44156D01*
X81899Y-44197D01*
X81899Y-44647D01*
X81924Y-44708D01*
X81971Y-44754D01*
X81989Y-44762D01*
X81989Y-44777D01*
X81989Y-44777D01*
G37*
G54D55*
X81989Y-44777D02*
X81987Y-44779D01*
X81961Y-44773D01*
X81839Y-44773D01*
X81839Y-44639D01*
X81839Y-44589D01*
X81839Y-44526D01*
X81839Y-44253D01*
X81839Y-44189D01*
X81839Y-44139D01*
X81820Y-44093D01*
X81785Y-44058D01*
X81739Y-44039D01*
X81683Y-44039D01*
X81652Y-44071D01*
X81652Y-44284D01*
X81808Y-44284D01*
X81839Y-44253D01*
X81839Y-44526D01*
X81808Y-44494D01*
X81652Y-44494D01*
X81652Y-44708D01*
X81683Y-44739D01*
X81739Y-44739D01*
X81785Y-44720D01*
X81820Y-44685D01*
X81839Y-44639D01*
X81839Y-44773D01*
X81692Y-44773D01*
X81615Y-44789D01*
X81551Y-44832D01*
X81507Y-44897D01*
X81504Y-44913D01*
X81462Y-44913D01*
X81401Y-44939D01*
X81368Y-44972D01*
X81324Y-44953D01*
X81274Y-44953D01*
X81232Y-44953D01*
X81200Y-44985D01*
X81200Y-45367D01*
X81215Y-45367D01*
X81215Y-45577D01*
X81200Y-45577D01*
X81200Y-45585D01*
X81003Y-45585D01*
X81003Y-45577D01*
X80989Y-45577D01*
X80989Y-45367D01*
X81003Y-45367D01*
X81003Y-44985D01*
X80972Y-44953D01*
X80930Y-44953D01*
X80880Y-44953D01*
X80835Y-44972D01*
X80801Y-44939D01*
X80741Y-44913D01*
X80711Y-44913D01*
X80711Y-44739D01*
X80718Y-44739D01*
X80749Y-44708D01*
X80749Y-44494D01*
X80711Y-44494D01*
X80711Y-44459D01*
X80698Y-44396D01*
X80698Y-44284D01*
X80749Y-44284D01*
X80749Y-44071D01*
X80718Y-44039D01*
X80661Y-44039D01*
X80616Y-44058D01*
X80580Y-44093D01*
X80561Y-44139D01*
X80561Y-44189D01*
X80561Y-44233D01*
X80518Y-44204D01*
X80501Y-44201D01*
X80501Y-44131D01*
X80476Y-44071D01*
X80430Y-44024D01*
X80369Y-43999D01*
X80303Y-43999D01*
X80053Y-43999D01*
X79993Y-44024D01*
X79946Y-44071D01*
X79921Y-44131D01*
X79921Y-44186D01*
X79878Y-44186D01*
X79914Y-44101D01*
X79914Y-43983D01*
X79869Y-43875D01*
X79819Y-43825D01*
X79819Y-43580D01*
X79878Y-43605D01*
X79995Y-43605D01*
X80104Y-43560D01*
X80112Y-43552D01*
X80140Y-43622D01*
X80223Y-43705D01*
X80332Y-43750D01*
X80449Y-43750D01*
X80558Y-43705D01*
X80641Y-43622D01*
X80686Y-43514D01*
X80686Y-43500D01*
X80977Y-43791D01*
X80977Y-44046D01*
X80961Y-44039D01*
X80905Y-44039D01*
X80874Y-44071D01*
X80874Y-44284D01*
X80924Y-44284D01*
X80924Y-44328D01*
X80882Y-44429D01*
X80882Y-44494D01*
X80874Y-44494D01*
X80874Y-44708D01*
X80905Y-44739D01*
X80961Y-44739D01*
X80997Y-44725D01*
X81010Y-44738D01*
X81118Y-44783D01*
X81236Y-44783D01*
X81344Y-44738D01*
X81378Y-44704D01*
X81393Y-44720D01*
X81439Y-44739D01*
X81496Y-44739D01*
X81527Y-44708D01*
X81527Y-44494D01*
X81476Y-44494D01*
X81476Y-44284D01*
X81527Y-44284D01*
X81527Y-44071D01*
X81496Y-44039D01*
X81439Y-44039D01*
X81393Y-44058D01*
X81377Y-44075D01*
X81377Y-43720D01*
X81393Y-43736D01*
X81439Y-43755D01*
X81496Y-43755D01*
X81527Y-43724D01*
X81527Y-43510D01*
X81476Y-43510D01*
X81476Y-43316D01*
X81491Y-43301D01*
X81492Y-43300D01*
X81527Y-43300D01*
X81527Y-43292D01*
X81652Y-43292D01*
X81652Y-43300D01*
X81808Y-43300D01*
X81839Y-43269D01*
X81839Y-43205D01*
X81839Y-43155D01*
X81820Y-43109D01*
X81789Y-43078D01*
X81796Y-43078D01*
X81857Y-43053D01*
X81878Y-43031D01*
X81929Y-43082D01*
X81924Y-43087D01*
X81899Y-43147D01*
X81899Y-43213D01*
X81899Y-43638D01*
X81878Y-43647D01*
X81839Y-43686D01*
X81839Y-43655D01*
X81839Y-43605D01*
X81839Y-43541D01*
X81808Y-43510D01*
X81652Y-43510D01*
X81652Y-43724D01*
X81683Y-43755D01*
X81739Y-43755D01*
X81785Y-43736D01*
X81820Y-43701D01*
X81839Y-43655D01*
X81839Y-43686D01*
X81795Y-43730D01*
X81750Y-43838D01*
X81750Y-43956D01*
X81795Y-44064D01*
X81878Y-44147D01*
X81899Y-44156D01*
X81899Y-44197D01*
X81899Y-44647D01*
X81924Y-44708D01*
X81971Y-44754D01*
X81989Y-44762D01*
X81989Y-44777D01*
G54D10*
G36*
X82155Y-41892D02*
X82129Y-41902D01*
X82089Y-41841D01*
X81857Y-41610D01*
X81793Y-41567D01*
X81716Y-41551D01*
X80759Y-41551D01*
X80739Y-41528D01*
X80623Y-41528D01*
X80590Y-41522D01*
X80472Y-41522D01*
X80439Y-41528D01*
X80439Y-41463D01*
X80472Y-41470D01*
X80590Y-41470D01*
X80623Y-41463D01*
X80739Y-41463D01*
X80759Y-41440D01*
X81703Y-41440D01*
X82155Y-41892D01*
X82155Y-41892D01*
G37*
G54D55*
X82155Y-41892D02*
X82129Y-41902D01*
X82089Y-41841D01*
X81857Y-41610D01*
X81793Y-41567D01*
X81716Y-41551D01*
X80759Y-41551D01*
X80739Y-41528D01*
X80623Y-41528D01*
X80590Y-41522D01*
X80472Y-41522D01*
X80439Y-41528D01*
X80439Y-41463D01*
X80472Y-41470D01*
X80590Y-41470D01*
X80623Y-41463D01*
X80739Y-41463D01*
X80759Y-41440D01*
X81703Y-41440D01*
X82155Y-41892D01*
G54D10*
G36*
X83098Y-36684D02*
X83080Y-36676D01*
X82962Y-36676D01*
X82854Y-36721D01*
X82771Y-36804D01*
X82726Y-36912D01*
X82726Y-36941D01*
X82509Y-36941D01*
X82476Y-36909D01*
X82468Y-36865D01*
X82445Y-36832D01*
X82445Y-36781D01*
X82426Y-36733D01*
X82566Y-36733D01*
X82626Y-36708D01*
X82673Y-36662D01*
X82698Y-36601D01*
X82698Y-36536D01*
X82698Y-36036D01*
X82673Y-35975D01*
X82626Y-35929D01*
X82566Y-35903D01*
X82500Y-35903D01*
X82471Y-35903D01*
X82468Y-35887D01*
X82444Y-35851D01*
X82445Y-35849D01*
X82470Y-35789D01*
X82470Y-35723D01*
X82470Y-35329D01*
X82490Y-35338D01*
X82490Y-35339D01*
X82490Y-35789D01*
X82515Y-35849D01*
X82561Y-35896D01*
X82622Y-35921D01*
X82688Y-35921D01*
X82938Y-35921D01*
X82998Y-35896D01*
X83045Y-35849D01*
X83070Y-35789D01*
X83070Y-35723D01*
X83070Y-35273D01*
X83045Y-35213D01*
X82998Y-35166D01*
X82971Y-35155D01*
X82965Y-35124D01*
X82925Y-35065D01*
X82925Y-35018D01*
X82880Y-34910D01*
X82797Y-34826D01*
X82689Y-34781D01*
X82633Y-34781D01*
X82671Y-34744D01*
X82714Y-34679D01*
X82728Y-34611D01*
X82748Y-34591D01*
X82773Y-34530D01*
X82773Y-34465D01*
X82773Y-34347D01*
X82758Y-34311D01*
X82773Y-34274D01*
X82773Y-34209D01*
X82773Y-34091D01*
X82758Y-34055D01*
X82773Y-34018D01*
X82773Y-33953D01*
X82773Y-33835D01*
X82748Y-33774D01*
X82731Y-33758D01*
X82733Y-33754D01*
X82733Y-33731D01*
X82702Y-33700D01*
X82569Y-33700D01*
X82569Y-33703D01*
X82490Y-33703D01*
X82490Y-33700D01*
X82490Y-33641D01*
X82490Y-33518D01*
X82459Y-33487D01*
X82457Y-33487D01*
X82457Y-33485D01*
X82426Y-33454D01*
X82303Y-33454D01*
X82303Y-33587D01*
X82326Y-33610D01*
X82334Y-33618D01*
X82357Y-33641D01*
X82490Y-33641D01*
X82490Y-33700D01*
X82357Y-33700D01*
X82326Y-33731D01*
X82326Y-33754D01*
X82327Y-33758D01*
X82311Y-33774D01*
X82286Y-33835D01*
X82286Y-33900D01*
X82286Y-34018D01*
X82301Y-34055D01*
X82286Y-34091D01*
X82286Y-34156D01*
X82286Y-34274D01*
X82301Y-34311D01*
X82286Y-34347D01*
X82286Y-34412D01*
X82286Y-34451D01*
X82181Y-34451D01*
X82145Y-34466D01*
X82109Y-34451D01*
X82043Y-34451D01*
X81925Y-34451D01*
X81889Y-34466D01*
X81853Y-34451D01*
X81787Y-34451D01*
X81669Y-34451D01*
X81633Y-34466D01*
X81597Y-34451D01*
X81531Y-34451D01*
X81493Y-34451D01*
X81493Y-34347D01*
X81478Y-34311D01*
X81493Y-34274D01*
X81493Y-34209D01*
X81493Y-34127D01*
X81741Y-34127D01*
X81786Y-34172D01*
X81894Y-34217D01*
X82012Y-34217D01*
X82120Y-34172D01*
X82203Y-34089D01*
X82248Y-33981D01*
X82248Y-33863D01*
X82244Y-33852D01*
X82244Y-33587D01*
X82244Y-33454D01*
X82244Y-33375D01*
X82244Y-33242D01*
X82213Y-33211D01*
X82189Y-33211D01*
X82145Y-33229D01*
X82101Y-33211D01*
X82078Y-33211D01*
X82047Y-33242D01*
X82047Y-33375D01*
X82121Y-33375D01*
X82170Y-33375D01*
X82244Y-33375D01*
X82244Y-33454D01*
X82170Y-33454D01*
X82121Y-33454D01*
X82047Y-33454D01*
X82047Y-33587D01*
X82078Y-33618D01*
X82101Y-33618D01*
X82145Y-33600D01*
X82189Y-33618D01*
X82213Y-33618D01*
X82244Y-33587D01*
X82244Y-33852D01*
X82204Y-33755D01*
X82121Y-33672D01*
X82012Y-33627D01*
X81988Y-33627D01*
X81988Y-33587D01*
X81988Y-33454D01*
X81988Y-33375D01*
X81988Y-33242D01*
X81957Y-33211D01*
X81933Y-33211D01*
X81889Y-33229D01*
X81845Y-33211D01*
X81822Y-33211D01*
X81791Y-33242D01*
X81791Y-33375D01*
X81865Y-33375D01*
X81914Y-33375D01*
X81988Y-33375D01*
X81988Y-33454D01*
X81914Y-33454D01*
X81865Y-33454D01*
X81791Y-33454D01*
X81791Y-33587D01*
X81822Y-33618D01*
X81845Y-33618D01*
X81889Y-33600D01*
X81933Y-33618D01*
X81957Y-33618D01*
X81988Y-33587D01*
X81988Y-33627D01*
X81895Y-33627D01*
X81786Y-33672D01*
X81784Y-33674D01*
X81784Y-32605D01*
X81784Y-32449D01*
X81571Y-32449D01*
X81539Y-32480D01*
X81539Y-32536D01*
X81558Y-32582D01*
X81593Y-32617D01*
X81639Y-32636D01*
X81689Y-32636D01*
X81753Y-32636D01*
X81784Y-32605D01*
X81784Y-33674D01*
X81732Y-33726D01*
X81732Y-33587D01*
X81732Y-33454D01*
X81732Y-33375D01*
X81732Y-33242D01*
X81701Y-33211D01*
X81677Y-33211D01*
X81633Y-33229D01*
X81589Y-33211D01*
X81566Y-33211D01*
X81535Y-33242D01*
X81535Y-33375D01*
X81609Y-33375D01*
X81658Y-33375D01*
X81732Y-33375D01*
X81732Y-33454D01*
X81658Y-33454D01*
X81609Y-33454D01*
X81535Y-33454D01*
X81535Y-33587D01*
X81566Y-33618D01*
X81589Y-33618D01*
X81633Y-33600D01*
X81677Y-33618D01*
X81701Y-33618D01*
X81732Y-33587D01*
X81732Y-33726D01*
X81731Y-33727D01*
X81476Y-33727D01*
X81476Y-33587D01*
X81476Y-33454D01*
X81476Y-33375D01*
X81476Y-33242D01*
X81445Y-33211D01*
X81421Y-33211D01*
X81375Y-33230D01*
X81340Y-33265D01*
X81321Y-33311D01*
X81321Y-33344D01*
X81353Y-33375D01*
X81476Y-33375D01*
X81476Y-33454D01*
X81353Y-33454D01*
X81321Y-33485D01*
X81321Y-33487D01*
X81320Y-33487D01*
X81289Y-33518D01*
X81289Y-33641D01*
X81422Y-33641D01*
X81445Y-33618D01*
X81453Y-33610D01*
X81476Y-33587D01*
X81476Y-33727D01*
X81448Y-33727D01*
X81422Y-33700D01*
X81289Y-33700D01*
X81289Y-33703D01*
X81210Y-33703D01*
X81210Y-33700D01*
X81210Y-33641D01*
X81210Y-33518D01*
X81179Y-33487D01*
X81146Y-33487D01*
X81100Y-33506D01*
X81065Y-33541D01*
X81046Y-33587D01*
X81046Y-33610D01*
X81077Y-33641D01*
X81210Y-33641D01*
X81210Y-33700D01*
X81077Y-33700D01*
X81046Y-33731D01*
X81046Y-33754D01*
X81047Y-33758D01*
X81031Y-33774D01*
X81006Y-33835D01*
X81006Y-33900D01*
X81006Y-34018D01*
X81019Y-34051D01*
X80609Y-34051D01*
X80609Y-33994D01*
X80584Y-33933D01*
X80538Y-33887D01*
X80519Y-33879D01*
X80519Y-33640D01*
X80538Y-33632D01*
X80577Y-33593D01*
X80616Y-33609D01*
X80733Y-33610D01*
X80842Y-33565D01*
X80925Y-33482D01*
X80970Y-33373D01*
X80970Y-33256D01*
X80925Y-33148D01*
X80903Y-33125D01*
X81243Y-32785D01*
X81287Y-32720D01*
X81287Y-32720D01*
X81289Y-32707D01*
X81290Y-32703D01*
X81292Y-32703D01*
X81352Y-32678D01*
X81399Y-32632D01*
X81424Y-32571D01*
X81424Y-32505D01*
X81424Y-32319D01*
X81566Y-32319D01*
X81571Y-32324D01*
X81784Y-32324D01*
X81784Y-32319D01*
X81994Y-32319D01*
X81994Y-32324D01*
X82002Y-32324D01*
X82002Y-32449D01*
X81994Y-32449D01*
X81994Y-32605D01*
X82026Y-32636D01*
X82089Y-32636D01*
X82139Y-32636D01*
X82166Y-32625D01*
X82166Y-32945D01*
X82181Y-33021D01*
X82225Y-33086D01*
X82350Y-33211D01*
X82334Y-33211D01*
X82303Y-33242D01*
X82303Y-33375D01*
X82426Y-33375D01*
X82457Y-33344D01*
X82457Y-33319D01*
X82625Y-33487D01*
X82600Y-33487D01*
X82569Y-33518D01*
X82569Y-33641D01*
X82702Y-33641D01*
X82733Y-33610D01*
X82733Y-33594D01*
X83098Y-33960D01*
X83098Y-36684D01*
X83098Y-36684D01*
G37*
G54D55*
X83098Y-36684D02*
X83080Y-36676D01*
X82962Y-36676D01*
X82854Y-36721D01*
X82771Y-36804D01*
X82726Y-36912D01*
X82726Y-36941D01*
X82509Y-36941D01*
X82476Y-36909D01*
X82468Y-36865D01*
X82445Y-36832D01*
X82445Y-36781D01*
X82426Y-36733D01*
X82566Y-36733D01*
X82626Y-36708D01*
X82673Y-36662D01*
X82698Y-36601D01*
X82698Y-36536D01*
X82698Y-36036D01*
X82673Y-35975D01*
X82626Y-35929D01*
X82566Y-35903D01*
X82500Y-35903D01*
X82471Y-35903D01*
X82468Y-35887D01*
X82444Y-35851D01*
X82445Y-35849D01*
X82470Y-35789D01*
X82470Y-35723D01*
X82470Y-35329D01*
X82490Y-35338D01*
X82490Y-35339D01*
X82490Y-35789D01*
X82515Y-35849D01*
X82561Y-35896D01*
X82622Y-35921D01*
X82688Y-35921D01*
X82938Y-35921D01*
X82998Y-35896D01*
X83045Y-35849D01*
X83070Y-35789D01*
X83070Y-35723D01*
X83070Y-35273D01*
X83045Y-35213D01*
X82998Y-35166D01*
X82971Y-35155D01*
X82965Y-35124D01*
X82925Y-35065D01*
X82925Y-35018D01*
X82880Y-34910D01*
X82797Y-34826D01*
X82689Y-34781D01*
X82633Y-34781D01*
X82671Y-34744D01*
X82714Y-34679D01*
X82728Y-34611D01*
X82748Y-34591D01*
X82773Y-34530D01*
X82773Y-34465D01*
X82773Y-34347D01*
X82758Y-34311D01*
X82773Y-34274D01*
X82773Y-34209D01*
X82773Y-34091D01*
X82758Y-34055D01*
X82773Y-34018D01*
X82773Y-33953D01*
X82773Y-33835D01*
X82748Y-33774D01*
X82731Y-33758D01*
X82733Y-33754D01*
X82733Y-33731D01*
X82702Y-33700D01*
X82569Y-33700D01*
X82569Y-33703D01*
X82490Y-33703D01*
X82490Y-33700D01*
X82490Y-33641D01*
X82490Y-33518D01*
X82459Y-33487D01*
X82457Y-33487D01*
X82457Y-33485D01*
X82426Y-33454D01*
X82303Y-33454D01*
X82303Y-33587D01*
X82326Y-33610D01*
X82334Y-33618D01*
X82357Y-33641D01*
X82490Y-33641D01*
X82490Y-33700D01*
X82357Y-33700D01*
X82326Y-33731D01*
X82326Y-33754D01*
X82327Y-33758D01*
X82311Y-33774D01*
X82286Y-33835D01*
X82286Y-33900D01*
X82286Y-34018D01*
X82301Y-34055D01*
X82286Y-34091D01*
X82286Y-34156D01*
X82286Y-34274D01*
X82301Y-34311D01*
X82286Y-34347D01*
X82286Y-34412D01*
X82286Y-34451D01*
X82181Y-34451D01*
X82145Y-34466D01*
X82109Y-34451D01*
X82043Y-34451D01*
X81925Y-34451D01*
X81889Y-34466D01*
X81853Y-34451D01*
X81787Y-34451D01*
X81669Y-34451D01*
X81633Y-34466D01*
X81597Y-34451D01*
X81531Y-34451D01*
X81493Y-34451D01*
X81493Y-34347D01*
X81478Y-34311D01*
X81493Y-34274D01*
X81493Y-34209D01*
X81493Y-34127D01*
X81741Y-34127D01*
X81786Y-34172D01*
X81894Y-34217D01*
X82012Y-34217D01*
X82120Y-34172D01*
X82203Y-34089D01*
X82248Y-33981D01*
X82248Y-33863D01*
X82244Y-33852D01*
X82244Y-33587D01*
X82244Y-33454D01*
X82244Y-33375D01*
X82244Y-33242D01*
X82213Y-33211D01*
X82189Y-33211D01*
X82145Y-33229D01*
X82101Y-33211D01*
X82078Y-33211D01*
X82047Y-33242D01*
X82047Y-33375D01*
X82121Y-33375D01*
X82170Y-33375D01*
X82244Y-33375D01*
X82244Y-33454D01*
X82170Y-33454D01*
X82121Y-33454D01*
X82047Y-33454D01*
X82047Y-33587D01*
X82078Y-33618D01*
X82101Y-33618D01*
X82145Y-33600D01*
X82189Y-33618D01*
X82213Y-33618D01*
X82244Y-33587D01*
X82244Y-33852D01*
X82204Y-33755D01*
X82121Y-33672D01*
X82012Y-33627D01*
X81988Y-33627D01*
X81988Y-33587D01*
X81988Y-33454D01*
X81988Y-33375D01*
X81988Y-33242D01*
X81957Y-33211D01*
X81933Y-33211D01*
X81889Y-33229D01*
X81845Y-33211D01*
X81822Y-33211D01*
X81791Y-33242D01*
X81791Y-33375D01*
X81865Y-33375D01*
X81914Y-33375D01*
X81988Y-33375D01*
X81988Y-33454D01*
X81914Y-33454D01*
X81865Y-33454D01*
X81791Y-33454D01*
X81791Y-33587D01*
X81822Y-33618D01*
X81845Y-33618D01*
X81889Y-33600D01*
X81933Y-33618D01*
X81957Y-33618D01*
X81988Y-33587D01*
X81988Y-33627D01*
X81895Y-33627D01*
X81786Y-33672D01*
X81784Y-33674D01*
X81784Y-32605D01*
X81784Y-32449D01*
X81571Y-32449D01*
X81539Y-32480D01*
X81539Y-32536D01*
X81558Y-32582D01*
X81593Y-32617D01*
X81639Y-32636D01*
X81689Y-32636D01*
X81753Y-32636D01*
X81784Y-32605D01*
X81784Y-33674D01*
X81732Y-33726D01*
X81732Y-33587D01*
X81732Y-33454D01*
X81732Y-33375D01*
X81732Y-33242D01*
X81701Y-33211D01*
X81677Y-33211D01*
X81633Y-33229D01*
X81589Y-33211D01*
X81566Y-33211D01*
X81535Y-33242D01*
X81535Y-33375D01*
X81609Y-33375D01*
X81658Y-33375D01*
X81732Y-33375D01*
X81732Y-33454D01*
X81658Y-33454D01*
X81609Y-33454D01*
X81535Y-33454D01*
X81535Y-33587D01*
X81566Y-33618D01*
X81589Y-33618D01*
X81633Y-33600D01*
X81677Y-33618D01*
X81701Y-33618D01*
X81732Y-33587D01*
X81732Y-33726D01*
X81731Y-33727D01*
X81476Y-33727D01*
X81476Y-33587D01*
X81476Y-33454D01*
X81476Y-33375D01*
X81476Y-33242D01*
X81445Y-33211D01*
X81421Y-33211D01*
X81375Y-33230D01*
X81340Y-33265D01*
X81321Y-33311D01*
X81321Y-33344D01*
X81353Y-33375D01*
X81476Y-33375D01*
X81476Y-33454D01*
X81353Y-33454D01*
X81321Y-33485D01*
X81321Y-33487D01*
X81320Y-33487D01*
X81289Y-33518D01*
X81289Y-33641D01*
X81422Y-33641D01*
X81445Y-33618D01*
X81453Y-33610D01*
X81476Y-33587D01*
X81476Y-33727D01*
X81448Y-33727D01*
X81422Y-33700D01*
X81289Y-33700D01*
X81289Y-33703D01*
X81210Y-33703D01*
X81210Y-33700D01*
X81210Y-33641D01*
X81210Y-33518D01*
X81179Y-33487D01*
X81146Y-33487D01*
X81100Y-33506D01*
X81065Y-33541D01*
X81046Y-33587D01*
X81046Y-33610D01*
X81077Y-33641D01*
X81210Y-33641D01*
X81210Y-33700D01*
X81077Y-33700D01*
X81046Y-33731D01*
X81046Y-33754D01*
X81047Y-33758D01*
X81031Y-33774D01*
X81006Y-33835D01*
X81006Y-33900D01*
X81006Y-34018D01*
X81019Y-34051D01*
X80609Y-34051D01*
X80609Y-33994D01*
X80584Y-33933D01*
X80538Y-33887D01*
X80519Y-33879D01*
X80519Y-33640D01*
X80538Y-33632D01*
X80577Y-33593D01*
X80616Y-33609D01*
X80733Y-33610D01*
X80842Y-33565D01*
X80925Y-33482D01*
X80970Y-33373D01*
X80970Y-33256D01*
X80925Y-33148D01*
X80903Y-33125D01*
X81243Y-32785D01*
X81287Y-32720D01*
X81287Y-32720D01*
X81289Y-32707D01*
X81290Y-32703D01*
X81292Y-32703D01*
X81352Y-32678D01*
X81399Y-32632D01*
X81424Y-32571D01*
X81424Y-32505D01*
X81424Y-32319D01*
X81566Y-32319D01*
X81571Y-32324D01*
X81784Y-32324D01*
X81784Y-32319D01*
X81994Y-32319D01*
X81994Y-32324D01*
X82002Y-32324D01*
X82002Y-32449D01*
X81994Y-32449D01*
X81994Y-32605D01*
X82026Y-32636D01*
X82089Y-32636D01*
X82139Y-32636D01*
X82166Y-32625D01*
X82166Y-32945D01*
X82181Y-33021D01*
X82225Y-33086D01*
X82350Y-33211D01*
X82334Y-33211D01*
X82303Y-33242D01*
X82303Y-33375D01*
X82426Y-33375D01*
X82457Y-33344D01*
X82457Y-33319D01*
X82625Y-33487D01*
X82600Y-33487D01*
X82569Y-33518D01*
X82569Y-33641D01*
X82702Y-33641D01*
X82733Y-33610D01*
X82733Y-33594D01*
X83098Y-33960D01*
X83098Y-36684D01*
G54D10*
G36*
X83098Y-42460D02*
X82928Y-42630D01*
X82928Y-42014D01*
X82928Y-40465D01*
X82928Y-40400D01*
X82928Y-39534D01*
X82903Y-39473D01*
X82857Y-39427D01*
X82796Y-39401D01*
X82730Y-39401D01*
X82179Y-39401D01*
X82119Y-39427D01*
X82072Y-39473D01*
X82047Y-39534D01*
X82047Y-39599D01*
X82047Y-40465D01*
X82072Y-40526D01*
X82119Y-40572D01*
X82179Y-40598D01*
X82245Y-40598D01*
X82796Y-40598D01*
X82857Y-40572D01*
X82903Y-40526D01*
X82928Y-40465D01*
X82928Y-42014D01*
X82903Y-41953D01*
X82857Y-41907D01*
X82796Y-41882D01*
X82730Y-41882D01*
X82676Y-41882D01*
X82672Y-41865D01*
X82629Y-41800D01*
X81927Y-41098D01*
X81862Y-41055D01*
X81786Y-41040D01*
X81269Y-41040D01*
X81629Y-40679D01*
X81672Y-40614D01*
X81676Y-40598D01*
X81796Y-40598D01*
X81857Y-40572D01*
X81903Y-40526D01*
X81928Y-40465D01*
X81928Y-40400D01*
X81928Y-39534D01*
X81903Y-39473D01*
X81857Y-39427D01*
X81796Y-39401D01*
X81730Y-39401D01*
X81290Y-39401D01*
X81290Y-39064D01*
X81312Y-39041D01*
X81312Y-39122D01*
X81357Y-39230D01*
X81440Y-39313D01*
X81548Y-39358D01*
X81666Y-39358D01*
X81774Y-39313D01*
X81857Y-39230D01*
X81902Y-39122D01*
X81902Y-39042D01*
X82060Y-39042D01*
X82098Y-39026D01*
X82114Y-39042D01*
X82160Y-39061D01*
X82202Y-39061D01*
X82234Y-39030D01*
X82234Y-38857D01*
X82192Y-38857D01*
X82192Y-38844D01*
X82192Y-38700D01*
X82234Y-38700D01*
X82234Y-38527D01*
X82202Y-38496D01*
X82192Y-38496D01*
X82192Y-38332D01*
X82182Y-38306D01*
X82192Y-38280D01*
X82192Y-38214D01*
X82192Y-38017D01*
X82182Y-37992D01*
X82192Y-37966D01*
X82192Y-37900D01*
X82192Y-37703D01*
X82182Y-37677D01*
X82192Y-37651D01*
X82192Y-37585D01*
X82192Y-37527D01*
X82217Y-37527D01*
X82373Y-37527D01*
X82373Y-37651D01*
X82399Y-37712D01*
X82413Y-37726D01*
X82413Y-37754D01*
X82445Y-37785D01*
X82617Y-37785D01*
X82617Y-37783D01*
X82759Y-37783D01*
X82759Y-38192D01*
X82760Y-38200D01*
X82617Y-38200D01*
X82617Y-38198D01*
X82617Y-38099D01*
X82617Y-38027D01*
X82617Y-37956D01*
X82617Y-37884D01*
X82445Y-37884D01*
X82413Y-37915D01*
X82413Y-37958D01*
X82427Y-37992D01*
X82413Y-38025D01*
X82413Y-38068D01*
X82445Y-38099D01*
X82617Y-38099D01*
X82617Y-38198D01*
X82445Y-38198D01*
X82413Y-38229D01*
X82413Y-38257D01*
X82399Y-38272D01*
X82373Y-38332D01*
X82373Y-38398D01*
X82373Y-38496D01*
X82363Y-38496D01*
X82332Y-38527D01*
X82332Y-38700D01*
X82373Y-38700D01*
X82373Y-38713D01*
X82373Y-38857D01*
X82332Y-38857D01*
X82332Y-39030D01*
X82363Y-39061D01*
X82406Y-39061D01*
X82452Y-39042D01*
X82468Y-39026D01*
X82506Y-39042D01*
X82571Y-39042D01*
X82886Y-39042D01*
X82947Y-39017D01*
X82993Y-38971D01*
X83018Y-38910D01*
X83018Y-38844D01*
X83018Y-38647D01*
X83008Y-38621D01*
X83018Y-38595D01*
X83018Y-38582D01*
X83098Y-38582D01*
X83098Y-42460D01*
X83098Y-42460D01*
G37*
G54D55*
X83098Y-42460D02*
X82928Y-42630D01*
X82928Y-42014D01*
X82928Y-40465D01*
X82928Y-40400D01*
X82928Y-39534D01*
X82903Y-39473D01*
X82857Y-39427D01*
X82796Y-39401D01*
X82730Y-39401D01*
X82179Y-39401D01*
X82119Y-39427D01*
X82072Y-39473D01*
X82047Y-39534D01*
X82047Y-39599D01*
X82047Y-40465D01*
X82072Y-40526D01*
X82119Y-40572D01*
X82179Y-40598D01*
X82245Y-40598D01*
X82796Y-40598D01*
X82857Y-40572D01*
X82903Y-40526D01*
X82928Y-40465D01*
X82928Y-42014D01*
X82903Y-41953D01*
X82857Y-41907D01*
X82796Y-41882D01*
X82730Y-41882D01*
X82676Y-41882D01*
X82672Y-41865D01*
X82629Y-41800D01*
X81927Y-41098D01*
X81862Y-41055D01*
X81786Y-41040D01*
X81269Y-41040D01*
X81629Y-40679D01*
X81672Y-40614D01*
X81676Y-40598D01*
X81796Y-40598D01*
X81857Y-40572D01*
X81903Y-40526D01*
X81928Y-40465D01*
X81928Y-40400D01*
X81928Y-39534D01*
X81903Y-39473D01*
X81857Y-39427D01*
X81796Y-39401D01*
X81730Y-39401D01*
X81290Y-39401D01*
X81290Y-39064D01*
X81312Y-39041D01*
X81312Y-39122D01*
X81357Y-39230D01*
X81440Y-39313D01*
X81548Y-39358D01*
X81666Y-39358D01*
X81774Y-39313D01*
X81857Y-39230D01*
X81902Y-39122D01*
X81902Y-39042D01*
X82060Y-39042D01*
X82098Y-39026D01*
X82114Y-39042D01*
X82160Y-39061D01*
X82202Y-39061D01*
X82234Y-39030D01*
X82234Y-38857D01*
X82192Y-38857D01*
X82192Y-38844D01*
X82192Y-38700D01*
X82234Y-38700D01*
X82234Y-38527D01*
X82202Y-38496D01*
X82192Y-38496D01*
X82192Y-38332D01*
X82182Y-38306D01*
X82192Y-38280D01*
X82192Y-38214D01*
X82192Y-38017D01*
X82182Y-37992D01*
X82192Y-37966D01*
X82192Y-37900D01*
X82192Y-37703D01*
X82182Y-37677D01*
X82192Y-37651D01*
X82192Y-37585D01*
X82192Y-37527D01*
X82217Y-37527D01*
X82373Y-37527D01*
X82373Y-37651D01*
X82399Y-37712D01*
X82413Y-37726D01*
X82413Y-37754D01*
X82445Y-37785D01*
X82617Y-37785D01*
X82617Y-37783D01*
X82759Y-37783D01*
X82759Y-38192D01*
X82760Y-38200D01*
X82617Y-38200D01*
X82617Y-38198D01*
X82617Y-38099D01*
X82617Y-38027D01*
X82617Y-37956D01*
X82617Y-37884D01*
X82445Y-37884D01*
X82413Y-37915D01*
X82413Y-37958D01*
X82427Y-37992D01*
X82413Y-38025D01*
X82413Y-38068D01*
X82445Y-38099D01*
X82617Y-38099D01*
X82617Y-38198D01*
X82445Y-38198D01*
X82413Y-38229D01*
X82413Y-38257D01*
X82399Y-38272D01*
X82373Y-38332D01*
X82373Y-38398D01*
X82373Y-38496D01*
X82363Y-38496D01*
X82332Y-38527D01*
X82332Y-38700D01*
X82373Y-38700D01*
X82373Y-38713D01*
X82373Y-38857D01*
X82332Y-38857D01*
X82332Y-39030D01*
X82363Y-39061D01*
X82406Y-39061D01*
X82452Y-39042D01*
X82468Y-39026D01*
X82506Y-39042D01*
X82571Y-39042D01*
X82886Y-39042D01*
X82947Y-39017D01*
X82993Y-38971D01*
X83018Y-38910D01*
X83018Y-38844D01*
X83018Y-38647D01*
X83008Y-38621D01*
X83018Y-38595D01*
X83018Y-38582D01*
X83098Y-38582D01*
X83098Y-42460D01*
G54D10*
G36*
X83738Y-52122D02*
X83444Y-52122D01*
X83444Y-49941D01*
X83399Y-49833D01*
X83316Y-49750D01*
X83208Y-49705D01*
X83091Y-49704D01*
X82982Y-49749D01*
X82899Y-49832D01*
X82854Y-49941D01*
X82854Y-50058D01*
X82899Y-50166D01*
X82982Y-50249D01*
X83090Y-50294D01*
X83208Y-50295D01*
X83316Y-50250D01*
X83399Y-50167D01*
X83444Y-50058D01*
X83444Y-49941D01*
X83444Y-52122D01*
X82645Y-52122D01*
X82645Y-51345D01*
X82620Y-51284D01*
X82573Y-51238D01*
X82513Y-51212D01*
X82447Y-51212D01*
X82053Y-51212D01*
X81992Y-51238D01*
X81959Y-51271D01*
X81914Y-51252D01*
X81864Y-51252D01*
X81822Y-51252D01*
X81790Y-51284D01*
X81790Y-51666D01*
X81805Y-51666D01*
X81805Y-51876D01*
X81790Y-51876D01*
X81790Y-51884D01*
X81593Y-51884D01*
X81593Y-51876D01*
X81579Y-51876D01*
X81579Y-51666D01*
X81593Y-51666D01*
X81593Y-51284D01*
X81562Y-51252D01*
X81520Y-51252D01*
X81470Y-51252D01*
X81426Y-51271D01*
X81392Y-51238D01*
X81332Y-51212D01*
X81266Y-51212D01*
X80872Y-51212D01*
X80811Y-51238D01*
X80806Y-51243D01*
X80801Y-51238D01*
X80741Y-51212D01*
X80675Y-51212D01*
X80281Y-51212D01*
X80220Y-51238D01*
X80216Y-51242D01*
X80211Y-51238D01*
X80151Y-51212D01*
X80085Y-51212D01*
X79691Y-51212D01*
X79630Y-51238D01*
X79625Y-51243D01*
X79620Y-51238D01*
X79560Y-51212D01*
X79494Y-51212D01*
X79100Y-51212D01*
X79039Y-51238D01*
X79035Y-51242D01*
X79030Y-51238D01*
X78970Y-51212D01*
X78904Y-51212D01*
X78510Y-51212D01*
X78449Y-51238D01*
X78444Y-51243D01*
X78439Y-51238D01*
X78379Y-51212D01*
X78313Y-51212D01*
X77919Y-51212D01*
X77858Y-51238D01*
X77825Y-51271D01*
X77781Y-51252D01*
X77731Y-51252D01*
X77689Y-51252D01*
X77657Y-51284D01*
X77657Y-51666D01*
X77672Y-51666D01*
X77672Y-51876D01*
X77657Y-51876D01*
X77657Y-51884D01*
X77460Y-51884D01*
X77460Y-51876D01*
X77446Y-51876D01*
X77446Y-51666D01*
X77460Y-51666D01*
X77460Y-51284D01*
X77429Y-51252D01*
X77387Y-51252D01*
X77337Y-51252D01*
X77292Y-51271D01*
X77258Y-51238D01*
X77198Y-51212D01*
X77132Y-51212D01*
X76738Y-51212D01*
X76677Y-51238D01*
X76631Y-51284D01*
X76606Y-51345D01*
X76606Y-51410D01*
X76606Y-52122D01*
X76082Y-52122D01*
X76084Y-52120D01*
X76109Y-52059D01*
X76109Y-51993D01*
X76109Y-51730D01*
X76319Y-51520D01*
X76362Y-51455D01*
X76362Y-51455D01*
X76377Y-51378D01*
X76377Y-48488D01*
X76427Y-48438D01*
X76472Y-48329D01*
X76472Y-48212D01*
X76428Y-48103D01*
X76345Y-48020D01*
X76236Y-47975D01*
X76119Y-47975D01*
X76115Y-47977D01*
X76083Y-47930D01*
X75649Y-47496D01*
X75584Y-47453D01*
X75519Y-47440D01*
X75519Y-47353D01*
X75494Y-47292D01*
X75479Y-47277D01*
X75479Y-47185D01*
X75479Y-47164D01*
X75460Y-47118D01*
X75425Y-47083D01*
X75379Y-47063D01*
X75322Y-47063D01*
X75291Y-47095D01*
X75291Y-47216D01*
X75448Y-47216D01*
X75479Y-47185D01*
X75479Y-47277D01*
X75447Y-47245D01*
X75387Y-47220D01*
X75321Y-47220D01*
X75200Y-47220D01*
X75220Y-47174D01*
X75220Y-47108D01*
X75220Y-46856D01*
X75194Y-46796D01*
X75148Y-46749D01*
X75087Y-46724D01*
X75022Y-46724D01*
X74912Y-46724D01*
X74851Y-46749D01*
X74805Y-46796D01*
X74803Y-46800D01*
X74801Y-46796D01*
X74754Y-46749D01*
X74694Y-46724D01*
X74628Y-46724D01*
X74518Y-46724D01*
X74507Y-46729D01*
X74497Y-46724D01*
X74487Y-46724D01*
X74488Y-46724D01*
X74985Y-46227D01*
X75028Y-46162D01*
X75043Y-46085D01*
X75043Y-44935D01*
X75028Y-44859D01*
X75028Y-44859D01*
X74985Y-44794D01*
X74840Y-44649D01*
X74775Y-44605D01*
X74698Y-44590D01*
X74173Y-44590D01*
X74096Y-44605D01*
X74031Y-44649D01*
X73775Y-44905D01*
X73765Y-44915D01*
X73714Y-44894D01*
X73648Y-44894D01*
X73412Y-44894D01*
X73351Y-44919D01*
X73348Y-44922D01*
X73321Y-44856D01*
X73238Y-44773D01*
X73138Y-44732D01*
X73232Y-44638D01*
X73276Y-44573D01*
X73291Y-44496D01*
X73291Y-44445D01*
X73320Y-44416D01*
X73320Y-44260D01*
X73312Y-44260D01*
X73312Y-44155D01*
X73538Y-44155D01*
X73538Y-44260D01*
X73530Y-44260D01*
X73530Y-44416D01*
X73561Y-44447D01*
X73625Y-44447D01*
X73675Y-44447D01*
X73721Y-44428D01*
X73756Y-44393D01*
X73775Y-44347D01*
X73775Y-44302D01*
X73775Y-44291D01*
X73775Y-44226D01*
X73809Y-44249D01*
X73885Y-44264D01*
X75700Y-44264D01*
X75378Y-44450D01*
X75338Y-44502D01*
X75321Y-44565D01*
X75330Y-44631D01*
X75363Y-44687D01*
X75658Y-45199D01*
X75710Y-45239D01*
X75773Y-45256D01*
X75838Y-45247D01*
X75895Y-45214D01*
X76407Y-44919D01*
X76447Y-44867D01*
X76464Y-44804D01*
X76455Y-44740D01*
X76482Y-44751D01*
X76665Y-44751D01*
X76781Y-44703D01*
X76768Y-44770D01*
X76768Y-44913D01*
X76738Y-44913D01*
X76677Y-44939D01*
X76631Y-44985D01*
X76606Y-45046D01*
X76606Y-45111D01*
X76606Y-45898D01*
X76631Y-45959D01*
X76677Y-46005D01*
X76738Y-46030D01*
X76804Y-46030D01*
X77198Y-46030D01*
X77258Y-46005D01*
X77263Y-46000D01*
X77268Y-46005D01*
X77329Y-46030D01*
X77395Y-46030D01*
X77789Y-46030D01*
X77849Y-46005D01*
X77883Y-45972D01*
X77927Y-45990D01*
X77977Y-45990D01*
X78019Y-45990D01*
X78050Y-45959D01*
X78050Y-45577D01*
X78036Y-45577D01*
X78036Y-45367D01*
X78050Y-45367D01*
X78050Y-45359D01*
X78247Y-45359D01*
X78247Y-45367D01*
X78262Y-45367D01*
X78262Y-45577D01*
X78247Y-45577D01*
X78247Y-45959D01*
X78279Y-45990D01*
X78321Y-45990D01*
X78371Y-45990D01*
X78416Y-45972D01*
X78449Y-46005D01*
X78510Y-46030D01*
X78576Y-46030D01*
X78970Y-46030D01*
X79030Y-46005D01*
X79035Y-46001D01*
X79039Y-46005D01*
X79100Y-46030D01*
X79166Y-46030D01*
X79560Y-46030D01*
X79620Y-46005D01*
X79625Y-46000D01*
X79630Y-46005D01*
X79691Y-46030D01*
X79733Y-46030D01*
X79736Y-46047D01*
X79780Y-46112D01*
X79844Y-46155D01*
X79921Y-46171D01*
X80019Y-46171D01*
X79986Y-46204D01*
X79941Y-46312D01*
X79940Y-46430D01*
X79985Y-46538D01*
X80068Y-46621D01*
X80177Y-46666D01*
X80294Y-46666D01*
X80402Y-46621D01*
X80485Y-46538D01*
X80530Y-46430D01*
X80531Y-46313D01*
X80486Y-46204D01*
X80452Y-46171D01*
X82541Y-46171D01*
X82617Y-46155D01*
X82682Y-46112D01*
X82920Y-45874D01*
X82964Y-45809D01*
X82979Y-45733D01*
X82979Y-43949D01*
X83589Y-43339D01*
X83632Y-43274D01*
X83632Y-43274D01*
X83647Y-43197D01*
X83647Y-32562D01*
X83632Y-32485D01*
X83632Y-32485D01*
X83589Y-32420D01*
X83292Y-32123D01*
X83373Y-32090D01*
X83456Y-32007D01*
X83501Y-31899D01*
X83501Y-31781D01*
X83457Y-31673D01*
X83374Y-31590D01*
X83265Y-31545D01*
X83148Y-31545D01*
X83084Y-31571D01*
X83072Y-31541D01*
X83026Y-31494D01*
X82965Y-31469D01*
X82899Y-31469D01*
X82585Y-31469D01*
X82525Y-31494D01*
X82478Y-31541D01*
X82453Y-31601D01*
X82453Y-31667D01*
X82453Y-31981D01*
X82478Y-32042D01*
X82523Y-32086D01*
X82478Y-32131D01*
X82460Y-32175D01*
X82265Y-31980D01*
X82279Y-31944D01*
X82279Y-31878D01*
X82279Y-31628D01*
X82254Y-31568D01*
X82208Y-31521D01*
X82147Y-31496D01*
X82081Y-31496D01*
X81631Y-31496D01*
X81571Y-31521D01*
X81524Y-31568D01*
X81515Y-31591D01*
X81420Y-31591D01*
X81399Y-31541D01*
X81352Y-31494D01*
X81292Y-31469D01*
X81226Y-31469D01*
X80912Y-31469D01*
X80851Y-31494D01*
X80805Y-31541D01*
X80780Y-31601D01*
X80780Y-31667D01*
X80780Y-31959D01*
X80752Y-31978D01*
X80698Y-32031D01*
X80655Y-32096D01*
X80640Y-32172D01*
X80640Y-32185D01*
X80610Y-32155D01*
X80564Y-32136D01*
X80515Y-32136D01*
X80451Y-32136D01*
X80419Y-32167D01*
X80419Y-32324D01*
X80427Y-32324D01*
X80427Y-32435D01*
X80202Y-32435D01*
X80202Y-32324D01*
X80209Y-32324D01*
X80209Y-32167D01*
X80198Y-32156D01*
X80215Y-32114D01*
X80215Y-32076D01*
X80572Y-32076D01*
X80633Y-32051D01*
X80679Y-32005D01*
X80704Y-31944D01*
X80704Y-31878D01*
X80704Y-31628D01*
X80679Y-31568D01*
X80633Y-31521D01*
X80572Y-31496D01*
X80507Y-31496D01*
X80057Y-31496D01*
X79996Y-31521D01*
X79950Y-31568D01*
X79940Y-31591D01*
X79845Y-31591D01*
X79824Y-31541D01*
X79778Y-31494D01*
X79717Y-31469D01*
X79651Y-31469D01*
X79337Y-31469D01*
X79277Y-31494D01*
X79230Y-31541D01*
X79205Y-31601D01*
X79205Y-31667D01*
X79205Y-31981D01*
X79211Y-31994D01*
X79148Y-31994D01*
X79117Y-31973D01*
X79130Y-31944D01*
X79130Y-31878D01*
X79130Y-31628D01*
X79105Y-31568D01*
X79058Y-31521D01*
X78997Y-31496D01*
X78932Y-31496D01*
X78482Y-31496D01*
X78421Y-31521D01*
X78375Y-31568D01*
X78365Y-31591D01*
X78270Y-31591D01*
X78249Y-31541D01*
X78203Y-31494D01*
X78142Y-31469D01*
X78076Y-31469D01*
X77762Y-31469D01*
X77702Y-31494D01*
X77655Y-31541D01*
X77630Y-31601D01*
X77630Y-31667D01*
X77630Y-31981D01*
X77655Y-32042D01*
X77700Y-32086D01*
X77655Y-32131D01*
X77630Y-32191D01*
X77630Y-32257D01*
X77630Y-32261D01*
X77470Y-32100D01*
X77470Y-31889D01*
X77455Y-31813D01*
X77411Y-31748D01*
X77346Y-31704D01*
X77313Y-31698D01*
X77305Y-31678D01*
X77258Y-31631D01*
X77197Y-31606D01*
X77132Y-31606D01*
X76699Y-31606D01*
X76638Y-31631D01*
X76592Y-31678D01*
X76567Y-31738D01*
X76567Y-31804D01*
X76567Y-32040D01*
X76592Y-32101D01*
X76626Y-32135D01*
X76592Y-32170D01*
X76567Y-32230D01*
X76567Y-32296D01*
X76567Y-32532D01*
X76592Y-32593D01*
X76626Y-32627D01*
X76592Y-32662D01*
X76567Y-32722D01*
X76567Y-32788D01*
X76567Y-33024D01*
X76592Y-33085D01*
X76626Y-33119D01*
X76592Y-33154D01*
X76567Y-33214D01*
X76567Y-33280D01*
X76567Y-33516D01*
X76592Y-33577D01*
X76638Y-33623D01*
X76699Y-33648D01*
X76764Y-33648D01*
X77197Y-33648D01*
X77258Y-33623D01*
X77305Y-33577D01*
X77330Y-33516D01*
X77330Y-33450D01*
X77330Y-33214D01*
X77305Y-33154D01*
X77270Y-33119D01*
X77305Y-33085D01*
X77330Y-33024D01*
X77330Y-32958D01*
X77330Y-32879D01*
X77689Y-33238D01*
X77689Y-33464D01*
X77161Y-33992D01*
X77118Y-34057D01*
X77102Y-34133D01*
X77102Y-34188D01*
X76739Y-34551D01*
X76739Y-34415D01*
X76714Y-34355D01*
X76668Y-34308D01*
X76607Y-34283D01*
X76541Y-34283D01*
X76424Y-34283D01*
X76424Y-33508D01*
X76424Y-33458D01*
X76424Y-33456D01*
X76424Y-33275D01*
X76424Y-33272D01*
X76424Y-33222D01*
X76424Y-33016D01*
X76424Y-32966D01*
X76424Y-32964D01*
X76392Y-32932D01*
X76187Y-32932D01*
X76187Y-33085D01*
X76218Y-33116D01*
X76324Y-33116D01*
X76369Y-33097D01*
X76405Y-33062D01*
X76424Y-33016D01*
X76424Y-33222D01*
X76405Y-33176D01*
X76369Y-33141D01*
X76324Y-33122D01*
X76218Y-33122D01*
X76187Y-33154D01*
X76187Y-33306D01*
X76392Y-33306D01*
X76424Y-33275D01*
X76424Y-33456D01*
X76392Y-33424D01*
X76187Y-33424D01*
X76187Y-33577D01*
X76218Y-33608D01*
X76324Y-33608D01*
X76369Y-33589D01*
X76405Y-33554D01*
X76424Y-33508D01*
X76424Y-34283D01*
X75977Y-34283D01*
X75977Y-33577D01*
X75977Y-33424D01*
X75977Y-33306D01*
X75977Y-33154D01*
X75977Y-33085D01*
X75977Y-32932D01*
X75772Y-32932D01*
X75741Y-32964D01*
X75741Y-32966D01*
X75741Y-33016D01*
X75760Y-33062D01*
X75795Y-33097D01*
X75841Y-33116D01*
X75946Y-33116D01*
X75977Y-33085D01*
X75977Y-33154D01*
X75946Y-33122D01*
X75841Y-33122D01*
X75795Y-33141D01*
X75760Y-33176D01*
X75741Y-33222D01*
X75741Y-33272D01*
X75741Y-33275D01*
X75772Y-33306D01*
X75977Y-33306D01*
X75977Y-33424D01*
X75772Y-33424D01*
X75741Y-33456D01*
X75741Y-33458D01*
X75741Y-33508D01*
X75760Y-33554D01*
X75795Y-33589D01*
X75841Y-33608D01*
X75946Y-33608D01*
X75977Y-33577D01*
X75977Y-34283D01*
X75738Y-34283D01*
X75793Y-34261D01*
X75876Y-34178D01*
X75921Y-34069D01*
X75921Y-33952D01*
X75876Y-33844D01*
X75793Y-33760D01*
X75685Y-33715D01*
X75567Y-33715D01*
X75546Y-33724D01*
X75546Y-33609D01*
X75546Y-33553D01*
X75546Y-33366D01*
X75546Y-33309D01*
X75546Y-33028D01*
X75546Y-32972D01*
X75546Y-32784D01*
X75546Y-32728D01*
X75527Y-32682D01*
X75492Y-32647D01*
X75446Y-32628D01*
X75396Y-32628D01*
X75333Y-32628D01*
X75301Y-32659D01*
X75301Y-32816D01*
X75515Y-32816D01*
X75546Y-32784D01*
X75546Y-32972D01*
X75515Y-32941D01*
X75301Y-32941D01*
X75301Y-33097D01*
X75333Y-33128D01*
X75396Y-33128D01*
X75446Y-33128D01*
X75492Y-33109D01*
X75527Y-33074D01*
X75546Y-33028D01*
X75546Y-33309D01*
X75527Y-33264D01*
X75492Y-33228D01*
X75446Y-33209D01*
X75396Y-33209D01*
X75333Y-33209D01*
X75301Y-33241D01*
X75301Y-33397D01*
X75515Y-33397D01*
X75546Y-33366D01*
X75546Y-33553D01*
X75515Y-33522D01*
X75301Y-33522D01*
X75301Y-33678D01*
X75333Y-33709D01*
X75396Y-33709D01*
X75446Y-33709D01*
X75492Y-33690D01*
X75527Y-33655D01*
X75546Y-33609D01*
X75546Y-33724D01*
X75459Y-33760D01*
X75450Y-33769D01*
X75389Y-33769D01*
X75021Y-33769D01*
X75021Y-33709D01*
X75060Y-33709D01*
X75091Y-33678D01*
X75091Y-33522D01*
X75083Y-33522D01*
X75083Y-33397D01*
X75091Y-33397D01*
X75091Y-33241D01*
X75060Y-33209D01*
X75021Y-33209D01*
X75021Y-33128D01*
X75060Y-33128D01*
X75091Y-33097D01*
X75091Y-32941D01*
X75083Y-32941D01*
X75083Y-32816D01*
X75091Y-32816D01*
X75091Y-32659D01*
X75060Y-32628D01*
X75021Y-32628D01*
X75021Y-32568D01*
X75454Y-32568D01*
X75515Y-32543D01*
X75561Y-32497D01*
X75573Y-32469D01*
X75603Y-32463D01*
X75668Y-32420D01*
X75672Y-32414D01*
X75701Y-32443D01*
X75701Y-32532D01*
X75726Y-32593D01*
X75772Y-32639D01*
X75796Y-32649D01*
X75795Y-32649D01*
X75760Y-32684D01*
X75741Y-32730D01*
X75741Y-32780D01*
X75741Y-32783D01*
X75772Y-32814D01*
X75977Y-32814D01*
X75977Y-32760D01*
X76187Y-32760D01*
X76187Y-32814D01*
X76392Y-32814D01*
X76424Y-32783D01*
X76424Y-32780D01*
X76424Y-32730D01*
X76405Y-32684D01*
X76369Y-32649D01*
X76369Y-32649D01*
X76392Y-32639D01*
X76439Y-32593D01*
X76464Y-32532D01*
X76464Y-32466D01*
X76464Y-32230D01*
X76439Y-32170D01*
X76404Y-32135D01*
X76439Y-32101D01*
X76464Y-32040D01*
X76464Y-31974D01*
X76464Y-31738D01*
X76439Y-31678D01*
X76392Y-31631D01*
X76331Y-31606D01*
X76266Y-31606D01*
X75833Y-31606D01*
X75772Y-31631D01*
X75726Y-31678D01*
X75717Y-31698D01*
X75684Y-31704D01*
X75619Y-31748D01*
X75589Y-31792D01*
X75491Y-31833D01*
X75408Y-31916D01*
X75378Y-31988D01*
X75021Y-31988D01*
X75021Y-31342D01*
X83738Y-31342D01*
X83738Y-52122D01*
X83738Y-52122D01*
G37*
G54D55*
X83738Y-52122D02*
X83444Y-52122D01*
X83444Y-49941D01*
X83399Y-49833D01*
X83316Y-49750D01*
X83208Y-49705D01*
X83091Y-49704D01*
X82982Y-49749D01*
X82899Y-49832D01*
X82854Y-49941D01*
X82854Y-50058D01*
X82899Y-50166D01*
X82982Y-50249D01*
X83090Y-50294D01*
X83208Y-50295D01*
X83316Y-50250D01*
X83399Y-50167D01*
X83444Y-50058D01*
X83444Y-49941D01*
X83444Y-52122D01*
X82645Y-52122D01*
X82645Y-51345D01*
X82620Y-51284D01*
X82573Y-51238D01*
X82513Y-51212D01*
X82447Y-51212D01*
X82053Y-51212D01*
X81992Y-51238D01*
X81959Y-51271D01*
X81914Y-51252D01*
X81864Y-51252D01*
X81822Y-51252D01*
X81790Y-51284D01*
X81790Y-51666D01*
X81805Y-51666D01*
X81805Y-51876D01*
X81790Y-51876D01*
X81790Y-51884D01*
X81593Y-51884D01*
X81593Y-51876D01*
X81579Y-51876D01*
X81579Y-51666D01*
X81593Y-51666D01*
X81593Y-51284D01*
X81562Y-51252D01*
X81520Y-51252D01*
X81470Y-51252D01*
X81426Y-51271D01*
X81392Y-51238D01*
X81332Y-51212D01*
X81266Y-51212D01*
X80872Y-51212D01*
X80811Y-51238D01*
X80806Y-51243D01*
X80801Y-51238D01*
X80741Y-51212D01*
X80675Y-51212D01*
X80281Y-51212D01*
X80220Y-51238D01*
X80216Y-51242D01*
X80211Y-51238D01*
X80151Y-51212D01*
X80085Y-51212D01*
X79691Y-51212D01*
X79630Y-51238D01*
X79625Y-51243D01*
X79620Y-51238D01*
X79560Y-51212D01*
X79494Y-51212D01*
X79100Y-51212D01*
X79039Y-51238D01*
X79035Y-51242D01*
X79030Y-51238D01*
X78970Y-51212D01*
X78904Y-51212D01*
X78510Y-51212D01*
X78449Y-51238D01*
X78444Y-51243D01*
X78439Y-51238D01*
X78379Y-51212D01*
X78313Y-51212D01*
X77919Y-51212D01*
X77858Y-51238D01*
X77825Y-51271D01*
X77781Y-51252D01*
X77731Y-51252D01*
X77689Y-51252D01*
X77657Y-51284D01*
X77657Y-51666D01*
X77672Y-51666D01*
X77672Y-51876D01*
X77657Y-51876D01*
X77657Y-51884D01*
X77460Y-51884D01*
X77460Y-51876D01*
X77446Y-51876D01*
X77446Y-51666D01*
X77460Y-51666D01*
X77460Y-51284D01*
X77429Y-51252D01*
X77387Y-51252D01*
X77337Y-51252D01*
X77292Y-51271D01*
X77258Y-51238D01*
X77198Y-51212D01*
X77132Y-51212D01*
X76738Y-51212D01*
X76677Y-51238D01*
X76631Y-51284D01*
X76606Y-51345D01*
X76606Y-51410D01*
X76606Y-52122D01*
X76082Y-52122D01*
X76084Y-52120D01*
X76109Y-52059D01*
X76109Y-51993D01*
X76109Y-51730D01*
X76319Y-51520D01*
X76362Y-51455D01*
X76362Y-51455D01*
X76377Y-51378D01*
X76377Y-48488D01*
X76427Y-48438D01*
X76472Y-48329D01*
X76472Y-48212D01*
X76428Y-48103D01*
X76345Y-48020D01*
X76236Y-47975D01*
X76119Y-47975D01*
X76115Y-47977D01*
X76083Y-47930D01*
X75649Y-47496D01*
X75584Y-47453D01*
X75519Y-47440D01*
X75519Y-47353D01*
X75494Y-47292D01*
X75479Y-47277D01*
X75479Y-47185D01*
X75479Y-47164D01*
X75460Y-47118D01*
X75425Y-47083D01*
X75379Y-47063D01*
X75322Y-47063D01*
X75291Y-47095D01*
X75291Y-47216D01*
X75448Y-47216D01*
X75479Y-47185D01*
X75479Y-47277D01*
X75447Y-47245D01*
X75387Y-47220D01*
X75321Y-47220D01*
X75200Y-47220D01*
X75220Y-47174D01*
X75220Y-47108D01*
X75220Y-46856D01*
X75194Y-46796D01*
X75148Y-46749D01*
X75087Y-46724D01*
X75022Y-46724D01*
X74912Y-46724D01*
X74851Y-46749D01*
X74805Y-46796D01*
X74803Y-46800D01*
X74801Y-46796D01*
X74754Y-46749D01*
X74694Y-46724D01*
X74628Y-46724D01*
X74518Y-46724D01*
X74507Y-46729D01*
X74497Y-46724D01*
X74487Y-46724D01*
X74488Y-46724D01*
X74985Y-46227D01*
X75028Y-46162D01*
X75043Y-46085D01*
X75043Y-44935D01*
X75028Y-44859D01*
X75028Y-44859D01*
X74985Y-44794D01*
X74840Y-44649D01*
X74775Y-44605D01*
X74698Y-44590D01*
X74173Y-44590D01*
X74096Y-44605D01*
X74031Y-44649D01*
X73775Y-44905D01*
X73765Y-44915D01*
X73714Y-44894D01*
X73648Y-44894D01*
X73412Y-44894D01*
X73351Y-44919D01*
X73348Y-44922D01*
X73321Y-44856D01*
X73238Y-44773D01*
X73138Y-44732D01*
X73232Y-44638D01*
X73276Y-44573D01*
X73291Y-44496D01*
X73291Y-44445D01*
X73320Y-44416D01*
X73320Y-44260D01*
X73312Y-44260D01*
X73312Y-44155D01*
X73538Y-44155D01*
X73538Y-44260D01*
X73530Y-44260D01*
X73530Y-44416D01*
X73561Y-44447D01*
X73625Y-44447D01*
X73675Y-44447D01*
X73721Y-44428D01*
X73756Y-44393D01*
X73775Y-44347D01*
X73775Y-44302D01*
X73775Y-44291D01*
X73775Y-44226D01*
X73809Y-44249D01*
X73885Y-44264D01*
X75700Y-44264D01*
X75378Y-44450D01*
X75338Y-44502D01*
X75321Y-44565D01*
X75330Y-44631D01*
X75363Y-44687D01*
X75658Y-45199D01*
X75710Y-45239D01*
X75773Y-45256D01*
X75838Y-45247D01*
X75895Y-45214D01*
X76407Y-44919D01*
X76447Y-44867D01*
X76464Y-44804D01*
X76455Y-44740D01*
X76482Y-44751D01*
X76665Y-44751D01*
X76781Y-44703D01*
X76768Y-44770D01*
X76768Y-44913D01*
X76738Y-44913D01*
X76677Y-44939D01*
X76631Y-44985D01*
X76606Y-45046D01*
X76606Y-45111D01*
X76606Y-45898D01*
X76631Y-45959D01*
X76677Y-46005D01*
X76738Y-46030D01*
X76804Y-46030D01*
X77198Y-46030D01*
X77258Y-46005D01*
X77263Y-46000D01*
X77268Y-46005D01*
X77329Y-46030D01*
X77395Y-46030D01*
X77789Y-46030D01*
X77849Y-46005D01*
X77883Y-45972D01*
X77927Y-45990D01*
X77977Y-45990D01*
X78019Y-45990D01*
X78050Y-45959D01*
X78050Y-45577D01*
X78036Y-45577D01*
X78036Y-45367D01*
X78050Y-45367D01*
X78050Y-45359D01*
X78247Y-45359D01*
X78247Y-45367D01*
X78262Y-45367D01*
X78262Y-45577D01*
X78247Y-45577D01*
X78247Y-45959D01*
X78279Y-45990D01*
X78321Y-45990D01*
X78371Y-45990D01*
X78416Y-45972D01*
X78449Y-46005D01*
X78510Y-46030D01*
X78576Y-46030D01*
X78970Y-46030D01*
X79030Y-46005D01*
X79035Y-46001D01*
X79039Y-46005D01*
X79100Y-46030D01*
X79166Y-46030D01*
X79560Y-46030D01*
X79620Y-46005D01*
X79625Y-46000D01*
X79630Y-46005D01*
X79691Y-46030D01*
X79733Y-46030D01*
X79736Y-46047D01*
X79780Y-46112D01*
X79844Y-46155D01*
X79921Y-46171D01*
X80019Y-46171D01*
X79986Y-46204D01*
X79941Y-46312D01*
X79940Y-46430D01*
X79985Y-46538D01*
X80068Y-46621D01*
X80177Y-46666D01*
X80294Y-46666D01*
X80402Y-46621D01*
X80485Y-46538D01*
X80530Y-46430D01*
X80531Y-46313D01*
X80486Y-46204D01*
X80452Y-46171D01*
X82541Y-46171D01*
X82617Y-46155D01*
X82682Y-46112D01*
X82920Y-45874D01*
X82964Y-45809D01*
X82979Y-45733D01*
X82979Y-43949D01*
X83589Y-43339D01*
X83632Y-43274D01*
X83632Y-43274D01*
X83647Y-43197D01*
X83647Y-32562D01*
X83632Y-32485D01*
X83632Y-32485D01*
X83589Y-32420D01*
X83292Y-32123D01*
X83373Y-32090D01*
X83456Y-32007D01*
X83501Y-31899D01*
X83501Y-31781D01*
X83457Y-31673D01*
X83374Y-31590D01*
X83265Y-31545D01*
X83148Y-31545D01*
X83084Y-31571D01*
X83072Y-31541D01*
X83026Y-31494D01*
X82965Y-31469D01*
X82899Y-31469D01*
X82585Y-31469D01*
X82525Y-31494D01*
X82478Y-31541D01*
X82453Y-31601D01*
X82453Y-31667D01*
X82453Y-31981D01*
X82478Y-32042D01*
X82523Y-32086D01*
X82478Y-32131D01*
X82460Y-32175D01*
X82265Y-31980D01*
X82279Y-31944D01*
X82279Y-31878D01*
X82279Y-31628D01*
X82254Y-31568D01*
X82208Y-31521D01*
X82147Y-31496D01*
X82081Y-31496D01*
X81631Y-31496D01*
X81571Y-31521D01*
X81524Y-31568D01*
X81515Y-31591D01*
X81420Y-31591D01*
X81399Y-31541D01*
X81352Y-31494D01*
X81292Y-31469D01*
X81226Y-31469D01*
X80912Y-31469D01*
X80851Y-31494D01*
X80805Y-31541D01*
X80780Y-31601D01*
X80780Y-31667D01*
X80780Y-31959D01*
X80752Y-31978D01*
X80698Y-32031D01*
X80655Y-32096D01*
X80640Y-32172D01*
X80640Y-32185D01*
X80610Y-32155D01*
X80564Y-32136D01*
X80515Y-32136D01*
X80451Y-32136D01*
X80419Y-32167D01*
X80419Y-32324D01*
X80427Y-32324D01*
X80427Y-32435D01*
X80202Y-32435D01*
X80202Y-32324D01*
X80209Y-32324D01*
X80209Y-32167D01*
X80198Y-32156D01*
X80215Y-32114D01*
X80215Y-32076D01*
X80572Y-32076D01*
X80633Y-32051D01*
X80679Y-32005D01*
X80704Y-31944D01*
X80704Y-31878D01*
X80704Y-31628D01*
X80679Y-31568D01*
X80633Y-31521D01*
X80572Y-31496D01*
X80507Y-31496D01*
X80057Y-31496D01*
X79996Y-31521D01*
X79950Y-31568D01*
X79940Y-31591D01*
X79845Y-31591D01*
X79824Y-31541D01*
X79778Y-31494D01*
X79717Y-31469D01*
X79651Y-31469D01*
X79337Y-31469D01*
X79277Y-31494D01*
X79230Y-31541D01*
X79205Y-31601D01*
X79205Y-31667D01*
X79205Y-31981D01*
X79211Y-31994D01*
X79148Y-31994D01*
X79117Y-31973D01*
X79130Y-31944D01*
X79130Y-31878D01*
X79130Y-31628D01*
X79105Y-31568D01*
X79058Y-31521D01*
X78997Y-31496D01*
X78932Y-31496D01*
X78482Y-31496D01*
X78421Y-31521D01*
X78375Y-31568D01*
X78365Y-31591D01*
X78270Y-31591D01*
X78249Y-31541D01*
X78203Y-31494D01*
X78142Y-31469D01*
X78076Y-31469D01*
X77762Y-31469D01*
X77702Y-31494D01*
X77655Y-31541D01*
X77630Y-31601D01*
X77630Y-31667D01*
X77630Y-31981D01*
X77655Y-32042D01*
X77700Y-32086D01*
X77655Y-32131D01*
X77630Y-32191D01*
X77630Y-32257D01*
X77630Y-32261D01*
X77470Y-32100D01*
X77470Y-31889D01*
X77455Y-31813D01*
X77411Y-31748D01*
X77346Y-31704D01*
X77313Y-31698D01*
X77305Y-31678D01*
X77258Y-31631D01*
X77197Y-31606D01*
X77132Y-31606D01*
X76699Y-31606D01*
X76638Y-31631D01*
X76592Y-31678D01*
X76567Y-31738D01*
X76567Y-31804D01*
X76567Y-32040D01*
X76592Y-32101D01*
X76626Y-32135D01*
X76592Y-32170D01*
X76567Y-32230D01*
X76567Y-32296D01*
X76567Y-32532D01*
X76592Y-32593D01*
X76626Y-32627D01*
X76592Y-32662D01*
X76567Y-32722D01*
X76567Y-32788D01*
X76567Y-33024D01*
X76592Y-33085D01*
X76626Y-33119D01*
X76592Y-33154D01*
X76567Y-33214D01*
X76567Y-33280D01*
X76567Y-33516D01*
X76592Y-33577D01*
X76638Y-33623D01*
X76699Y-33648D01*
X76764Y-33648D01*
X77197Y-33648D01*
X77258Y-33623D01*
X77305Y-33577D01*
X77330Y-33516D01*
X77330Y-33450D01*
X77330Y-33214D01*
X77305Y-33154D01*
X77270Y-33119D01*
X77305Y-33085D01*
X77330Y-33024D01*
X77330Y-32958D01*
X77330Y-32879D01*
X77689Y-33238D01*
X77689Y-33464D01*
X77161Y-33992D01*
X77118Y-34057D01*
X77102Y-34133D01*
X77102Y-34188D01*
X76739Y-34551D01*
X76739Y-34415D01*
X76714Y-34355D01*
X76668Y-34308D01*
X76607Y-34283D01*
X76541Y-34283D01*
X76424Y-34283D01*
X76424Y-33508D01*
X76424Y-33458D01*
X76424Y-33456D01*
X76424Y-33275D01*
X76424Y-33272D01*
X76424Y-33222D01*
X76424Y-33016D01*
X76424Y-32966D01*
X76424Y-32964D01*
X76392Y-32932D01*
X76187Y-32932D01*
X76187Y-33085D01*
X76218Y-33116D01*
X76324Y-33116D01*
X76369Y-33097D01*
X76405Y-33062D01*
X76424Y-33016D01*
X76424Y-33222D01*
X76405Y-33176D01*
X76369Y-33141D01*
X76324Y-33122D01*
X76218Y-33122D01*
X76187Y-33154D01*
X76187Y-33306D01*
X76392Y-33306D01*
X76424Y-33275D01*
X76424Y-33456D01*
X76392Y-33424D01*
X76187Y-33424D01*
X76187Y-33577D01*
X76218Y-33608D01*
X76324Y-33608D01*
X76369Y-33589D01*
X76405Y-33554D01*
X76424Y-33508D01*
X76424Y-34283D01*
X75977Y-34283D01*
X75977Y-33577D01*
X75977Y-33424D01*
X75977Y-33306D01*
X75977Y-33154D01*
X75977Y-33085D01*
X75977Y-32932D01*
X75772Y-32932D01*
X75741Y-32964D01*
X75741Y-32966D01*
X75741Y-33016D01*
X75760Y-33062D01*
X75795Y-33097D01*
X75841Y-33116D01*
X75946Y-33116D01*
X75977Y-33085D01*
X75977Y-33154D01*
X75946Y-33122D01*
X75841Y-33122D01*
X75795Y-33141D01*
X75760Y-33176D01*
X75741Y-33222D01*
X75741Y-33272D01*
X75741Y-33275D01*
X75772Y-33306D01*
X75977Y-33306D01*
X75977Y-33424D01*
X75772Y-33424D01*
X75741Y-33456D01*
X75741Y-33458D01*
X75741Y-33508D01*
X75760Y-33554D01*
X75795Y-33589D01*
X75841Y-33608D01*
X75946Y-33608D01*
X75977Y-33577D01*
X75977Y-34283D01*
X75738Y-34283D01*
X75793Y-34261D01*
X75876Y-34178D01*
X75921Y-34069D01*
X75921Y-33952D01*
X75876Y-33844D01*
X75793Y-33760D01*
X75685Y-33715D01*
X75567Y-33715D01*
X75546Y-33724D01*
X75546Y-33609D01*
X75546Y-33553D01*
X75546Y-33366D01*
X75546Y-33309D01*
X75546Y-33028D01*
X75546Y-32972D01*
X75546Y-32784D01*
X75546Y-32728D01*
X75527Y-32682D01*
X75492Y-32647D01*
X75446Y-32628D01*
X75396Y-32628D01*
X75333Y-32628D01*
X75301Y-32659D01*
X75301Y-32816D01*
X75515Y-32816D01*
X75546Y-32784D01*
X75546Y-32972D01*
X75515Y-32941D01*
X75301Y-32941D01*
X75301Y-33097D01*
X75333Y-33128D01*
X75396Y-33128D01*
X75446Y-33128D01*
X75492Y-33109D01*
X75527Y-33074D01*
X75546Y-33028D01*
X75546Y-33309D01*
X75527Y-33264D01*
X75492Y-33228D01*
X75446Y-33209D01*
X75396Y-33209D01*
X75333Y-33209D01*
X75301Y-33241D01*
X75301Y-33397D01*
X75515Y-33397D01*
X75546Y-33366D01*
X75546Y-33553D01*
X75515Y-33522D01*
X75301Y-33522D01*
X75301Y-33678D01*
X75333Y-33709D01*
X75396Y-33709D01*
X75446Y-33709D01*
X75492Y-33690D01*
X75527Y-33655D01*
X75546Y-33609D01*
X75546Y-33724D01*
X75459Y-33760D01*
X75450Y-33769D01*
X75389Y-33769D01*
X75021Y-33769D01*
X75021Y-33709D01*
X75060Y-33709D01*
X75091Y-33678D01*
X75091Y-33522D01*
X75083Y-33522D01*
X75083Y-33397D01*
X75091Y-33397D01*
X75091Y-33241D01*
X75060Y-33209D01*
X75021Y-33209D01*
X75021Y-33128D01*
X75060Y-33128D01*
X75091Y-33097D01*
X75091Y-32941D01*
X75083Y-32941D01*
X75083Y-32816D01*
X75091Y-32816D01*
X75091Y-32659D01*
X75060Y-32628D01*
X75021Y-32628D01*
X75021Y-32568D01*
X75454Y-32568D01*
X75515Y-32543D01*
X75561Y-32497D01*
X75573Y-32469D01*
X75603Y-32463D01*
X75668Y-32420D01*
X75672Y-32414D01*
X75701Y-32443D01*
X75701Y-32532D01*
X75726Y-32593D01*
X75772Y-32639D01*
X75796Y-32649D01*
X75795Y-32649D01*
X75760Y-32684D01*
X75741Y-32730D01*
X75741Y-32780D01*
X75741Y-32783D01*
X75772Y-32814D01*
X75977Y-32814D01*
X75977Y-32760D01*
X76187Y-32760D01*
X76187Y-32814D01*
X76392Y-32814D01*
X76424Y-32783D01*
X76424Y-32780D01*
X76424Y-32730D01*
X76405Y-32684D01*
X76369Y-32649D01*
X76369Y-32649D01*
X76392Y-32639D01*
X76439Y-32593D01*
X76464Y-32532D01*
X76464Y-32466D01*
X76464Y-32230D01*
X76439Y-32170D01*
X76404Y-32135D01*
X76439Y-32101D01*
X76464Y-32040D01*
X76464Y-31974D01*
X76464Y-31738D01*
X76439Y-31678D01*
X76392Y-31631D01*
X76331Y-31606D01*
X76266Y-31606D01*
X75833Y-31606D01*
X75772Y-31631D01*
X75726Y-31678D01*
X75717Y-31698D01*
X75684Y-31704D01*
X75619Y-31748D01*
X75589Y-31792D01*
X75491Y-31833D01*
X75408Y-31916D01*
X75378Y-31988D01*
X75021Y-31988D01*
X75021Y-31342D01*
X83738Y-31342D01*
X83738Y-52122D01*
M02*
