G04 ECAM II V6.0 Date:  Thu Jul 18 16:50:20 2013 *
G04 Database: c:\wip\87049.pcb *
G04 Layer 1: Working *
%FSTAX25Y25*%
%MOIN*%
%SFA1.000B1.000*%

%MIA0B0*%
%IPPOS*%
%AMacap0000*
20,1,0.12528,0.00000,-0.06264,0.00000,0.06264,0.00000*
20,0,0.00800,-0.00960,0.00000,0.08320,0.00000,0.00000*
1,0,0.00800,-0.00960,0.00000*
1,0,0.00800,0.08320,0.00000*
20,0,0.00800,0.08320,0.00000,-0.07710,0.00000,0.00000*
1,0,0.00800,0.08320,0.00000*
1,0,0.00800,-0.07710,0.00000*
20,0,0.00800,0.00020,0.00300,0.00020,0.06470,0.00000*
1,0,0.00800,0.00020,0.00300*
1,0,0.00800,0.00020,0.06470*
20,0,0.00800,0.00020,0.06470,0.00020,-0.06490,0.00000*
1,0,0.00800,0.00020,0.06470*
1,0,0.00800,0.00020,-0.06490*
%
%ADD11C,0.01500*%
%ADD12R,0.04500X0.02500*%
%ADD13R,0.02500X0.04500*%
%ADD14R,0.02760X0.04720*%
%ADD15R,0.03940X0.04720*%
%ADD16R,0.03940X0.03150*%
%ADD17R,0.03940X0.11020*%
%ADD18R,0.05120X0.07480*%
%ADD19R,0.02950X0.01380*%
%ADD70R,0.03540X0.11810*%
%ADD71R,0.03140X0.03140*%
%ADD20R,0.03000X0.03000*%
%ADD21R,0.03140X0.05100*%
%ADD22R,0.05100X0.03140*%
%ADD25R,0.01570X0.00790*%
%ADD26R,0.00790X0.01570*%
%ADD27R,0.02537X0.02537*%
%ADD28R,0.02737X0.02737*%
%ADD29R,0.04330X0.02360*%
%ADD72R,0.02559X0.01575*%
%ADD30R,0.03150X0.01970*%
%ADD31R,0.01970X0.03150*%
%ADD32R,0.01570X0.01180*%
%ADD33R,0.01180X0.01570*%
%ADD34R,0.03940X0.07870*%
%ADD38R,0.02360X0.02360*%
%ADD39R,0.02360X0.01570*%
%ADD40O,0.02362X0.01299*%
%ADD41O,0.01299X0.02362*%
%ADD43R,0.05512X0.02756*%
%ADD44R,0.04720X0.01370*%
%ADD46R,0.05709X0.08268*%
%ADD47R,0.09449X0.07480*%
%ADD48R,0.04528X0.07480*%
%ADD49R,0.11024X0.03937*%
%ADD50R,0.05512X0.08661*%
%ADD51R,0.05512X0.09449*%
%ADD52R,0.02760X0.01050*%
%ADD54R,0.03661X0.07795*%
%ADD56R,0.01250X0.03530*%
%ADD59R,0.01024X0.02520*%
%ADD60R,0.02520X0.01024*%
%ADD61R,0.06198X0.06198*%
%ADD62R,0.01317X0.05433*%
%ADD64acap0000*%
%ADD997C,0.00900*%
%ADD999C,0.00100*%
%LNWorking*%
%SRX1Y1I0J0*%
%LPD*%
G36*
X-02831Y-010275D02*
G01X-028255Y-01022D01*
X-028199Y-010275*
X-028255Y-010331*
X-02831Y-010275*
G37*
G54D12*
X-026975Y-007869D03*
Y-008469D03*
G54D13*
X-023132Y002559D03*
X-023732D03*
G54D12*
X-033373Y004434D03*
Y003834D03*
X-026385Y000094D03*
Y000694D03*
X-026582Y-004434D03*
Y-003834D03*
G54D13*
X-025799Y-000689D03*
X-025199D03*
X-032876Y008465D03*
X-033476D03*
X-032778Y002855D03*
X-033378D03*
G54D12*
X-022251Y-001865D03*
Y-002465D03*
X-024613Y-006205D03*
Y-005605D03*
X-023235Y-001865D03*
Y-002465D03*
X-032389Y004139D03*
Y003539D03*
X-031405Y004139D03*
Y003539D03*
X-033373Y006984D03*
Y007584D03*
Y006206D03*
Y005606D03*
X-030912Y-003253D03*
Y-002653D03*
X-027861Y-000005D03*
Y000595D03*
G54D13*
X-029835Y-001082D03*
X-029235D03*
G54D12*
X-031011Y000989D03*
Y000389D03*
G54D13*
X-029038Y002067D03*
X-029638D03*
G54D12*
X-02294Y-006205D03*
Y-005605D03*
X-025696Y-004434D03*
Y-003834D03*
X-026975Y-006205D03*
Y-005605D03*
X-025598D03*
Y-006205D03*
X-025401Y000094D03*
Y000694D03*
G54D13*
X-025602Y001575D03*
X-025002D03*
G54D12*
X-023235Y-003843D03*
Y-003243D03*
G54D13*
X-02451Y003839D03*
X-02511D03*
X-026488D03*
X-025888D03*
Y002855D03*
X-026488D03*
X-023732Y003839D03*
X-023132D03*
X-02451Y002855D03*
X-02511D03*
X-032492Y-003248D03*
X-031892D03*
X-032295Y-002264D03*
X-031695D03*
X-031212Y-001082D03*
X-030612D03*
X-029333Y-003248D03*
X-029933D03*
G54D12*
X-02481Y-00217D03*
Y-00157D03*
X-025794D03*
Y-00217D03*
G54D14*
X-029535Y-004094D03*
X-029968D03*
X-030401D03*
X-030834D03*
X-031267D03*
X-0317D03*
X-032133D03*
X-032566D03*
X-033D03*
G54D15*
X-028925D03*
X-033315Y-005787D03*
G54D16*
Y-008228D03*
G54D17*
Y-009861D03*
G54D18*
X-028Y-010039D03*
G54D19*
X-028324Y-010344D03*
G54D20*
X-025696Y-00793D03*
X-026071Y-00703D03*
X-025321D03*
G54D12*
X-033373Y009946D03*
Y009346D03*
G54D13*
X-028555Y-003248D03*
X-027955D03*
G54D12*
X-033373Y-001471D03*
Y-002071D03*
Y-002751D03*
Y-003351D03*
G54D21*
X-030518Y010138D03*
X-030989D03*
X-030044D03*
X-029573D03*
X-027684D03*
X-028156D03*
X-029101D03*
X-028629D03*
X-026739D03*
X-027211D03*
X-026266D03*
X-025794D03*
X-030991Y004942D03*
X-030518Y004941D03*
X-030046D03*
X-029574D03*
X-029101D03*
X-028629D03*
X-028156D03*
X-027684D03*
X-027211D03*
X-026739D03*
X-026266D03*
X-025794D03*
G54D22*
X-032093Y009154D03*
Y008761D03*
Y008249D03*
Y007776D03*
Y007304D03*
Y006831D03*
Y006281D03*
Y005888D03*
G54D13*
X030809Y-002657D03*
X031409D03*
G54D12*
X030223Y005409D03*
Y006009D03*
X025794Y009454D03*
Y008854D03*
G54D13*
X032787Y-002657D03*
X032187D03*
X032787Y-001673D03*
X032187D03*
G54D12*
X026779Y-001481D03*
Y-000881D03*
X024023Y-001865D03*
Y-002465D03*
G54D13*
X030917Y007481D03*
X030317D03*
G54D12*
X029338Y009946D03*
Y009346D03*
X030912Y009946D03*
Y009346D03*
X026385Y-008164D03*
Y-008764D03*
G54D13*
X030819Y00315D03*
X030219D03*
X031311Y004134D03*
X030711D03*
X027275Y003051D03*
X026675D03*
G54D12*
X023924Y004129D03*
Y004729D03*
G54D13*
X030917Y008465D03*
X030317D03*
G54D12*
X025401Y-008164D03*
Y-008764D03*
G54D13*
X022443Y-00374D03*
X023043D03*
G54D70*
X025027Y000099D03*
X025775D03*
X025027Y-001476D03*
X025775D03*
G54D71*
X026385Y-010137D03*
Y-009547D03*
X02855Y009351D03*
Y009941D03*
X030125Y009351D03*
Y009941D03*
X025598Y-010137D03*
Y-009547D03*
G54D25*
X022546Y-00002D03*
Y-000177D03*
Y-000335D03*
Y-000492D03*
Y-00065D03*
Y-000807D03*
Y-000964D03*
G54D26*
X022762Y-001181D03*
X02292D03*
X023077D03*
X023235D03*
X023392D03*
X02355D03*
X023707D03*
G54D25*
X023924Y-00002D03*
Y-000177D03*
Y-000335D03*
Y-000492D03*
Y-00065D03*
Y-000807D03*
Y-000965D03*
G54D26*
X022762Y000197D03*
X02292D03*
X023077D03*
X023235D03*
X023392D03*
X023549D03*
X023707D03*
G54D27*
X02292Y-000177D03*
X02355D03*
G54D28*
X023235Y-000492D03*
G54D27*
X02292Y-000807D03*
X02355D03*
G54D29*
X02668Y009843D03*
Y009351D03*
Y008859D03*
Y008367D03*
X027546Y009843D03*
Y009351D03*
Y008859D03*
Y008367D03*
G54D72*
X025962Y003327D03*
Y003012D03*
Y002697D03*
Y002382D03*
X024643D03*
Y002697D03*
Y003012D03*
Y003327D03*
G54D30*
X033294Y004527D03*
Y004212D03*
Y003897D03*
Y003583D03*
Y003268D03*
Y002953D03*
X032468Y004527D03*
Y004212D03*
Y003897D03*
Y003583D03*
Y003268D03*
Y002953D03*
G54D31*
X032881Y004527D03*
Y002953D03*
G54D32*
X031847Y007293D03*
Y008061D03*
Y007805D03*
Y007549D03*
X033127Y007293D03*
Y007549D03*
Y007805D03*
Y008061D03*
G54D33*
X032359Y008317D03*
X032103D03*
X032615D03*
X032871D03*
X032103Y007037D03*
X032359D03*
X032615D03*
X032871D03*
G54D34*
X032881Y-00374D03*
X03229D03*
X0317D03*
X031109D03*
X030519D03*
X029928D03*
X029338D03*
X028747D03*
X028157D03*
Y-010039D03*
X028747D03*
X029338D03*
X029928D03*
X030519D03*
X031109D03*
X0317D03*
X03229D03*
X032881D03*
X027566Y-00374D03*
Y-010039D03*
G54D38*
X024161Y-003445D03*
Y-004035D03*
X024869D03*
Y-003445D03*
G54D39*
X024161Y-00374D03*
X024869D03*
G54D40*
X027743Y001772D03*
Y00126D03*
Y001004D03*
Y000748D03*
Y000492D03*
Y000236D03*
Y-000019D03*
Y-000275D03*
Y-000531D03*
Y-000787D03*
G54D41*
X028157Y-001201D03*
X028412D03*
X028668D03*
X028924D03*
X02918D03*
X029436D03*
X029692D03*
X029948D03*
X030204D03*
X03046D03*
X030716D03*
G54D40*
X031129Y-000787D03*
Y-000531D03*
Y-000275D03*
Y-000019D03*
Y000236D03*
Y000492D03*
Y000748D03*
Y001004D03*
Y00126D03*
Y001516D03*
Y001772D03*
G54D41*
X030716Y002185D03*
X03046D03*
X030204D03*
X029948D03*
X029692D03*
X029436D03*
X02918D03*
X028924D03*
X028668D03*
X028412D03*
X028157D03*
G54D40*
X027743Y001516D03*
G54D43*
X023531Y003248D03*
Y002658D03*
G54D71*
X033373Y009351D03*
Y009941D03*
X0317Y009351D03*
Y009941D03*
G54D13*
X033378Y006201D03*
X032778D03*
X0314D03*
X032D03*
G54D12*
X032487Y009346D03*
Y009946D03*
G54D44*
X027498Y004615D03*
Y004359D03*
Y004105D03*
Y003849D03*
X0298D03*
Y004105D03*
Y004359D03*
Y004615D03*
G54D12*
X025794Y007673D03*
Y008273D03*
G54D13*
X022748Y004626D03*
X022148D03*
G54D46*
X022556Y-009173D03*
X024505D03*
G54D47*
X022389Y-010079D03*
X024672D03*
G54D48*
X023206D03*
X023855D03*
G54D49*
X028905Y005512D03*
X026621D03*
X028905Y007087D03*
X026621D03*
G54D50*
X032086Y001732D03*
X033086D03*
Y-000748D03*
G54D51*
X032086Y-000708D03*
G54D52*
X025988Y004134D03*
Y004331D03*
Y004527D03*
Y004724D03*
X025208D03*
Y004527D03*
Y004331D03*
Y004134D03*
G54D54*
X025302Y002855D03*
G54D56*
X025598Y004429D03*
G54D59*
Y-007118D03*
X025401D03*
X025204D03*
X025007D03*
X02481D03*
X024613D03*
X024416D03*
X02422D03*
G54D60*
X025826Y-005708D03*
Y-005905D03*
Y-006102D03*
Y-006299D03*
Y-006496D03*
Y-006693D03*
Y-00689D03*
X023991D03*
Y-006693D03*
Y-006496D03*
Y-006299D03*
Y-006102D03*
Y-005905D03*
Y-005708D03*
G54D59*
X025007Y-005283D03*
X025204D03*
X025401D03*
X025598D03*
G54D60*
X025826Y-005512D03*
G54D59*
X02422Y-005283D03*
X024416D03*
X024613D03*
X02481D03*
G54D60*
X023991Y-005512D03*
G54D61*
X024909Y-006201D03*
G54D62*
X024042Y-009031D03*
X023786D03*
X023531D03*
X023275D03*
X023019D03*
G54D64*
X029436Y000492D03*
G54D11*
X-037999Y01063D02*
G01Y-01063D01*
X-017527Y01063D02*
G01X-037999D01*
X-017527Y-01063D02*
G01Y01063D01*
X-037999Y-01063D02*
G01X-017527D01*
X037999Y01063D02*
G01Y-01063D01*
X017527Y01063D02*
G01X037999D01*
X017527Y-01063D02*
G01Y01063D01*
X037999Y-01063D02*
G01X017527D01*
G54D999*
X031545Y008674D02*
G01X033487D01*
Y006685*
X031545*
Y008674*
X031998Y005128D02*
G01X033767D01*
Y002461*
X031998*
Y005128*
X026956Y004895D02*
G01X030308D01*
Y003551*
X026956*
Y004895*
X024329Y004988D02*
G01X026311D01*
Y001962*
X024329*
Y004988*
X027349Y002626D02*
G01X031486D01*
Y-001737*
X027349*
Y002626*
X022194Y000618D02*
G01X024316D01*
Y-001537*
X022194*
Y000618*
X023504Y-004803D02*
G01X026364D01*
Y-007603*
X023504*
Y-004803*
G54D997*
G01X-0109175Y-016951D02*
X-0110425Y-016826D01*
X-01123Y-0167635D01*
X-01148D01*
X-0116675Y-016826D01*
X-0117925Y-016951D01*
Y-017076D01*
X-01173Y-017201D01*
X-0116675Y-0172635D01*
X-0115425Y-017326D01*
X-0111675Y-017451D01*
X-0110425Y-0175135D01*
X-01098Y-017576D01*
X-0109175Y-017701D01*
Y-0178885D01*
X-0110425Y-0180135D01*
X-01123Y-018076D01*
X-01148D01*
X-0116675Y-0180135D01*
X-0117925Y-0178885D01*
X-01023Y-0167635D02*
Y-018076D01*
X-0106675Y-0167635D02*
X-0097925D01*
X-00948D02*
Y-018076D01*
Y-0167635D02*
X-0086675D01*
X-00948Y-0173885D02*
X-00898D01*
X-00948Y-018076D02*
X-0086675D01*
X-0082925Y-0167635D02*
Y-018076D01*
Y-0167635D02*
X-0074175Y-018076D01*
Y-0167635D02*
Y-018076D01*
X-0060425Y-017076D02*
X-006105Y-016951D01*
X-00623Y-016826D01*
X-006355Y-0167635D01*
X-006605D01*
X-00673Y-016826D01*
X-006855Y-016951D01*
X-0069175Y-017076D01*
X-00698Y-0172635D01*
Y-017576D01*
X-0069175Y-0177635D01*
X-006855Y-0178885D01*
X-00673Y-0180135D01*
X-006605Y-018076D01*
X-006355D01*
X-00623Y-0180135D01*
X-006105Y-0178885D01*
X-0060425Y-0177635D01*
X-005605Y-0167635D02*
Y-018076D01*
X-005105Y-0167635D02*
Y-018076D01*
Y-018076D02*
X-004355D01*
X-0030425Y-0167635D02*
Y-017701D01*
X-00298Y-0178885D01*
X-002855Y-0180135D01*
X-0026675Y-018076D01*
X-0025425D01*
X-002355Y-0180135D01*
X-00223Y-0178885D01*
X-0021675Y-017701D01*
Y-0167635D01*
X-0016675D02*
Y-018076D01*
Y-0167635D02*
X-0007925Y-018076D01*
Y-0167635D02*
Y-018076D01*
X-0002925Y-0167635D02*
Y-018076D01*
Y-018076D02*
X0004575D01*
X00077Y-0167635D02*
Y-018076D01*
X00127Y-0167635D02*
Y-018076D01*
Y-0167635D02*
X00177Y-018076D01*
X00227Y-0167635D02*
X00177Y-018076D01*
X00227Y-0167635D02*
Y-018076D01*
X00277Y-0167635D02*
Y-018076D01*
X00352Y-0167635D02*
Y-018076D01*
X0030825Y-0167635D02*
X0039575D01*
X00427D02*
Y-018076D01*
Y-0167635D02*
X0050825D01*
X00427Y-0173885D02*
X00477D01*
X00427Y-018076D02*
X0050825D01*
X0054575Y-0167635D02*
Y-018076D01*
Y-0167635D02*
X005895D01*
X0060825Y-016826D01*
X0062075Y-016951D01*
X00627Y-017076D01*
X0063325Y-0172635D01*
Y-017576D01*
X00627Y-0177635D01*
X0062075Y-0178885D01*
X0060825Y-0180135D01*
X005895Y-018076D01*
X0054575D01*
X-010855Y-019326D02*
X-0109175Y-019201D01*
X-0110425Y-019076D01*
X-0111675Y-0190135D01*
X-0114175D01*
X-0115425Y-019076D01*
X-0116675Y-019201D01*
X-01173Y-019326D01*
X-0117925Y-0195135D01*
Y-019826D01*
X-01173Y-0200135D01*
X-0116675Y-0201385D01*
X-0115425Y-0202635D01*
X-0114175Y-020326D01*
X-0111675D01*
X-0110425Y-0202635D01*
X-0109175Y-0201385D01*
X-010855Y-0200135D01*
Y-019826D01*
X-0111675D02*
X-010855D01*
X-010105Y-0190135D02*
X-010605Y-020326D01*
X-010105Y-0190135D02*
X-009605Y-020326D01*
X-0104175Y-0198885D02*
X-0097925D01*
X-0092925Y-0190135D02*
Y-020326D01*
Y-0190135D02*
X-0087925Y-020326D01*
X-0082925Y-0190135D02*
X-0087925Y-020326D01*
X-0082925Y-0190135D02*
Y-020326D01*
X-0077925Y-0190135D02*
Y-020326D01*
Y-0190135D02*
X-0072925Y-020326D01*
X-0067925Y-0190135D02*
X-0072925Y-020326D01*
X-0067925Y-0190135D02*
Y-020326D01*
X-00598Y-0190135D02*
X-00648Y-020326D01*
X-00598Y-0190135D02*
X-00548Y-020326D01*
X-0062925Y-0198885D02*
X-0056675D01*
X-0041675Y-0197635D02*
X-0030425D01*
X-0012925Y-0190135D02*
Y-020326D01*
X-00173Y-0190135D02*
X-000855D01*
X-00023D02*
X-000355Y-019076D01*
X-00048Y-019201D01*
X-0005425Y-019326D01*
X-000605Y-0195135D01*
Y-019826D01*
X-0005425Y-0200135D01*
X-00048Y-0201385D01*
X-000355Y-0202635D01*
X-00023Y-020326D01*
X00002D01*
X000145Y-0202635D01*
X00027Y-0201385D01*
X0003325Y-0200135D01*
X000395Y-019826D01*
Y-0195135D01*
X0003325Y-019326D01*
X00027Y-019201D01*
X000145Y-019076D01*
X00002Y-0190135D01*
X-00023D01*
X0008325D02*
Y-020326D01*
Y-0190135D02*
X001395D01*
X0015825Y-019076D01*
X001645Y-0191385D01*
X0017075Y-0192635D01*
Y-019451D01*
X001645Y-019576D01*
X0015825Y-0196385D01*
X001395Y-019701D01*
X0008325D01*
X0043325Y-019576D02*
Y-0195135D01*
X00427Y-019451D01*
X0042075D01*
X004145Y-0195135D01*
X0040825Y-0196385D01*
X0039575Y-019951D01*
X0038325Y-0201385D01*
X0037075Y-0202635D01*
X0035825Y-020326D01*
X0033325D01*
X0032075Y-0202635D01*
X003145Y-020201D01*
X0030825Y-020076D01*
Y-019951D01*
X003145Y-019826D01*
X0032075Y-0197635D01*
X003645Y-0195135D01*
X0037075Y-019451D01*
X00377Y-019326D01*
Y-019201D01*
X0037075Y-019076D01*
X0035825Y-0190135D01*
X0034575Y-019076D01*
X003395Y-019201D01*
Y-019326D01*
X0034575Y-0195135D01*
X0035825Y-019701D01*
X003895Y-0201385D01*
X00402Y-0202635D01*
X004145Y-020326D01*
X00427D01*
X0043325Y-0202635D01*
Y-020201D01*
X00577Y-0190135D02*
Y-020326D01*
Y-0190135D02*
X0063325D01*
X00652Y-019076D01*
X0065825Y-0191385D01*
X006645Y-0192635D01*
Y-0193885D01*
X0065825Y-0195135D01*
X00652Y-019576D01*
X0063325Y-0196385D01*
X00577D02*
X0063325D01*
X00652Y-019701D01*
X0065825Y-0197635D01*
X006645Y-0198885D01*
Y-020076D01*
X0065825Y-020201D01*
X00652Y-0202635D01*
X0063325Y-020326D01*
X00577D01*
X007395Y-0190135D02*
X00727Y-019076D01*
X007145Y-019201D01*
X0070825Y-019326D01*
X00702Y-0195135D01*
Y-019826D01*
X0070825Y-0200135D01*
X007145Y-0201385D01*
X00727Y-0202635D01*
X007395Y-020326D01*
X007645D01*
X00777Y-0202635D01*
X007895Y-0201385D01*
X0079575Y-0200135D01*
X00802Y-019826D01*
Y-0195135D01*
X0079575Y-019326D01*
X007895Y-019201D01*
X00777Y-019076D01*
X007645Y-0190135D01*
X007395D01*
X0087075D02*
Y-020326D01*
X00827Y-0190135D02*
X009145D01*
X0097075D02*
Y-020326D01*
X00927Y-0190135D02*
X010145D01*
X01077D02*
X010645Y-019076D01*
X01052Y-019201D01*
X0104575Y-019326D01*
X010395Y-0195135D01*
Y-019826D01*
X0104575Y-0200135D01*
X01052Y-0201385D01*
X010645Y-0202635D01*
X01077Y-020326D01*
X01102D01*
X011145Y-0202635D01*
X01127Y-0201385D01*
X0113325Y-0200135D01*
X011395Y-019826D01*
Y-0195135D01*
X0113325Y-019326D01*
X01127Y-019201D01*
X011145Y-019076D01*
X01102Y-0190135D01*
X01077D01*
X0118325D02*
Y-020326D01*
Y-0190135D02*
X0123325Y-020326D01*
X0128325Y-0190135D02*
X0123325Y-020326D01*
X0128325Y-0190135D02*
Y-020326D01*
X-0114175Y-0212635D02*
X-011605Y-021326D01*
X-01173Y-0215135D01*
X-0117925Y-021826D01*
Y-0220135D01*
X-01173Y-022326D01*
X-011605Y-0225135D01*
X-0114175Y-022576D01*
X-0112925D01*
X-011105Y-0225135D01*
X-01098Y-022326D01*
X-0109175Y-0220135D01*
Y-021826D01*
X-01098Y-0215135D01*
X-011105Y-021326D01*
X-0112925Y-0212635D01*
X-0114175D01*
X-0101675D02*
X-010355Y-021326D01*
X-01048Y-0215135D01*
X-0105425Y-021826D01*
Y-0220135D01*
X-01048Y-022326D01*
X-010355Y-0225135D01*
X-0101675Y-022576D01*
X-0100425D01*
X-009855Y-0225135D01*
X-00973Y-022326D01*
X-0096675Y-0220135D01*
Y-021826D01*
X-00973Y-0215135D01*
X-009855Y-021326D01*
X-0100425Y-0212635D01*
X-0101675D01*
X-0091675D02*
X-00848D01*
X-008855Y-0217635D01*
X-0086675D01*
X-0085425Y-021826D01*
X-00848Y-0218885D01*
X-0084175Y-022076D01*
Y-022201D01*
X-00848Y-0223885D01*
X-008605Y-0225135D01*
X-0087925Y-022576D01*
X-00898D01*
X-0091675Y-0225135D01*
X-00923Y-022451D01*
X-0092925Y-022326D01*
X-006355Y-021326D02*
X-0070425Y-0226385D01*
X-0042925Y-0212635D02*
X-00448Y-021326D01*
X-004605Y-0215135D01*
X-0046675Y-021826D01*
Y-0220135D01*
X-004605Y-022326D01*
X-00448Y-0225135D01*
X-0042925Y-022576D01*
X-0041675D01*
X-00398Y-0225135D01*
X-003855Y-022326D01*
X-0037925Y-0220135D01*
Y-021826D01*
X-003855Y-0215135D01*
X-00398Y-021326D01*
X-0041675Y-0212635D01*
X-0042925D01*
X-0030425D02*
X-00323Y-021326D01*
X-003355Y-0215135D01*
X-0034175Y-021826D01*
Y-0220135D01*
X-003355Y-022326D01*
X-00323Y-0225135D01*
X-0030425Y-022576D01*
X-0029175D01*
X-00273Y-0225135D01*
X-002605Y-022326D01*
X-0025425Y-0220135D01*
Y-021826D01*
X-002605Y-0215135D01*
X-00273Y-021326D01*
X-0029175Y-0212635D01*
X-0030425D01*
X-0015425D02*
X-0021675Y-0221385D01*
X-00123D01*
X-0015425Y-0212635D02*
Y-022576D01*
X0019575Y-021451D02*
X0018325Y-021326D01*
X001645Y-0212635D01*
X001395D01*
X0012075Y-021326D01*
X0010825Y-021451D01*
Y-021576D01*
X001145Y-021701D01*
X0012075Y-0217635D01*
X0013325Y-021826D01*
X0017075Y-021951D01*
X0018325Y-0220135D01*
X001895Y-022076D01*
X0019575Y-022201D01*
Y-0223885D01*
X0018325Y-0225135D01*
X001645Y-022576D01*
X001395D01*
X0012075Y-0225135D01*
X0010825Y-0223885D01*
X0032075Y-021451D02*
X0030825Y-021326D01*
X002895Y-0212635D01*
X002645D01*
X0024575Y-021326D01*
X0023325Y-021451D01*
Y-021576D01*
X002395Y-021701D01*
X0024575Y-0217635D01*
X0025825Y-021826D01*
X0029575Y-021951D01*
X0030825Y-0220135D01*
X003145Y-022076D01*
X0032075Y-022201D01*
Y-0223885D01*
X0030825Y-0225135D01*
X002895Y-022576D01*
X002645D01*
X0024575Y-0225135D01*
X0023325Y-0223885D01*
X003895Y-0212635D02*
Y-022576D01*
X0034575Y-0212635D02*
X0043325D01*
X-01173Y-0235135D02*
Y-024826D01*
Y-0235135D02*
X-0111675D01*
X-01098Y-023576D01*
X-0109175Y-0236385D01*
X-010855Y-0237635D01*
Y-023951D01*
X-0109175Y-024076D01*
X-01098Y-0241385D01*
X-0111675Y-024201D01*
X-01173D01*
X-0104175Y-0235135D02*
Y-024826D01*
Y-0235135D02*
X-009605D01*
X-0104175Y-0241385D02*
X-0099175D01*
X-0104175Y-024826D02*
X-009605D01*
X-00898Y-0235135D02*
Y-024826D01*
X-0094175Y-0235135D02*
X-0085425D01*
X-0081675Y-023951D02*
X-00823Y-0240135D01*
X-0081675Y-024076D01*
X-008105Y-0240135D01*
X-0081675Y-023951D01*
Y-024701D02*
X-00823Y-0247635D01*
X-0081675Y-024826D01*
X-008105Y-0247635D01*
X-0081675Y-024701D01*
X-006355Y-0235135D02*
X-0065425Y-023576D01*
X-006605Y-023701D01*
Y-023826D01*
X-0065425Y-023951D01*
X-0064175Y-0240135D01*
X-0061675Y-024076D01*
X-00598Y-0241385D01*
X-005855Y-0242635D01*
X-0057925Y-0243885D01*
Y-024576D01*
X-005855Y-024701D01*
X-0059175Y-0247635D01*
X-006105Y-024826D01*
X-006355D01*
X-0065425Y-0247635D01*
X-006605Y-024701D01*
X-0066675Y-024576D01*
Y-0243885D01*
X-006605Y-0242635D01*
X-00648Y-0241385D01*
X-0062925Y-024076D01*
X-0060425Y-0240135D01*
X-0059175Y-023951D01*
X-005855Y-023826D01*
Y-023701D01*
X-0059175Y-023576D01*
X-006105Y-0235135D01*
X-006355D01*
X-0045425D02*
X-0051675Y-024826D01*
X-0054175Y-0235135D02*
X-0045425D01*
X-0037925D02*
X-00398Y-023576D01*
X-004105Y-0237635D01*
X-0041675Y-024076D01*
Y-0242635D01*
X-004105Y-024576D01*
X-00398Y-0247635D01*
X-0037925Y-024826D01*
X-0036675D01*
X-00348Y-0247635D01*
X-003355Y-024576D01*
X-0032925Y-0242635D01*
Y-024076D01*
X-003355Y-0237635D01*
X-00348Y-023576D01*
X-0036675Y-0235135D01*
X-0037925D01*
X-0022925D02*
X-0029175Y-0243885D01*
X-00198D01*
X-0022925Y-0235135D02*
Y-024826D01*
X-000855Y-023951D02*
X-0009175Y-0241385D01*
X-0010425Y-0242635D01*
X-00123Y-024326D01*
X-0012925D01*
X-00148Y-0242635D01*
X-001605Y-0241385D01*
X-0016675Y-023951D01*
Y-0238885D01*
X-001605Y-023701D01*
X-00148Y-023576D01*
X-0012925Y-0235135D01*
X-00123D01*
X-0010425Y-023576D01*
X-0009175Y-023701D01*
X-000855Y-023951D01*
Y-0242635D01*
X-0009175Y-024576D01*
X-0010425Y-0247635D01*
X-00123Y-024826D01*
X-001355D01*
X-0015425Y-0247635D01*
X-001605Y-0246385D01*
X-01148Y-0257635D02*
Y-027076D01*
X-0119175Y-0257635D02*
X-0110425D01*
X-01073D02*
Y-027076D01*
Y-026451D02*
X-0105425Y-0262635D01*
X-0104175Y-026201D01*
X-01023D01*
X-010105Y-0262635D01*
X-0100425Y-026451D01*
Y-027076D01*
X-0095425Y-026201D02*
Y-026826D01*
X-00948Y-0270135D01*
X-009355Y-027076D01*
X-0091675D01*
X-0090425Y-0270135D01*
X-008855Y-026826D01*
Y-026201D02*
Y-027076D01*
X-006855Y-0257635D02*
Y-0267635D01*
X-0069175Y-026951D01*
X-00698Y-0270135D01*
X-007105Y-027076D01*
X-00723D01*
X-007355Y-0270135D01*
X-0074175Y-026951D01*
X-00748Y-0267635D01*
Y-0266385D01*
X-006355Y-026201D02*
Y-026826D01*
X-0062925Y-0270135D01*
X-0061675Y-027076D01*
X-00598D01*
X-005855Y-0270135D01*
X-0056675Y-026826D01*
Y-026201D02*
Y-027076D01*
X-0051675Y-0257635D02*
Y-027076D01*
X-0035425Y-0260135D02*
X-0034175Y-025951D01*
X-00323Y-0257635D01*
Y-027076D01*
X-0021675Y-0257635D02*
X-002355Y-025826D01*
X-0024175Y-025951D01*
Y-026076D01*
X-002355Y-026201D01*
X-00223Y-0262635D01*
X-00198Y-026326D01*
X-0017925Y-0263885D01*
X-0016675Y-0265135D01*
X-001605Y-0266385D01*
Y-026826D01*
X-0016675Y-026951D01*
X-00173Y-0270135D01*
X-0019175Y-027076D01*
X-0021675D01*
X-002355Y-0270135D01*
X-0024175Y-026951D01*
X-00248Y-026826D01*
Y-0266385D01*
X-0024175Y-0265135D01*
X-0022925Y-0263885D01*
X-002105Y-026326D01*
X-001855Y-0262635D01*
X-00173Y-026201D01*
X-0016675Y-026076D01*
Y-025951D01*
X-00173Y-025826D01*
X-0019175Y-0257635D01*
X-0021675D01*
X-0000425Y-0260135D02*
X0000825Y-025951D01*
X00027Y-0257635D01*
Y-027076D01*
X0018325Y-025951D02*
X00177Y-025826D01*
X0015825Y-0257635D01*
X0014575D01*
X00127Y-025826D01*
X001145Y-0260135D01*
X0010825Y-026326D01*
Y-0266385D01*
X001145Y-0268885D01*
X00127Y-0270135D01*
X0014575Y-027076D01*
X00152D01*
X0017075Y-0270135D01*
X0018325Y-0268885D01*
X001895Y-026701D01*
Y-0266385D01*
X0018325Y-026451D01*
X0017075Y-026326D01*
X00152Y-0262635D01*
X0014575D01*
X00127Y-026326D01*
X001145Y-026451D01*
X0010825Y-0266385D01*
X002395Y-026201D02*
X0023325Y-0262635D01*
X002395Y-026326D01*
X0024575Y-0262635D01*
X002395Y-026201D01*
Y-026951D02*
X0023325Y-0270135D01*
X002395Y-027076D01*
X0024575Y-0270135D01*
X002395Y-026951D01*
X00302Y-0257635D02*
X0037075D01*
X0033325Y-0262635D01*
X00352D01*
X003645Y-026326D01*
X0037075Y-0263885D01*
X00377Y-026576D01*
Y-026701D01*
X0037075Y-0268885D01*
X0035825Y-0270135D01*
X003395Y-027076D01*
X0032075D01*
X00302Y-0270135D01*
X0029575Y-026951D01*
X002895Y-026826D01*
X0043325Y-0260135D02*
X0044575Y-025951D01*
X004645Y-0257635D01*
Y-027076D01*
X00552Y-026201D02*
X0054575Y-0262635D01*
X00552Y-026326D01*
X0055825Y-0262635D01*
X00552Y-026201D01*
Y-026951D02*
X0054575Y-0270135D01*
X00552Y-027076D01*
X0055825Y-0270135D01*
X00552Y-026951D01*
X00677Y-0257635D02*
X006145D01*
X0060825Y-026326D01*
X006145Y-0262635D01*
X0063325Y-026201D01*
X00652D01*
X0067075Y-0262635D01*
X0068325Y-0263885D01*
X006895Y-026576D01*
Y-026701D01*
X0068325Y-0268885D01*
X0067075Y-0270135D01*
X00652Y-027076D01*
X0063325D01*
X006145Y-0270135D01*
X0060825Y-026951D01*
X00602Y-026826D01*
X0073325Y-026076D02*
Y-0260135D01*
X007395Y-0258885D01*
X0074575Y-025826D01*
X0075825Y-0257635D01*
X0078325D01*
X0079575Y-025826D01*
X00802Y-0258885D01*
X0080825Y-0260135D01*
Y-0261385D01*
X00802Y-0262635D01*
X007895Y-026451D01*
X00727Y-027076D01*
X008145D01*
X0095825Y-026076D02*
Y-0260135D01*
X009645Y-0258885D01*
X0097075Y-025826D01*
X0098325Y-0257635D01*
X0100825D01*
X0102075Y-025826D01*
X01027Y-0258885D01*
X0103325Y-0260135D01*
Y-0261385D01*
X01027Y-0262635D01*
X010145Y-026451D01*
X00952Y-027076D01*
X010395D01*
X011145Y-0257635D02*
X0109575Y-025826D01*
X0108325Y-0260135D01*
X01077Y-026326D01*
Y-0265135D01*
X0108325Y-026826D01*
X0109575Y-0270135D01*
X011145Y-027076D01*
X01127D01*
X0114575Y-0270135D01*
X0115825Y-026826D01*
X011645Y-0265135D01*
Y-026326D01*
X0115825Y-0260135D01*
X0114575Y-025826D01*
X01127Y-0257635D01*
X011145D01*
X0122075Y-0260135D02*
X0123325Y-025951D01*
X01252Y-0257635D01*
Y-027076D01*
X013395Y-0257635D02*
X0140825D01*
X0137075Y-0262635D01*
X013895D01*
X01402Y-026326D01*
X0140825Y-0263885D01*
X014145Y-026576D01*
Y-026701D01*
X0140825Y-0268885D01*
X0139575Y-0270135D01*
X01377Y-027076D01*
X0135825D01*
X013395Y-0270135D01*
X0133325Y-026951D01*
X01327Y-026826D01*
M02*

